<svg xmlns="http://www.w3.org/2000/svg" xmlns:xlink="http://www.w3.org/1999/xlink" width="500" zoomAndPan="magnify" viewBox="0 0 375 374.999991" height="500" preserveAspectRatio="xMidYMid meet" version="1.0"><defs><clipPath id="f5d79b5380"><path d="M 13 0 L 338 0 L 338 374.046875 L 13 374.046875 Z M 13 0 " clip-rule="nonzero"/></clipPath><clipPath id="d93b91721e"><path d="M 37.636719 0 L 362 0 L 362 374.046875 L 37.636719 374.046875 Z M 37.636719 0 " clip-rule="nonzero"/></clipPath></defs><g clip-path="url(#f5d79b5380)"><path fill="#e1afd1" d="M 333.910156 368.308594 C 324.621094 368.308594 315.5625 368.308594 306.722656 368.265625 C 306.542969 355.777344 306.769531 344.277344 306.949219 333.140625 C 307.039062 327.460938 307.128906 321.644531 307.21875 315.648438 C 307.265625 315.332031 307.265625 315.019531 307.21875 314.703125 C 307.265625 308.34375 307.265625 301.71875 307.128906 294.820312 C 307.128906 293.960938 307.128906 293.015625 307.128906 291.980469 C 307.175781 286.839844 307.265625 279.804688 304.152344 273.808594 C 301.628906 268.941406 297.4375 265.605469 291.664062 263.753906 C 294.007812 260.597656 295.316406 256.765625 295.542969 252.484375 C 295.769531 248.066406 294.777344 243.421875 292.703125 239.046875 C 289.050781 231.292969 279.808594 223.675781 270.699219 221.015625 C 269.527344 220.652344 268.265625 220.96875 267.363281 221.824219 C 266.507812 222.683594 266.148438 223.945312 266.460938 225.117188 C 266.734375 226.0625 265.46875 228.542969 263.890625 229.804688 C 263.082031 230.4375 262 231.203125 260.871094 231.96875 C 258.886719 233.367188 256.8125 234.808594 255.371094 236.074219 C 253.566406 237.652344 252.167969 239.273438 251.085938 241.03125 C 250.726562 240.175781 250.320312 239.363281 249.871094 238.507812 C 246.894531 233.050781 241.933594 228.769531 236.210938 226.378906 L 239.636719 225.070312 C 241.257812 224.441406 242.160156 222.726562 241.710938 221.058594 C 241.664062 220.832031 235.804688 198.5625 233.234375 188.238281 C 231.296875 178.992188 229.355469 169.839844 227.460938 161.003906 C 225.570312 152.257812 223.628906 143.195312 221.738281 134.042969 C 223.226562 133.457031 224.261719 133.050781 224.621094 132.871094 C 229.445312 130.257812 235.625 125.792969 233.820312 117 C 232.738281 111.769531 229.222656 107.804688 223.945312 105.863281 C 223.585938 105.730469 223.226562 105.59375 222.820312 105.503906 C 225.660156 102.347656 227.417969 98.335938 226.96875 94.324219 C 226.425781 89.632812 224.578125 86.117188 221.421875 83.816406 C 219.707031 82.601562 217.722656 81.789062 215.378906 81.339844 C 216.238281 80.480469 217.046875 79.535156 217.769531 78.453125 C 221.152344 73.492188 221.421875 67.496094 218.492188 62.492188 C 216.144531 58.480469 211.503906 55.820312 206.09375 55.414062 C 203.65625 55.234375 201.085938 55.414062 198.472656 55.953125 C 195.675781 49.148438 190.671875 41.257812 183.863281 37.109375 C 178.09375 33.546875 172.546875 32.195312 166.328125 32.914062 C 167.183594 30.617188 168.039062 28.40625 168.851562 26.199219 C 170.292969 22.277344 171.828125 18.171875 173.539062 14.023438 C 174.304688 12.175781 176.378906 7.214844 173.222656 3.519531 C 170.835938 0.679688 166.957031 0.226562 161.773438 2.121094 C 156.949219 3.878906 152.441406 5.324219 148.113281 6.722656 C 143.691406 8.117188 139.140625 9.605469 134.179688 11.410156 C 132.195312 12.132812 126.921875 14.070312 126.605469 18.757812 C 126.335938 22.726562 129.625 25.339844 131.070312 26.421875 C 134.675781 29.21875 139.273438 31.652344 143.738281 34.042969 C 146.488281 35.484375 149.285156 36.972656 151.761719 38.507812 C 146.171875 42.382812 142.792969 46.847656 140.898438 51.535156 C 129.175781 55.144531 116.328125 63.257812 107.535156 69.121094 C 95.765625 77.007812 85.9375 79.667969 69.664062 82.375 C 67.8125 82.691406 66.597656 84.402344 66.867188 86.253906 C 67.136719 87.921875 68.582031 89.09375 70.203125 89.09375 C 70.382812 89.09375 70.5625 89.09375 70.746094 89.046875 C 88.011719 86.160156 98.472656 83.277344 111.277344 74.710938 C 118.671875 69.75 129.085938 63.167969 138.867188 59.335938 C 138.058594 66.414062 139.5 73.222656 140.539062 78.183594 C 140.582031 78.363281 140.628906 78.542969 140.71875 78.722656 C 140.71875 78.722656 140.71875 78.769531 140.71875 78.769531 C 140.761719 78.949219 140.851562 79.082031 140.941406 79.21875 C 140.941406 79.265625 140.988281 79.265625 140.988281 79.308594 C 141.078125 79.445312 141.167969 79.578125 141.257812 79.667969 C 141.304688 79.714844 141.304688 79.714844 141.347656 79.761719 C 141.4375 79.894531 141.574219 79.984375 141.710938 80.074219 C 141.710938 80.074219 141.753906 80.121094 141.753906 80.121094 C 141.890625 80.210938 141.980469 80.300781 142.117188 80.347656 C 142.160156 80.347656 142.160156 80.390625 142.207031 80.390625 C 142.339844 80.480469 142.476562 80.527344 142.609375 80.570312 C 142.65625 80.570312 142.703125 80.617188 142.746094 80.617188 C 142.882812 80.660156 143.0625 80.707031 143.199219 80.75 C 143.242188 80.75 143.289062 80.75 143.289062 80.75 C 143.421875 80.796875 143.601562 80.796875 143.785156 80.796875 C 143.785156 80.796875 143.785156 80.796875 143.828125 80.796875 C 143.964844 80.796875 144.054688 80.796875 144.1875 80.796875 C 156.136719 79.578125 171.375 73.402344 184.855469 67.992188 C 188.734375 66.414062 192.429688 64.925781 195.722656 63.710938 C 199.238281 62.402344 202.574219 61.816406 205.640625 62.042969 C 208.753906 62.265625 211.457031 63.710938 212.71875 65.785156 C 214.34375 68.578125 214.207031 71.644531 212.269531 74.484375 C 210.464844 77.101562 207.625 78.992188 204.605469 80.933594 C 203.929688 81.382812 203.296875 81.789062 202.621094 82.238281 C 201.269531 83.140625 200.773438 84.855469 201.402344 86.34375 C 202.035156 87.832031 203.613281 88.6875 205.191406 88.328125 C 211.007812 87.109375 215.199219 87.378906 217.542969 89.09375 C 219.078125 90.21875 220.023438 92.113281 220.339844 94.863281 C 220.746094 98.289062 216.550781 103.699219 211.503906 104.691406 C 209.878906 105.007812 208.796875 106.40625 208.796875 107.984375 C 208.796875 108.210938 208.796875 108.433594 208.84375 108.660156 C 209.203125 110.507812 211.007812 111.679688 212.808594 111.320312 C 216.054688 110.6875 225.660156 110.507812 227.238281 118.128906 C 227.777344 120.699219 227.734375 123.269531 221.511719 126.648438 C 219.078125 127.820312 189.367188 138.191406 166.730469 144.367188 C 135.621094 152.84375 93.378906 153.65625 77.824219 152.707031 C 75.972656 152.617188 74.351562 154.015625 74.261719 155.863281 C 74.171875 157.714844 75.570312 159.335938 77.417969 159.425781 C 80.617188 159.605469 84.902344 159.742188 89.996094 159.742188 C 110.238281 159.742188 142.972656 157.804688 168.492188 150.859375 C 168.714844 150.816406 168.894531 150.726562 169.121094 150.679688 C 174.125 158.796875 178.769531 167.046875 183.1875 175.070312 C 187.832031 183.457031 192.65625 192.113281 198.023438 200.679688 C 202.304688 209.066406 214.027344 230.390625 214.523438 231.292969 C 215.15625 232.421875 216.28125 233.050781 217.5 233.050781 C 217.90625 233.050781 218.308594 232.960938 218.714844 232.828125 L 225.074219 230.390625 C 225.703125 231.292969 225.660156 232.960938 224.9375 234.222656 C 224.035156 235.800781 222.1875 237.199219 219.257812 238.550781 C 218.582031 238.867188 217.90625 239.183594 217.136719 239.5 C 214.839844 240.492188 212.496094 241.484375 210.332031 243.105469 C 204.289062 247.523438 201.765625 253.65625 203.117188 259.878906 C 164.027344 259.699219 121.554688 259.742188 79.808594 261.140625 C 67.046875 261.589844 54.289062 263.304688 47.390625 272.996094 C 42.386719 280.03125 42.339844 290.402344 42.296875 297.34375 C 42.296875 304.691406 42.25 307.488281 42.207031 310.78125 C 42.160156 313.441406 42.113281 316.460938 42.070312 322.410156 C 42.023438 331.925781 41.980469 358.253906 41.980469 367.585938 C 33.640625 367.722656 25.117188 367.859375 16.324219 368.039062 C 14.476562 368.082031 12.988281 369.617188 13.035156 371.464844 C 13.078125 373.3125 14.566406 374.757812 16.414062 374.757812 C 16.460938 374.757812 16.460938 374.757812 16.507812 374.757812 C 26.289062 374.574219 35.757812 374.394531 44.957031 374.261719 C 45.089844 374.261719 45.226562 374.304688 45.40625 374.304688 C 45.585938 374.304688 45.765625 374.304688 45.945312 374.261719 C 115.199219 373.222656 169.484375 373.675781 226.605469 374.171875 C 260.148438 374.441406 294.820312 374.757812 333.957031 374.757812 C 335.804688 374.757812 337.335938 373.222656 337.335938 371.375 C 337.335938 369.527344 335.757812 368.308594 333.910156 368.308594 Z M 135.171875 21.101562 C 133.863281 20.109375 133.457031 19.570312 133.367188 19.34375 C 133.640625 19.074219 134.359375 18.535156 136.480469 17.765625 C 141.304688 16.007812 145.8125 14.566406 150.140625 13.167969 C 154.558594 11.769531 159.113281 10.28125 164.070312 8.480469 C 167.316406 7.308594 168.039062 7.847656 168.039062 7.894531 C 168.039062 7.894531 168.492188 8.480469 167.273438 11.453125 C 165.515625 15.738281 163.980469 19.886719 162.492188 23.851562 C 161.1875 27.414062 159.835938 31.066406 158.300781 34.765625 C 154.917969 32.328125 150.816406 30.164062 146.847656 28.046875 C 142.65625 25.835938 138.28125 23.539062 135.171875 21.101562 Z M 182.332031 61.816406 C 170.429688 66.59375 157.128906 71.960938 146.535156 73.71875 C 145.496094 68.441406 144.867188 62.941406 145.992188 57.757812 C 147.210938 52.121094 150.410156 47.570312 155.730469 43.960938 L 156.8125 57.667969 C 156.949219 59.425781 158.4375 60.777344 160.195312 60.777344 C 160.285156 60.777344 160.375 60.777344 160.464844 60.777344 C 162.3125 60.644531 163.710938 59.019531 163.578125 57.125 L 162.71875 45.992188 C 166.011719 48.605469 168.988281 51.625 171.464844 54.960938 C 172.59375 56.449219 174.710938 56.765625 176.199219 55.640625 C 177.6875 54.511719 178.003906 52.394531 176.875 50.90625 C 173.765625 46.710938 169.933594 42.925781 165.742188 39.769531 C 171.871094 38.730469 176.15625 40.21875 180.394531 42.835938 C 183.863281 44.953125 188.734375 50.09375 192.070312 57.9375 C 189.003906 59.15625 185.757812 60.464844 182.332031 61.816406 Z M 175.839844 149.011719 C 190.175781 144.863281 205.6875 139.722656 215.335938 136.34375 C 217.183594 145.179688 219.078125 153.925781 220.878906 162.402344 C 222.59375 170.292969 224.308594 178.453125 226.066406 186.703125 C 222.097656 188.054688 218.128906 189.5 214.296875 190.941406 C 210.421875 192.382812 206.40625 193.871094 202.441406 195.226562 C 197.707031 187.515625 193.332031 179.671875 189.09375 172.050781 C 184.902344 164.519531 180.574219 156.722656 175.839844 149.011719 Z M 205.777344 201.222656 C 209.429688 199.957031 213.082031 198.605469 216.640625 197.253906 C 220.25 195.902344 223.945312 194.546875 227.597656 193.285156 C 229.71875 201.761719 232.964844 214.160156 234.449219 219.796875 L 219.03125 225.703125 C 216.144531 220.519531 209.699219 208.660156 205.777344 201.222656 Z M 259.789062 241.121094 C 261.007812 240.085938 262.992188 238.6875 264.75 237.425781 C 265.964844 236.570312 267.09375 235.800781 267.996094 235.082031 C 270.292969 233.320312 271.78125 231.113281 272.546875 228.902344 C 278.5 231.746094 284.226562 236.929688 286.570312 241.886719 C 290.761719 250.726562 288.507812 257.578125 285.039062 261.09375 C 284.675781 261.457031 284.453125 261.816406 284.269531 262.265625 C 283.503906 262.175781 282.738281 262.132812 281.925781 262.085938 C 279.132812 261.953125 275.480469 261.769531 271.648438 261.589844 C 268.355469 261.410156 264.792969 261.230469 261.1875 261.050781 C 256.992188 257.667969 256.046875 255.460938 255.597656 251.222656 C 255.191406 246.984375 256.40625 244.097656 259.789062 241.121094 Z M 214.296875 248.785156 C 215.875 247.660156 217.769531 246.804688 219.796875 245.945312 C 220.519531 245.628906 221.285156 245.316406 222.050781 244.953125 C 224.757812 243.691406 228.589844 241.617188 230.753906 237.875 C 231.746094 236.207031 232.242188 234.132812 232.195312 232.058594 C 237.109375 233.683594 241.441406 237.15625 243.964844 241.753906 C 247.074219 247.433594 247.210938 254.558594 244.503906 260.417969 C 242.882812 260.375 241.347656 260.328125 239.996094 260.328125 C 235.535156 260.285156 230.980469 260.285156 226.335938 260.238281 C 221.015625 260.195312 215.605469 260.195312 210.148438 260.148438 C 207.941406 254.558594 211.683594 250.679688 214.296875 248.785156 Z M 49.058594 297.613281 C 49.101562 291.574219 49.148438 282.464844 52.890625 277.191406 C 58.347656 269.527344 69.753906 268.488281 80.03125 268.171875 C 130.078125 266.503906 181.203125 266.777344 226.335938 267.046875 C 230.980469 267.089844 235.535156 267.089844 239.996094 267.136719 C 247.480469 267.183594 260.734375 267.859375 271.332031 268.398438 C 275.207031 268.578125 278.859375 268.804688 281.65625 268.894531 C 290.132812 269.253906 295.542969 271.914062 298.15625 276.964844 C 300.5 281.472656 300.410156 287.289062 300.367188 291.933594 C 300.367188 293.015625 300.320312 294.007812 300.367188 294.953125 C 300.457031 300.273438 300.5 305.414062 300.457031 310.417969 C 294.640625 309.292969 288.101562 310.871094 282.738281 314.925781 C 281.429688 315.917969 280.078125 317.046875 278.589844 318.265625 C 274.21875 321.914062 268.761719 326.46875 264.386719 327.191406 C 257.941406 328.226562 251.855469 324.035156 245.453125 319.617188 C 239.410156 315.421875 233.144531 311.09375 225.703125 310.375 C 217.996094 309.609375 211.097656 313.53125 204.425781 317.273438 C 198.15625 320.789062 192.296875 324.125 186.570312 323.179688 C 181.65625 322.367188 177.058594 319.480469 172.1875 316.460938 C 167.183594 313.347656 162 310.148438 156.046875 308.929688 C 146.445312 307.039062 138.238281 311.90625 130.304688 316.597656 C 123.40625 320.699219 116.867188 324.53125 109.96875 323.71875 C 105.414062 323.179688 100.589844 320.339844 95.453125 317.316406 C 90.355469 314.339844 85.125 311.230469 79.671875 310.238281 C 70.113281 308.527344 59.742188 311.410156 48.789062 318.761719 C 48.832031 315.242188 48.832031 313.078125 48.878906 311.09375 C 49.011719 307.804688 49.058594 304.964844 49.058594 297.613281 Z M 48.789062 367.769531 C 48.789062 359.515625 48.789062 338.6875 48.832031 327.144531 C 59.742188 318.804688 69.753906 315.378906 78.542969 316.957031 C 82.828125 317.722656 87.289062 320.382812 92.070312 323.179688 C 97.570312 326.425781 103.25 329.761719 109.203125 330.480469 C 118.398438 331.5625 126.246094 326.964844 133.820312 322.457031 C 140.988281 318.21875 147.707031 314.25 154.785156 315.648438 C 159.519531 316.597656 163.9375 319.347656 168.671875 322.277344 C 173.902344 325.523438 179.265625 328.859375 185.488281 329.894531 C 193.558594 331.25 200.773438 327.144531 207.804688 323.222656 C 213.847656 319.84375 219.527344 316.597656 225.074219 317.136719 C 230.800781 317.679688 236.074219 321.328125 241.621094 325.207031 C 248.023438 329.625 254.605469 334.179688 262.3125 334.179688 C 263.351562 334.179688 264.433594 334.089844 265.515625 333.910156 C 271.691406 332.917969 277.644531 327.914062 282.964844 323.492188 C 284.359375 322.320312 285.667969 321.238281 286.886719 320.339844 C 291.125 317.136719 296.21875 316.054688 300.457031 317.40625 C 300.410156 322.726562 300.320312 327.914062 300.230469 333.050781 C 300.050781 344.234375 299.824219 355.730469 300.007812 368.265625 C 274.261719 368.175781 250.1875 367.949219 226.652344 367.769531 C 170.292969 367.226562 116.6875 366.777344 48.789062 367.769531 Z M 48.789062 367.769531 " fill-opacity="1" fill-rule="nonzero"/></g><g clip-path="url(#d93b91721e)"><path fill="#febdc6" d="M 358.554688 368.308594 C 349.269531 368.308594 340.207031 368.308594 331.371094 368.265625 C 331.1875 355.777344 331.414062 344.277344 331.59375 333.140625 C 331.683594 327.460938 331.777344 321.644531 331.867188 315.648438 C 331.910156 315.332031 331.910156 315.019531 331.867188 314.703125 C 331.910156 308.34375 331.910156 301.71875 331.777344 294.820312 C 331.777344 293.960938 331.777344 293.015625 331.777344 291.980469 C 331.820312 286.839844 331.910156 279.804688 328.800781 273.808594 C 326.273438 268.941406 322.082031 265.605469 316.3125 263.753906 C 318.65625 260.597656 319.964844 256.765625 320.1875 252.484375 C 320.414062 248.066406 319.421875 243.421875 317.347656 239.046875 C 313.695312 231.292969 304.453125 223.675781 295.347656 221.015625 C 294.175781 220.652344 292.910156 220.96875 292.011719 221.824219 C 291.152344 222.683594 290.792969 223.945312 291.109375 225.117188 C 291.378906 226.0625 290.117188 228.542969 288.539062 229.804688 C 287.726562 230.4375 286.644531 231.203125 285.515625 231.96875 C 283.535156 233.367188 281.460938 234.808594 280.015625 236.074219 C 278.214844 237.652344 276.816406 239.273438 275.734375 241.03125 C 275.375 240.175781 274.96875 239.363281 274.515625 238.507812 C 271.539062 233.050781 266.582031 228.769531 260.855469 226.378906 L 264.28125 225.070312 C 265.90625 224.441406 266.808594 222.726562 266.355469 221.058594 C 266.3125 220.832031 260.449219 198.5625 257.878906 188.238281 C 255.941406 178.992188 254.003906 169.839844 252.109375 161.003906 C 250.214844 152.257812 248.277344 143.195312 246.382812 134.042969 C 247.871094 133.457031 248.90625 133.050781 249.269531 132.871094 C 254.09375 130.257812 260.269531 125.792969 258.464844 117 C 257.382812 111.769531 253.867188 107.804688 248.59375 105.863281 C 248.230469 105.730469 247.871094 105.59375 247.464844 105.503906 C 250.304688 102.347656 252.0625 98.335938 251.613281 94.324219 C 251.070312 89.632812 249.222656 86.117188 246.066406 83.816406 C 244.355469 82.601562 242.371094 81.789062 240.027344 81.339844 C 240.882812 80.480469 241.695312 79.535156 242.414062 78.453125 C 245.796875 73.492188 246.066406 67.496094 243.136719 62.492188 C 240.792969 58.480469 236.148438 55.820312 230.738281 55.414062 C 228.304688 55.234375 225.734375 55.414062 223.117188 55.953125 C 220.324219 49.148438 215.320312 41.257812 208.511719 37.109375 C 202.738281 33.546875 197.195312 32.195312 190.972656 32.914062 C 191.828125 30.617188 192.6875 28.40625 193.496094 26.199219 C 194.941406 22.277344 196.472656 18.171875 198.1875 14.023438 C 198.953125 12.175781 201.027344 7.214844 197.871094 3.519531 C 195.480469 0.679688 191.605469 0.226562 186.417969 2.121094 C 181.59375 3.878906 177.085938 5.324219 172.757812 6.722656 C 168.339844 8.117188 163.785156 9.605469 158.828125 11.410156 C 156.84375 12.132812 151.566406 14.070312 151.25 18.757812 C 150.980469 22.726562 154.273438 25.339844 155.714844 26.421875 C 159.320312 29.21875 163.921875 31.652344 168.382812 34.042969 C 171.132812 35.484375 173.929688 36.972656 176.410156 38.507812 C 170.820312 42.382812 167.4375 46.847656 165.542969 51.535156 C 153.820312 55.144531 140.972656 63.257812 132.179688 69.121094 C 120.414062 77.007812 110.585938 79.667969 94.308594 82.375 C 92.460938 82.691406 91.242188 84.402344 91.511719 86.253906 C 91.785156 87.921875 93.226562 89.09375 94.847656 89.09375 C 95.03125 89.09375 95.210938 89.09375 95.390625 89.046875 C 112.660156 86.160156 123.117188 83.277344 135.921875 74.710938 C 143.316406 69.75 153.730469 63.167969 163.515625 59.335938 C 162.703125 66.414062 164.144531 73.222656 165.183594 78.183594 C 165.226562 78.363281 165.273438 78.542969 165.363281 78.722656 C 165.363281 78.722656 165.363281 78.769531 165.363281 78.769531 C 165.410156 78.949219 165.5 79.082031 165.589844 79.21875 C 165.589844 79.265625 165.632812 79.265625 165.632812 79.308594 C 165.722656 79.445312 165.816406 79.578125 165.90625 79.667969 C 165.949219 79.714844 165.949219 79.714844 165.996094 79.761719 C 166.085938 79.894531 166.21875 79.984375 166.355469 80.074219 C 166.355469 80.074219 166.402344 80.121094 166.402344 80.121094 C 166.535156 80.210938 166.625 80.300781 166.761719 80.347656 C 166.804688 80.347656 166.804688 80.390625 166.851562 80.390625 C 166.988281 80.480469 167.121094 80.527344 167.257812 80.570312 C 167.300781 80.570312 167.347656 80.617188 167.390625 80.617188 C 167.527344 80.660156 167.707031 80.707031 167.84375 80.75 C 167.886719 80.75 167.933594 80.75 167.933594 80.75 C 168.070312 80.796875 168.25 80.796875 168.429688 80.796875 C 168.429688 80.796875 168.429688 80.796875 168.472656 80.796875 C 168.609375 80.796875 168.699219 80.796875 168.835938 80.796875 C 180.78125 79.578125 196.023438 73.402344 209.503906 67.992188 C 213.378906 66.414062 217.078125 64.925781 220.367188 63.710938 C 223.886719 62.402344 227.222656 61.816406 230.289062 62.042969 C 233.398438 62.265625 236.101562 63.710938 237.367188 65.785156 C 238.988281 68.578125 238.855469 71.644531 236.914062 74.484375 C 235.113281 77.101562 232.269531 78.992188 229.25 80.933594 C 228.574219 81.382812 227.941406 81.789062 227.265625 82.238281 C 225.914062 83.140625 225.417969 84.855469 226.050781 86.34375 C 226.679688 87.832031 228.257812 88.6875 229.835938 88.328125 C 235.652344 87.109375 239.84375 87.378906 242.191406 89.09375 C 243.722656 90.21875 244.667969 92.113281 244.984375 94.863281 C 245.390625 98.289062 241.199219 103.699219 236.148438 104.691406 C 234.523438 105.007812 233.441406 106.40625 233.441406 107.984375 C 233.441406 108.210938 233.441406 108.433594 233.488281 108.660156 C 233.847656 110.507812 235.652344 111.679688 237.457031 111.320312 C 240.703125 110.6875 250.304688 110.507812 251.882812 118.128906 C 252.425781 120.699219 252.378906 123.269531 246.15625 126.648438 C 243.722656 127.820312 214.011719 138.191406 191.378906 144.367188 C 160.269531 152.84375 118.023438 153.65625 102.46875 152.707031 C 100.621094 152.617188 98.996094 154.015625 98.90625 155.863281 C 98.816406 157.714844 100.214844 159.335938 102.0625 159.425781 C 105.265625 159.605469 109.546875 159.742188 114.640625 159.742188 C 134.886719 159.742188 167.617188 157.804688 193.136719 150.859375 C 193.363281 150.816406 193.542969 150.726562 193.769531 150.679688 C 198.773438 158.796875 203.417969 167.046875 207.835938 175.070312 C 212.476562 183.457031 217.300781 192.113281 222.667969 200.679688 C 226.949219 209.066406 238.671875 230.390625 239.167969 231.292969 C 239.800781 232.421875 240.925781 233.050781 242.144531 233.050781 C 242.550781 233.050781 242.957031 232.960938 243.363281 232.828125 L 249.71875 230.390625 C 250.351562 231.292969 250.304688 232.960938 249.585938 234.222656 C 248.683594 235.800781 246.832031 237.199219 243.902344 238.550781 C 243.226562 238.867188 242.550781 239.183594 241.785156 239.5 C 239.484375 240.492188 237.140625 241.484375 234.976562 243.105469 C 228.933594 247.523438 226.410156 253.65625 227.761719 259.878906 C 188.671875 259.699219 146.203125 259.742188 104.453125 261.140625 C 91.695312 261.589844 78.933594 263.304688 72.035156 272.996094 C 67.03125 280.03125 66.988281 290.402344 66.941406 297.34375 C 66.941406 304.691406 66.894531 307.488281 66.851562 310.78125 C 66.804688 313.441406 66.761719 316.460938 66.714844 322.410156 C 66.671875 331.925781 66.625 358.253906 66.625 367.585938 C 58.285156 367.722656 49.761719 367.859375 40.972656 368.039062 C 39.125 368.082031 37.636719 369.617188 37.679688 371.464844 C 37.726562 373.3125 39.214844 374.757812 41.0625 374.757812 C 41.105469 374.757812 41.105469 374.757812 41.152344 374.757812 C 50.9375 374.574219 60.402344 374.394531 69.601562 374.261719 C 69.738281 374.261719 69.871094 374.304688 70.050781 374.304688 C 70.234375 374.304688 70.414062 374.304688 70.59375 374.261719 C 139.84375 373.222656 194.128906 373.675781 251.253906 374.171875 C 284.796875 374.441406 319.46875 374.757812 358.601562 374.757812 C 360.449219 374.757812 361.984375 373.222656 361.984375 371.375 C 361.984375 369.527344 360.40625 368.308594 358.554688 368.308594 Z M 159.816406 21.101562 C 158.511719 20.109375 158.105469 19.570312 158.015625 19.34375 C 158.285156 19.074219 159.007812 18.535156 161.125 17.765625 C 165.949219 16.007812 170.457031 14.566406 174.785156 13.167969 C 179.203125 11.769531 183.757812 10.28125 188.71875 8.480469 C 191.964844 7.308594 192.6875 7.847656 192.6875 7.894531 C 192.6875 7.894531 193.136719 8.480469 191.917969 11.453125 C 190.160156 15.738281 188.628906 19.886719 187.140625 23.851562 C 185.832031 27.414062 184.480469 31.066406 182.945312 34.765625 C 179.566406 32.328125 175.464844 30.164062 171.496094 28.046875 C 167.300781 25.835938 162.929688 23.539062 159.816406 21.101562 Z M 206.976562 61.816406 C 195.074219 66.59375 181.773438 71.960938 171.179688 73.71875 C 170.144531 68.441406 169.511719 62.941406 170.640625 57.757812 C 171.855469 52.121094 175.058594 47.570312 180.378906 43.960938 L 181.460938 57.667969 C 181.59375 59.425781 183.082031 60.777344 184.839844 60.777344 C 184.929688 60.777344 185.019531 60.777344 185.109375 60.777344 C 186.960938 60.644531 188.359375 59.019531 188.222656 57.125 L 187.367188 45.992188 C 190.65625 48.605469 193.632812 51.625 196.113281 54.960938 C 197.238281 56.449219 199.359375 56.765625 200.847656 55.640625 C 202.335938 54.511719 202.648438 52.394531 201.523438 50.90625 C 198.410156 46.710938 194.578125 42.925781 190.386719 39.769531 C 196.519531 38.730469 200.800781 40.21875 205.039062 42.835938 C 208.511719 44.953125 213.378906 50.09375 216.714844 57.9375 C 213.652344 59.15625 210.40625 60.464844 206.976562 61.816406 Z M 200.484375 149.011719 C 214.824219 144.863281 230.332031 139.722656 239.980469 136.34375 C 241.828125 145.179688 243.722656 153.925781 245.527344 162.402344 C 247.238281 170.292969 248.953125 178.453125 250.710938 186.703125 C 246.742188 188.054688 242.777344 189.5 238.945312 190.941406 C 235.066406 192.382812 231.054688 193.871094 227.085938 195.226562 C 222.351562 187.515625 217.980469 179.671875 213.742188 172.050781 C 209.546875 164.519531 205.21875 156.722656 200.484375 149.011719 Z M 230.421875 201.222656 C 234.074219 199.957031 237.726562 198.605469 241.289062 197.253906 C 244.894531 195.902344 248.59375 194.546875 252.242188 193.285156 C 254.363281 201.761719 257.609375 214.160156 259.097656 219.796875 L 243.679688 225.703125 C 240.792969 220.519531 234.34375 208.660156 230.421875 201.222656 Z M 284.433594 241.121094 C 285.652344 240.085938 287.636719 238.6875 289.394531 237.425781 C 290.613281 236.570312 291.738281 235.800781 292.640625 235.082031 C 294.941406 233.320312 296.429688 231.113281 297.195312 228.902344 C 303.144531 231.746094 308.871094 236.929688 311.214844 241.886719 C 315.410156 250.726562 313.15625 257.578125 309.683594 261.09375 C 309.324219 261.457031 309.097656 261.816406 308.917969 262.265625 C 308.152344 262.175781 307.382812 262.132812 306.574219 262.085938 C 303.777344 261.953125 300.125 261.769531 296.292969 261.589844 C 293 261.410156 289.441406 261.230469 285.832031 261.050781 C 281.640625 257.667969 280.691406 255.460938 280.242188 251.222656 C 279.835938 246.984375 281.054688 244.097656 284.433594 241.121094 Z M 238.945312 248.785156 C 240.523438 247.660156 242.414062 246.804688 244.445312 245.945312 C 245.164062 245.628906 245.933594 245.316406 246.699219 244.953125 C 249.402344 243.691406 253.234375 241.617188 255.398438 237.875 C 256.390625 236.207031 256.886719 234.132812 256.84375 232.058594 C 261.757812 233.683594 266.085938 237.15625 268.609375 241.753906 C 271.722656 247.433594 271.855469 254.558594 269.152344 260.417969 C 267.527344 260.375 265.996094 260.328125 264.644531 260.328125 C 260.179688 260.285156 255.625 260.285156 250.980469 260.238281 C 245.660156 260.195312 240.25 260.195312 234.796875 260.148438 C 232.585938 254.558594 236.328125 250.679688 238.945312 248.785156 Z M 73.703125 297.613281 C 73.75 291.574219 73.792969 282.464844 77.535156 277.191406 C 82.992188 269.527344 94.398438 268.488281 104.679688 268.171875 C 154.722656 266.503906 205.851562 266.777344 250.980469 267.046875 C 255.625 267.089844 260.179688 267.089844 264.644531 267.136719 C 272.128906 267.183594 285.382812 267.859375 295.976562 268.398438 C 299.855469 268.578125 303.507812 268.804688 306.300781 268.894531 C 314.777344 269.253906 320.1875 271.914062 322.804688 276.964844 C 325.148438 281.472656 325.058594 287.289062 325.011719 291.933594 C 325.011719 293.015625 324.96875 294.007812 325.011719 294.953125 C 325.101562 300.273438 325.148438 305.414062 325.101562 310.417969 C 319.285156 309.292969 312.75 310.871094 307.382812 314.925781 C 306.078125 315.917969 304.722656 317.046875 303.234375 318.265625 C 298.863281 321.914062 293.40625 326.46875 289.035156 327.191406 C 282.585938 328.226562 276.5 324.035156 270.097656 319.617188 C 264.054688 315.421875 257.789062 311.09375 250.351562 310.375 C 242.640625 309.609375 235.742188 313.53125 229.070312 317.273438 C 222.804688 320.789062 216.941406 324.125 211.214844 323.179688 C 206.300781 322.367188 201.703125 319.480469 196.832031 316.460938 C 191.828125 313.347656 186.644531 310.148438 180.691406 308.929688 C 171.089844 307.039062 162.882812 311.90625 154.949219 316.597656 C 148.050781 320.699219 141.511719 324.53125 134.613281 323.71875 C 130.0625 323.179688 125.238281 320.339844 120.097656 317.316406 C 115.003906 314.339844 109.773438 311.230469 104.316406 310.238281 C 94.757812 308.527344 84.390625 311.410156 73.433594 318.761719 C 73.480469 315.242188 73.480469 313.078125 73.523438 311.09375 C 73.660156 307.804688 73.703125 304.964844 73.703125 297.613281 Z M 73.433594 367.769531 C 73.433594 359.515625 73.433594 338.6875 73.480469 327.144531 C 84.390625 318.804688 94.398438 315.378906 103.191406 316.957031 C 107.472656 317.722656 111.9375 320.382812 116.714844 323.179688 C 122.214844 326.425781 127.898438 329.761719 133.847656 330.480469 C 143.046875 331.5625 150.890625 326.964844 158.464844 322.457031 C 165.632812 318.21875 172.351562 314.25 179.429688 315.648438 C 184.164062 316.597656 188.582031 319.347656 193.316406 322.277344 C 198.546875 325.523438 203.910156 328.859375 210.132812 329.894531 C 218.203125 331.25 225.417969 327.144531 232.453125 323.222656 C 238.492188 319.84375 244.171875 316.597656 249.71875 317.136719 C 255.445312 317.679688 260.71875 321.328125 266.265625 325.207031 C 272.667969 329.625 279.25 334.179688 286.960938 334.179688 C 287.996094 334.179688 289.078125 334.089844 290.160156 333.910156 C 296.339844 332.917969 302.289062 327.914062 307.609375 323.492188 C 309.007812 322.320312 310.316406 321.238281 311.53125 320.339844 C 315.769531 317.136719 320.863281 316.054688 325.101562 317.40625 C 325.058594 322.726562 324.96875 327.914062 324.878906 333.050781 C 324.695312 344.234375 324.472656 355.730469 324.652344 368.265625 C 298.90625 368.175781 274.832031 367.949219 251.296875 367.769531 C 194.941406 367.226562 141.332031 366.777344 73.433594 367.769531 Z M 73.433594 367.769531 " fill-opacity="1" fill-rule="nonzero"/></g></svg>