<svg xmlns="http://www.w3.org/2000/svg" xmlns:xlink="http://www.w3.org/1999/xlink" width="500" zoomAndPan="magnify" viewBox="0 0 375 374.999991" height="500" preserveAspectRatio="xMidYMid meet" version="1.0"><defs><clipPath id="b624d6eeb5"><path d="M 38 0 L 313.5 0 L 313.5 370.5 L 38 370.5 Z M 38 0 " clip-rule="nonzero"/></clipPath><clipPath id="dd047964c3"><path d="M 53 4.324219 L 328.933594 4.324219 L 328.933594 374.824219 L 53 374.824219 Z M 53 4.324219 " clip-rule="nonzero"/></clipPath></defs><g clip-path="url(#b624d6eeb5)"><path fill="#e1afd1" d="M 312.871094 184.582031 C 312.125 177.402344 309.132812 170.742188 302.324219 165.878906 C 300.828125 164.832031 300.828125 163.859375 301.800781 162.511719 C 306.0625 156.152344 308.160156 148.894531 309.207031 141.335938 C 309.953125 136.398438 309.28125 131.535156 306.0625 127.792969 C 300.902344 121.882812 294.691406 117.171875 289.378906 111.332031 C 284.964844 106.394531 281.074219 101.457031 280.101562 94.273438 C 279.128906 86.792969 274.640625 81.480469 268.355469 77.890625 C 262.21875 74.371094 256.53125 70.183594 252.042969 64.496094 C 248.003906 59.40625 245.382812 53.421875 241.269531 48.410156 C 236.179688 42.199219 231.09375 36.363281 222.789062 35.316406 C 222.265625 35.242188 221.816406 35.015625 221.742188 34.492188 C 221.515625 32.097656 219.71875 30.378906 218.972656 28.207031 C 218.402344 26.574219 217.515625 25.136719 216.3125 23.894531 C 215.109375 22.652344 213.703125 21.722656 212.089844 21.097656 C 203.109375 17.433594 194.058594 13.84375 185.003906 10.324219 C 181.039062 8.753906 176.699219 8.082031 173.332031 5.164062 C 171.683594 3.617188 169.886719 2.269531 167.945312 1.121094 C 165.847656 0 164.652344 0.597656 163.304688 2.46875 C 161.585938 4.863281 161.0625 7.707031 159.789062 10.25 C 157.394531 15.113281 155.300781 19.976562 156.121094 25.738281 C 156.722656 29.929688 155.523438 34.117188 154.625 38.234375 C 152.980469 46.164062 147.59375 50.503906 139.8125 50.503906 C 139.335938 50.492188 138.863281 50.515625 138.390625 50.578125 C 138.316406 50.578125 138.238281 50.804688 138.089844 50.953125 C 138.710938 51.039062 139.335938 51.085938 139.960938 51.101562 C 139.953125 51.28125 139.980469 51.457031 140.035156 51.625 C 134.648438 53.121094 127.09375 56.9375 121.554688 54.695312 C 119.683594 53.945312 117.964844 52.824219 116.09375 52.226562 C 112.425781 50.953125 108.460938 51.476562 104.644531 52 C 103.074219 52.125 101.578125 52.523438 100.15625 53.199219 C 96.789062 55.144531 94.695312 60.90625 93.648438 64.421875 C 93.046875 66.515625 93.648438 68.910156 93.046875 70.929688 C 91.925781 74.222656 92.597656 73.25 89.082031 73.472656 C 82.5 73.847656 77.484375 74.671875 74.042969 80.730469 C 73.371094 81.929688 67.683594 93.003906 68.957031 93.453125 C 71.125 94.199219 70.300781 95.996094 70.527344 97.34375 C 71.5 104.824219 72.472656 112.230469 75.839844 119.039062 C 76.4375 120.3125 75.914062 120.386719 75.089844 120.6875 C 72.171875 121.660156 69.179688 122.632812 66.261719 123.53125 C 62.445312 124.652344 59.601562 127.71875 56.085938 129.367188 C 54.660156 130.019531 53.539062 131.019531 52.71875 132.359375 C 50.753906 135.488281 49.183594 138.804688 48.003906 142.308594 C 47.183594 144.480469 46.433594 146.722656 46.882812 149.042969 C 47.046875 149.914062 46.972656 150.761719 46.660156 151.585938 C 46.660156 151.664062 46.734375 151.738281 46.734375 151.8125 C 46.808594 152.410156 46.808594 153.007812 46.882812 153.683594 L 46.882812 153.757812 C 46.890625 153.816406 46.917969 153.867188 46.957031 153.90625 C 47.480469 153.980469 47.332031 154.878906 47.558594 155.402344 C 47.929688 156.226562 48.304688 157.050781 48.753906 158.171875 C 48.964844 158.324219 49.113281 158.523438 49.203125 158.769531 L 49.425781 159.445312 C 49.871094 159.976562 50.195312 160.578125 50.398438 161.238281 C 51.011719 161.953125 51.535156 162.726562 51.972656 163.558594 C 52.644531 164.679688 53.992188 165.878906 53.84375 166.851562 C 53.617188 168.273438 51.671875 168.046875 50.476562 168.722656 C 48.882812 169.589844 47.5625 170.761719 46.507812 172.238281 C 45.613281 173.511719 44.5625 174.632812 43.667969 175.90625 C 40.074219 181.441406 37.53125 187.277344 38.953125 194.160156 C 39.699219 197.675781 39.25 201.34375 41.871094 204.5625 C 43.21875 206.207031 44.113281 208.75 45.460938 210.769531 C 47.183594 213.316406 49.203125 215.785156 52.421875 216.382812 C 55.9375 217.054688 57.734375 219.523438 59.078125 222.816406 C 63.792969 234.714844 65.140625 247.433594 67.609375 259.855469 C 69.929688 271.601562 71.351562 283.648438 73.59375 295.46875 C 76.289062 309.683594 77.261719 324.050781 79.503906 338.339844 C 80.925781 347.617188 85.417969 353.679688 92.597656 357.792969 C 98.511719 361.238281 104.945312 363.628906 111.527344 365.800781 C 119.234375 368.34375 127.242188 368.71875 135.171875 369.765625 C 138.316406 370.214844 141.605469 370.664062 144.601562 370.140625 C 154.777344 368.34375 164.953125 369.316406 175.128906 368.417969 C 179.167969 368.046875 183.28125 369.167969 187.171875 368.570312 C 194.804688 367.371094 202.511719 366.847656 210.144531 366.101562 C 213.433594 365.800781 216.726562 365.128906 219.71875 367.445312 C 220.136719 367.742188 220.597656 367.917969 221.101562 367.96875 C 221.609375 368.023438 222.097656 367.949219 222.5625 367.746094 C 222.191406 367.074219 221.140625 367.597656 221.21875 366.847656 C 221.292969 366.101562 222.113281 366.25 222.789062 366.175781 C 228.472656 365.800781 234.234375 365.726562 239.921875 365.050781 C 244.113281 364.527344 248.226562 364.078125 252.269531 365.726562 C 252.808594 365.945312 253.355469 365.96875 253.914062 365.800781 C 260.574219 364.304688 264.164062 359.066406 267.53125 353.53125 C 267.605469 353.386719 267.652344 353.238281 267.679688 353.082031 C 266.632812 350.6875 267.832031 348.742188 268.503906 346.570312 C 269.851562 342.230469 272.246094 338.191406 271.722656 333.253906 C 271.605469 331.898438 271.832031 330.601562 272.394531 329.363281 C 273.257812 327.355469 273.933594 325.285156 274.414062 323.152344 C 275.089844 319.488281 275.835938 315.820312 276.734375 312.304688 C 278.304688 306.542969 279.875 300.78125 281.222656 294.945312 C 282.792969 288.285156 284.515625 281.550781 286.238281 274.96875 C 288.257812 267.484375 287.957031 259.554688 290.203125 252.074219 C 290.644531 250.578125 290.945312 249.058594 291.101562 247.507812 C 291.921875 239.875 293.867188 232.46875 295.441406 224.988281 C 295.664062 223.789062 296.039062 222.816406 297.460938 222.59375 C 302.171875 221.621094 305.242188 218.628906 307.1875 214.0625 C 310.628906 204.980469 313.84375 194.3125 312.871094 184.582031 Z M 222.789062 43.066406 C 222.789062 42.167969 222.488281 41.421875 222.488281 40.671875 C 222.488281 38.652344 224.210938 37.007812 225.480469 38.054688 C 228.699219 40.671875 233.039062 41.421875 235.65625 45.085938 C 238.351562 48.902344 240.445312 53.09375 243.066406 56.910156 C 245.191406 60.253906 247.636719 63.34375 250.398438 66.1875 C 253.539062 69.328125 256.53125 72.621094 260.125 75.164062 C 262.96875 77.183594 266.183594 78.683594 269.027344 80.777344 C 270.714844 82.011719 272.152344 83.492188 273.34375 85.207031 C 274.535156 86.925781 275.417969 88.789062 275.984375 90.804688 C 277.035156 94.320312 278.007812 97.910156 279.054688 101.503906 C 279.652344 103.523438 281 105.019531 282.195312 106.664062 C 284.664062 110.105469 287.882812 112.800781 290.875 115.71875 C 292.519531 117.289062 293.644531 119.308594 295.140625 121.03125 C 297.085938 123.351562 299.628906 124.847656 301.875 126.792969 C 306.0625 130.382812 307.113281 135.320312 306.886719 140.335938 C 306.734375 144.421875 305.972656 148.390625 304.609375 152.242188 C 303.242188 156.097656 301.332031 159.660156 298.882812 162.929688 C 296.113281 166.597656 292.671875 169.738281 287.808594 170.488281 C 285.039062 170.9375 282.71875 172.730469 280.101562 173.628906 C 276.433594 174.902344 272.769531 175.574219 270.671875 175.5 C 264.464844 175.203125 260.050781 176.398438 255.632812 175.425781 C 252.640625 174.753906 249.648438 173.929688 246.65625 173.179688 C 241.867188 172.058594 237.152344 171.609375 232.363281 173.257812 C 230.761719 173.785156 229.113281 174.011719 227.425781 173.929688 C 224.582031 173.78125 222.789062 171.460938 223.238281 168.542969 L 223.238281 168.316406 C 223.238281 167.121094 222.113281 165.472656 223.386719 164.726562 C 224.210938 164.277344 225.707031 164.800781 226.828125 165.101562 C 234.683594 167.417969 242.539062 166.074219 250.320312 165.175781 C 256.90625 164.351562 262.292969 160.835938 266.410156 155.972656 C 271.347656 150.210938 274.339844 143.253906 274.117188 135.246094 C 273.816406 125.222656 269.328125 117.515625 261.621094 111.753906 C 259.226562 109.957031 257.503906 107.636719 255.484375 105.617188 C 249.949219 100.230469 243.511719 96.117188 238.050781 90.726562 C 233.9375 86.613281 230.496094 81.972656 229 75.988281 C 228.167969 72.636719 227.144531 69.34375 225.929688 66.113281 C 225.109375 63.792969 223.085938 62.371094 221.292969 60.949219 C 220.996094 60.757812 220.742188 60.523438 220.527344 60.246094 C 220.3125 59.96875 220.152344 59.664062 220.042969 59.328125 C 219.933594 58.996094 219.882812 58.652344 219.894531 58.300781 C 219.902344 57.949219 219.96875 57.609375 220.09375 57.28125 C 221.710938 52.679688 222.609375 47.941406 222.789062 43.066406 Z M 244.304688 174.855469 C 241.835938 174.707031 239.441406 174.484375 236.972656 174.332031 C 239.472656 173.105469 241.867188 174.109375 244.304688 174.855469 Z M 103.644531 172.6875 C 100.800781 169.542969 102.96875 166.476562 103.71875 163.335938 C 106.410156 151.363281 115.539062 146.351562 125.042969 141.9375 C 131.25 139.019531 138.136719 138.195312 144.496094 135.652344 C 151.828125 132.734375 159.460938 130.339844 165.296875 124.578125 C 166.429688 123.484375 167.441406 122.285156 168.328125 120.984375 C 169.214844 119.683594 169.960938 118.304688 170.566406 116.851562 C 171.171875 115.398438 171.621094 113.898438 171.917969 112.351562 C 172.214844 110.804688 172.351562 109.242188 172.328125 107.667969 C 172.253906 100.632812 167.765625 96.519531 163.722656 92.03125 C 161.425781 89.527344 158.882812 87.308594 156.09375 85.371094 C 152.949219 83.050781 152.277344 79.683594 154.222656 76.167969 C 154.519531 75.570312 154.671875 75.121094 154.296875 74.597656 C 154.09375 74.234375 153.945312 73.851562 153.855469 73.449219 C 153.765625 73.042969 153.738281 72.632812 153.769531 72.21875 C 153.804688 71.804688 153.898438 71.40625 154.050781 71.019531 C 154.203125 70.636719 154.410156 70.28125 154.671875 69.957031 C 157.140625 66.816406 159.382812 63.148438 163.425781 62.027344 C 165.746094 61.429688 167.242188 59.78125 168.738281 58.210938 C 171.222656 55.460938 173.941406 52.96875 176.894531 50.730469 C 178.3125 49.679688 178.613281 48.035156 179.363281 46.6875 C 180.511719 44.511719 181.511719 42.265625 182.355469 39.953125 C 184.675781 33.667969 181.832031 28.507812 178.613281 23.570312 C 177.339844 21.546875 175.621094 19.753906 175.097656 17.433594 C 185.722656 23.71875 195.523438 27.085938 203.230469 37.636719 C 202.855469 36.511719 202.40625 35.316406 202.03125 34.191406 C 204.859375 38.660156 206.554688 43.523438 207.121094 48.785156 C 207.691406 48.160156 208.066406 47.4375 208.242188 46.613281 C 208.765625 52.449219 209.890625 58.210938 210.414062 64.046875 C 210.9375 69.734375 208.992188 73.550781 204.949219 77.140625 C 197.84375 83.351562 194.773438 91.957031 194.324219 101.160156 C 194.222656 103.054688 194.34375 104.933594 194.699219 106.800781 C 195.050781 108.664062 195.621094 110.460938 196.410156 112.1875 C 197.199219 113.914062 198.179688 115.523438 199.359375 117.011719 C 200.539062 118.496094 201.878906 119.824219 203.378906 120.984375 C 210.335938 126.523438 212.65625 136.921875 208.316406 144.929688 C 206 149.195312 203.304688 152.933594 198.664062 154.582031 C 197.617188 154.953125 196.496094 155.105469 195.449219 155.402344 C 188.339844 157.722656 183.253906 162.511719 179.886719 169.394531 C 179.742188 169.785156 179.566406 170.15625 179.363281 170.515625 C 178.390625 172.015625 177.941406 172.386719 177.117188 171.566406 C 176.972656 171.625 176.824219 171.652344 176.667969 171.640625 C 176.464844 171.652344 176.265625 171.628906 176.070312 171.566406 C 175.695312 173.0625 174.5 173.359375 173.078125 173.660156 C 167.851562 174.648438 162.714844 175.96875 157.664062 177.625 C 155.675781 178.164062 153.65625 178.511719 151.601562 178.671875 C 150.558594 178.796875 149.535156 178.6875 148.539062 178.347656 C 147.542969 178.003906 146.667969 177.464844 145.917969 176.726562 C 142.550781 173.511719 138.359375 172.6875 134.019531 172.386719 C 129.980469 172.089844 125.941406 172.238281 121.898438 172.3125 C 119.207031 172.3125 116.886719 173.585938 114.417969 174.632812 C 111.347656 175.980469 108.355469 177.773438 104.914062 176.128906 C 103.941406 175.679688 102.671875 175.378906 103.492188 173.734375 C 103.640625 173.390625 103.691406 173.03125 103.644531 172.65625 Z M 192.753906 158.546875 C 194.265625 157.84375 195.835938 157.320312 197.46875 156.976562 C 206.523438 154.804688 212.28125 144.703125 212.507812 135.652344 C 212.65625 127.792969 209.515625 121.734375 203.976562 116.644531 C 198.964844 112.082031 195.898438 106.46875 196.871094 99.289062 C 197.542969 94.347656 198.066406 89.335938 201.808594 85.519531 C 203.902344 83.351562 204.949219 80.207031 207.121094 77.964844 C 207.570312 77.515625 207.945312 76.617188 208.542969 76.839844 C 210.863281 77.890625 211.234375 76.019531 211.910156 74.597656 C 212.546875 73.183594 213.371094 71.886719 214.378906 70.707031 C 216.398438 68.386719 217.371094 65.320312 218.566406 62.25 C 219.765625 63.296875 219.464844 64.570312 220.363281 65.46875 C 220.886719 64.71875 220.289062 63.671875 221.039062 63 C 221.515625 63.207031 221.921875 63.507812 222.261719 63.902344 C 222.605469 64.296875 222.84375 64.742188 222.984375 65.242188 C 224.253906 68.609375 226.050781 71.753906 226.050781 75.570312 C 226.050781 77.214844 227.171875 78.636719 227.847656 80.058594 C 230.089844 84.699219 232.859375 88.960938 236.75 92.253906 C 241.3125 96.144531 245.953125 100.035156 250.742188 103.703125 C 255.980469 107.667969 258.972656 113.429688 262.710938 118.589844 C 263.984375 120.386719 265.257812 122.183594 267.800781 122.109375 C 268.773438 122.109375 269.148438 122.929688 269.445312 123.679688 C 271.464844 129.515625 273.410156 135.425781 271.839844 141.785156 C 271.390625 143.804688 270.941406 145.902344 269.445312 147.324219 C 266.078125 150.464844 264.507812 155.105469 260.320312 157.574219 C 256.339844 160.042969 252.027344 161.539062 247.375 162.0625 C 243.859375 162.363281 240.339844 163.035156 236.824219 163.558594 C 232.632812 164.15625 228.894531 162.4375 225.003906 161.3125 C 219.980469 159.875 214.894531 159.578125 209.738281 160.417969 C 205.25 161.089844 200.609375 160.566406 196.046875 160.867188 C 193.203125 161.089844 190.585938 161.613281 188.265625 163.410156 C 188.015625 163.71875 187.695312 163.929688 187.3125 164.039062 C 186.929688 164.148438 186.546875 164.140625 186.171875 164.007812 C 187.695312 161.433594 190.167969 159.789062 192.785156 158.515625 Z M 257.773438 161.089844 C 253.808594 164.15625 249.09375 164.234375 244.53125 164.53125 C 249.125 164.203125 253.464844 162.707031 257.773438 161.058594 Z M 199.113281 18.03125 C 203.753906 19.679688 208.691406 21.023438 212.808594 24.019531 C 217.820312 27.609375 220.511719 32.695312 219.464844 39.207031 C 219.242188 40.554688 220.363281 40.925781 220.511719 41.976562 C 220.816406 44.355469 220.742188 46.726562 220.289062 49.082031 C 219.015625 56.042969 217.148438 62.851562 212.582031 69.210938 C 212.359375 66.066406 211.984375 63.449219 211.984375 60.828125 C 212.003906 56.617188 211.527344 52.460938 210.550781 48.363281 C 209.578125 44.265625 208.136719 40.339844 206.222656 36.585938 C 203.003906 30.378906 198.441406 25.214844 192.15625 21.847656 C 186.246094 18.707031 180.257812 15.710938 173.75 13.992188 C 173.007812 13.78125 172.347656 13.417969 171.769531 12.90625 C 171.195312 12.394531 170.757812 11.785156 170.457031 11.074219 C 169.457031 9.242188 168.359375 7.472656 167.164062 5.761719 C 177.820312 10.820312 188.519531 14.261719 199.144531 18.003906 Z M 153.773438 46.660156 C 156.242188 43.515625 156.242188 39.25 157.664062 35.585938 C 159.832031 30.046875 158.636719 24.136719 159.535156 18.449219 C 160.132812 14.636719 162.078125 11.492188 164.023438 8.273438 C 164.621094 7.226562 164.996094 7.976562 165.519531 8.574219 C 167.089844 10.445312 167.539062 13.0625 169.710938 14.710938 C 170.234375 15.082031 170.085938 15.832031 171.355469 15.980469 C 172.476562 16.132812 173.152344 18.300781 173.375 19.871094 C 173.527344 21.070312 173.824219 21.96875 175.171875 22.117188 C 175.617188 22.167969 175.941406 22.394531 176.144531 22.789062 C 178.464844 26.308594 181.230469 29.597656 181.15625 34.3125 C 180.957031 36.976562 180.34375 39.542969 179.320312 42.011719 C 178.296875 44.480469 176.914062 46.726562 175.171875 48.753906 C 172.703125 51.671875 164.695312 58.105469 163.5 56.308594 C 161.253906 52.867188 158.039062 50.625 154.519531 48.828125 C 153.203125 48.304688 152.53125 48.15625 153.773438 46.660156 Z M 118.980469 55.335938 C 115.914062 56.085938 113.894531 53.390625 111.125 52.945312 C 114.117188 52.570312 116.617188 53.917969 119.011719 55.335938 Z M 100.351562 57.730469 C 101.25 57.207031 101.996094 56.609375 103.117188 56.835938 C 104.839844 57.207031 106.484375 56.386719 108.65625 56.308594 C 106.785156 55.1875 105.289062 55.710938 103.492188 56.308594 C 104.914062 54.140625 106.484375 53.765625 108.28125 54.140625 C 110.566406 54.519531 112.761719 55.191406 114.867188 56.160156 C 116.996094 57.203125 119.242188 57.601562 121.601562 57.359375 C 128.78125 57.132812 135.964844 56.609375 142.699219 53.46875 C 143.050781 53.257812 143.433594 53.140625 143.839844 53.113281 C 144.25 53.085938 144.644531 53.15625 145.019531 53.316406 C 146.066406 53.839844 147.039062 54.589844 147.1875 52.496094 C 147.1875 51.894531 147.863281 51.820312 148.3125 51.820312 C 153.546875 51.972656 158.335938 53.390625 162.003906 57.65625 C 162.75 58.480469 162.75 58.628906 161.628906 59.601562 C 159.683594 61.398438 157.289062 62.59375 155.570312 64.691406 C 152.949219 67.832031 149.359375 69.480469 146.367188 72.023438 C 145.617188 72.621094 145.019531 72.546875 144.945312 71.425781 C 144.871094 70.300781 144.421875 69.253906 143.222656 69.105469 C 142.027344 68.957031 141.351562 69.777344 140.902344 70.824219 C 140.453125 71.875 139.109375 72.320312 139.632812 73.820312 C 133.796875 79.503906 126.539062 80.105469 119.128906 79.65625 C 112.398438 79.28125 105.664062 77.785156 98.855469 78.007812 C 98.554688 76.511719 100.277344 76.511719 100.199219 75.238281 C 99.078125 75.164062 98.554688 76.289062 97.65625 76.660156 C 96.757812 77.035156 96.160156 77.484375 95.636719 76.0625 C 94.09375 71.949219 95.292969 60.5 100.378906 57.730469 Z M 139.558594 73.847656 C 140.679688 73.101562 141.128906 71.605469 142.550781 71.230469 C 142.847656 71.15625 142.398438 70.03125 143.222656 70.40625 C 143.746094 70.632812 143.597656 71.230469 143.597656 71.753906 C 143.371094 74.148438 141.503906 74.972656 139.707031 75.867188 C 139.210938 75.238281 139.660156 74.492188 139.558594 73.847656 Z M 72.292969 94.425781 C 71.542969 90.683594 73.9375 87.167969 75.808594 83.875 C 77.605469 80.808594 80.296875 78.863281 83.214844 77.289062 C 84.863281 76.390625 86.808594 76.839844 88.605469 77.363281 C 87.554688 77.664062 86.582031 77.890625 85.386719 78.1875 C 85.761719 78.488281 85.910156 78.710938 85.984375 78.636719 C 91.148438 77.289062 96.011719 79.757812 101.097656 79.984375 C 108.957031 80.359375 116.660156 81.40625 124.441406 82.226562 C 128.257812 82.601562 131.625 80.582031 135.292969 79.757812 C 135.964844 79.609375 136.863281 79.011719 137.3125 79.234375 C 139.78125 80.808594 140.828125 78.863281 142.476562 77.441406 C 145.167969 75.195312 148.160156 73.398438 151.230469 71.304688 C 151.453125 74.074219 150.179688 75.570312 148.011719 76.542969 C 143.84375 78.445312 139.902344 80.742188 136.191406 83.425781 C 131.550781 86.566406 129.753906 91.355469 129.679688 96.96875 C 129.679688 99.0625 129.457031 101.082031 129.605469 103.179688 C 129.753906 106.769531 127.960938 108.941406 125.265625 110.660156 C 121.375 113.128906 117.558594 115.898438 113.21875 117.46875 C 106.636719 119.789062 99.902344 120.011719 93.019531 119.9375 C 89.128906 119.9375 85.238281 119.789062 81.421875 120.3125 C 79.699219 120.535156 78.726562 119.714844 77.753906 117.992188 C 73.59375 110.554688 73.894531 102.28125 72.324219 94.394531 Z M 132 101.382812 C 131.175781 99.511719 131.851562 98.164062 131.925781 96.742188 C 132.457031 98.269531 132.492188 99.804688 132.03125 101.351562 Z M 50.070312 148.59375 C 50.070312 144.554688 50.445312 140.140625 52.839844 136.472656 C 53.136719 135.949219 53.289062 135.203125 54.035156 134.976562 C 54.714844 133.949219 55.511719 133.027344 56.429688 132.210938 C 56.804688 131.234375 57.253906 130.113281 58.449219 129.964844 C 58.605469 129.953125 58.757812 129.976562 58.898438 130.039062 L 59.347656 129.589844 C 60.277344 128.6875 61.347656 128.011719 62.566406 127.570312 C 63.164062 127.34375 63.6875 127.121094 64.285156 126.898438 C 64.449219 126.800781 64.625 126.75 64.8125 126.746094 C 65.632812 126.449219 66.53125 126.074219 67.355469 125.773438 C 67.578125 125.699219 67.804688 125.699219 68.027344 125.773438 C 69.191406 125.269531 70.289062 124.644531 71.320312 123.902344 C 72.816406 122.855469 74.238281 121.957031 76.109375 122.78125 C 76.496094 122.957031 76.871094 122.933594 77.230469 122.707031 C 79.324219 120.984375 81.796875 121.660156 84.113281 121.585938 C 91.894531 121.433594 99.675781 121.957031 107.308594 120.535156 C 114.34375 119.265625 121.152344 117.320312 127.0625 112.679688 C 130.652344 109.835938 134.917969 99.4375 132.671875 94.273438 C 131.851562 92.328125 132.449219 90.832031 133.421875 89.1875 C 135.742188 85.371094 139.558594 83.574219 143.074219 81.332031 C 145.0625 80.15625 147.109375 79.082031 149.207031 78.113281 C 149.882812 77.738281 150.78125 77.214844 150.707031 78.5625 C 150.332031 84.699219 154.894531 87.316406 158.710938 90.160156 C 162.644531 93.105469 165.8125 96.722656 168.214844 101.007812 C 171.28125 106.46875 169.558594 111.933594 167.390625 117.171875 C 164.472656 124.128906 158.785156 127.945312 152.277344 130.636719 C 147.863281 132.4375 143.347656 133.933594 138.734375 135.128906 C 131.101562 137.074219 123.621094 139.390625 116.738281 143.507812 C 112.921875 145.75 109.777344 148.894531 106.410156 151.8125 C 103.941406 153.980469 102.519531 156.976562 101.546875 160.191406 C 101.25 161.164062 101.097656 162.363281 100.199219 162.660156 C 97.433594 163.707031 95.5625 165.953125 93.242188 167.597656 C 90.625 169.46875 87.554688 169.171875 84.339844 168.945312 C 83.246094 169.375 82.109375 169.589844 80.933594 169.589844 C 79.757812 169.589844 78.625 169.375 77.53125 168.945312 C 77.277344 168.886719 77.082031 168.746094 76.9375 168.53125 C 76.792969 168.316406 76.742188 168.078125 76.78125 167.824219 C 72.21875 166.550781 67.429688 167.152344 63.089844 165.28125 C 62.589844 165.292969 62.089844 165.265625 61.59375 165.207031 L 60.921875 164.980469 C 60.621094 165.730469 60.023438 165.804688 58.898438 165.054688 C 57.53125 164.164062 56.296875 163.113281 55.191406 161.910156 C 54.089844 160.703125 53.152344 159.382812 52.382812 157.941406 C 51.613281 156.5 51.035156 154.984375 50.648438 153.398438 C 50.261719 151.808594 50.082031 150.199219 50.101562 148.566406 Z M 256.054688 361.460938 C 256.726562 359.367188 258.074219 359.140625 260.167969 358.992188 C 259 360.683594 257.730469 361.058594 256.082031 361.429688 Z M 279.324219 292.851562 C 279.398438 290.15625 279.546875 287.386719 281.117188 284.992188 Z M 281.867188 281.476562 C 281.828125 279.394531 282.328125 277.449219 283.363281 275.640625 C 283.367188 277.703125 282.878906 279.636719 281.898438 281.449219 Z M 286.730469 255.140625 C 287.476562 251.324219 288.300781 247.507812 289.125 243.617188 C 289.527344 246.132812 288.40625 252.34375 286.761719 255.109375 Z M 291.96875 226.109375 C 290.84375 230.824219 289.949219 235.613281 288.449219 240.175781 C 286.503906 246.160156 285.683594 252.519531 284.1875 258.65625 C 282.167969 267.113281 281.195312 275.789062 279.097656 284.246094 C 278.351562 287.386719 276.703125 290.230469 276.03125 293.222656 C 275.433594 295.992188 274.832031 298.910156 274.085938 301.679688 C 274.0625 302.019531 274.1875 302.296875 274.460938 302.503906 C 275.058594 302.800781 275.28125 302.277344 275.507812 301.902344 C 276.855469 299.734375 277.601562 297.339844 278.574219 294.945312 C 278.125 300.183594 275.65625 304.894531 274.757812 310.058594 C 273.039062 308.039062 276.105469 306.019531 274.832031 304 C 273.1875 306.542969 269.296875 321.582031 270.121094 323.824219 C 271.09375 320.460938 272.515625 317.765625 273.113281 314.472656 C 273.710938 316.644531 268.625 341.257812 267.277344 343.28125 C 266.976562 340.363281 268.699219 337.816406 268.625 334.972656 C 268.625 334.449219 268.625 333.925781 268.101562 333.777344 C 267.425781 333.554688 267.277344 334.152344 267.203125 334.675781 C 266.679688 340.210938 263.761719 345.300781 263.910156 350.910156 C 263.984375 352.855469 263.761719 354.203125 262.414062 355.402344 C 262.15625 355.710938 261.84375 355.945312 261.472656 356.101562 C 261.105469 356.261719 260.71875 356.328125 260.316406 356.296875 C 260.167969 356.296875 259.945312 356.148438 259.871094 356.222656 C 257.550781 358.84375 253.136719 357.046875 251.039062 360.710938 C 250.441406 361.761719 248.273438 361.609375 246.777344 361.3125 C 245.195312 361.019531 243.621094 361.070312 242.0625 361.460938 C 240.839844 361.816406 239.597656 361.9375 238.332031 361.820312 C 237.066406 361.703125 235.863281 361.359375 234.730469 360.789062 C 233.308594 360.039062 231.289062 360.414062 229.566406 360.339844 C 225.453125 360.164062 221.386719 359.613281 217.371094 358.691406 C 219.988281 360.339844 222.90625 361.011719 226.425781 361.835938 C 224.554688 362.359375 223.207031 362.058594 222.011719 362.132812 C 213.554688 362.882812 205.101562 364.378906 196.570312 364.378906 C 193.128906 364.378906 189.910156 365.652344 186.46875 365.875 C 182.128906 366.175781 177.789062 366.175781 173.449219 366.101562 C 169.859375 366.101562 166.34375 366.996094 162.828125 366.699219 C 156.09375 366.101562 149.433594 367.371094 142.773438 367.222656 C 135.589844 367.074219 128.410156 366.921875 121.226562 366.101562 C 111.5 364.976562 102.96875 361.085938 94.738281 356.074219 C 90.324219 353.378906 86.433594 350.011719 83.890625 345.300781 C 82.957031 343.351562 82.359375 341.308594 82.09375 339.164062 C 80 326.445312 78.878906 313.648438 77.082031 300.929688 C 75.734375 291.800781 74.164062 282.75 73.191406 273.546875 C 72.441406 266.8125 70.496094 260.226562 69.148438 253.570312 C 67.578125 245.710938 66.308594 237.855469 64.210938 230.148438 C 63.390625 227.308594 63.539062 224.164062 61.519531 221.621094 C 60.695312 220.574219 60.84375 219.152344 62.191406 218.179688 C 63.90625 216.996094 65.777344 216.179688 67.808594 215.726562 C 69.84375 215.273438 71.886719 215.21875 73.9375 215.558594 C 75.582031 215.765625 76.980469 216.464844 78.128906 217.65625 C 79.59375 219.042969 81.238281 220.167969 83.066406 221.023438 C 83.90625 221.5 84.800781 221.824219 85.75 221.988281 C 86.703125 222.15625 87.652344 222.160156 88.605469 221.996094 C 89.578125 221.769531 91.222656 221.546875 90.550781 223.191406 C 90.898438 223.152344 91.246094 223.152344 91.597656 223.191406 C 91.597656 220.796875 94.066406 219.75 95.863281 218.402344 C 96.839844 217.675781 97.9375 217.25 99.152344 217.132812 C 100.277344 216.980469 101.472656 216.832031 102.296875 216.082031 C 104.691406 214.0625 107.457031 214.363281 110.226562 214.4375 C 113.59375 214.4375 114.941406 217.503906 116.8125 219.523438 C 118.90625 221.695312 120.851562 223.941406 123.246094 225.734375 C 126.164062 227.980469 129.382812 229.328125 133.195312 229.027344 C 134.328125 228.964844 135.328125 228.566406 136.191406 227.832031 C 139.558594 224.914062 143 222.21875 146.367188 219.375 C 146.996094 218.808594 147.667969 218.300781 148.382812 217.84375 C 149.097656 217.386719 149.84375 216.988281 150.621094 216.652344 C 151.398438 216.316406 152.199219 216.042969 153.019531 215.835938 C 153.839844 215.625 154.675781 215.484375 155.519531 215.410156 C 156.363281 215.339844 157.207031 215.332031 158.054688 215.394531 C 158.898438 215.457031 159.734375 215.585938 160.558594 215.785156 C 161.382812 215.980469 162.183594 216.242188 162.96875 216.570312 C 163.75 216.894531 164.5 217.28125 165.21875 217.730469 C 166.207031 218.304688 166.953125 219.105469 167.464844 220.125 C 167.464844 220.199219 167.539062 220.199219 167.539062 220.273438 C 167.988281 220.421875 168.363281 220.574219 168.738281 220.722656 C 168.566406 220.390625 168.441406 220.039062 168.363281 219.675781 C 171.730469 221.578125 175.324219 222.851562 179.136719 223.492188 C 178.773438 223.839844 178.347656 224.089844 177.867188 224.238281 C 178.808594 224.390625 179.753906 224.464844 180.707031 224.464844 L 180.785156 224.464844 C 182.964844 223.519531 184.664062 222.023438 185.871094 219.972656 C 186.9375 218.527344 188.308594 217.480469 189.988281 216.832031 C 191.183594 216.234375 192.679688 216.007812 192.304688 213.988281 C 192.230469 213.765625 192.605469 213.390625 192.828125 213.242188 C 196.644531 211.296875 200.535156 210.324219 204.726562 212.042969 C 208.691406 213.6875 211.683594 216.382812 214.304688 219.898438 C 217.222656 223.789062 221.261719 225.660156 226.273438 224.238281 C 229.769531 223.222656 232.9375 221.578125 235.777344 219.300781 C 240.566406 215.558594 245.652344 211.96875 252.238281 213.464844 C 255.679688 214.214844 258.296875 216.382812 260.765625 218.628906 C 264.808594 222.292969 269.894531 222.21875 273.636719 218.027344 C 274.617188 216.945312 275.515625 215.800781 276.332031 214.585938 C 277.75 212.417969 279.847656 211.667969 282.167969 211.144531 C 282.464844 211.070312 283.0625 210.996094 283.0625 211.144531 C 284.261719 214.289062 289.050781 213.242188 289.421875 217.503906 C 289.574219 218.851562 290.621094 220.347656 291.816406 221.621094 C 292.671875 222.414062 292.296875 224.65625 291.996094 226.078125 Z M 309.175781 199.324219 C 308.652344 200.519531 309.101562 202.167969 308.503906 203.589844 C 308.277344 204.113281 308.128906 204.859375 307.378906 204.335938 C 305.433594 202.988281 305.660156 204.410156 305.734375 205.683594 C 306.035156 210.621094 303.488281 214.136719 300.199219 217.132812 C 297.953125 219.152344 296.832031 218.703125 296.007812 215.859375 C 295.707031 214.960938 295.183594 213.988281 294.363281 213.914062 C 292.941406 213.839844 294.210938 215.710938 293.015625 216.234375 C 292.117188 214.738281 290.472656 213.613281 290.769531 211.445312 C 290.839844 211.207031 290.828125 210.976562 290.726562 210.75 C 290.628906 210.523438 290.46875 210.355469 290.246094 210.246094 C 285.457031 207.628906 278.425781 209.125 274.683594 213.464844 C 273.1875 215.261719 271.914062 217.355469 269.746094 218.328125 C 267.875 219.152344 266.601562 220.125 264.132812 218.105469 C 262.113281 216.457031 259.792969 214.4375 257.101562 213.390625 C 256.308594 213.164062 255.597656 212.78125 254.972656 212.246094 C 254.34375 211.710938 253.855469 211.070312 253.507812 210.324219 C 253.585938 212.117188 252.761719 212.042969 251.714844 211.742188 C 247.148438 210.171875 243.183594 211.96875 239.367188 214.289062 C 236.875 215.753906 234.503906 217.402344 232.261719 219.226562 C 229.34375 221.695312 225.824219 222.59375 222.011719 222.59375 C 221.089844 222.476562 220.21875 222.207031 219.398438 221.78125 C 218.574219 221.355469 217.847656 220.804688 217.222656 220.125 C 214.554688 216.652344 211.414062 213.683594 207.792969 211.21875 C 203.082031 208.003906 198.292969 208.75 193.429688 210.398438 C 189.386719 211.742188 187.070312 215.410156 184.152344 218.253906 C 180.785156 221.546875 179.210938 222.070312 174.871094 220.421875 C 171.503906 219.152344 168.4375 217.207031 165.21875 215.632812 C 162.34375 214.1875 159.300781 213.339844 156.09375 213.089844 C 152.203125 212.792969 149.058594 215.035156 145.917969 216.832031 C 141.578125 219.300781 138.585938 223.789062 134.09375 226.183594 C 133.496094 226.484375 132.972656 227.605469 132.972656 225.886719 C 132.59375 225.832031 132.21875 225.855469 131.851562 225.960938 C 127.734375 227.382812 124.816406 225.0625 122.050781 222.441406 C 119.867188 220.476562 117.949219 218.28125 116.289062 215.859375 C 113.519531 211.519531 107.535156 211.445312 103.566406 212.941406 C 99.222656 214.558594 95.054688 216.550781 91.074219 218.925781 C 88.15625 220.722656 84.9375 220.050781 82.09375 218.402344 C 80.332031 217.273438 78.636719 216.050781 77.007812 214.738281 C 75.992188 213.941406 74.859375 213.371094 73.613281 213.035156 C 72.367188 212.695312 71.101562 212.617188 69.824219 212.792969 C 67.730469 213.089844 65.484375 211.59375 63.390625 213.015625 C 62.941406 213.316406 62.191406 213.464844 61.96875 213.839844 C 60.320312 216.53125 57.925781 215.035156 55.980469 214.960938 C 55.335938 214.917969 54.8125 214.644531 54.410156 214.136719 L 54.335938 214.136719 C 53.503906 214.316406 52.757812 214.144531 52.089844 213.613281 C 52.089844 213.6875 52.164062 213.6875 52.164062 213.765625 C 49.398438 211.96875 46.929688 209.796875 45.65625 206.65625 C 44.664062 205.242188 43.816406 203.746094 43.113281 202.167969 C 42.820312 201.4375 42.59375 200.691406 42.4375 199.921875 C 42.378906 199.777344 42.351562 199.628906 42.363281 199.472656 C 42.289062 198.277344 42.066406 197.152344 41.914062 195.957031 C 41.625 195.761719 41.472656 195.484375 41.464844 195.132812 L 41.464844 193.785156 C 41.378906 193.492188 41.328125 193.195312 41.316406 192.890625 C 40.644531 188.699219 42.289062 184.433594 43.710938 180.617188 C 45.027344 177.261719 47.121094 174.492188 49.996094 172.3125 C 52.914062 170.070312 56.207031 169.097656 59.796875 168.648438 C 62.417969 168.347656 65.410156 168.273438 67.953125 169.246094 C 71.769531 168.421875 75.585938 169.917969 79.402344 170.515625 C 85.6875 171.566406 91.820312 172.3125 97.28125 167.675781 C 98.554688 166.550781 99.527344 167.152344 99.304688 168.796875 C 98.855469 171.640625 100.277344 173.882812 100.875 176.429688 C 101.398438 178.523438 102.96875 179.121094 104.914062 179.046875 C 108.957031 178.824219 112.695312 177.476562 116.511719 176.429688 C 122.199219 174.933594 127.808594 173.210938 133.796875 174.183594 C 137.3125 174.78125 140.605469 175.753906 143.597656 178 C 146.816406 180.394531 150.628906 180.769531 154.519531 180.019531 L 168.0625 177.324219 C 171.503906 176.652344 174.574219 174.855469 178.015625 174.257812 C 180.410156 173.808594 181.53125 171.265625 183.027344 169.542969 C 187.441406 164.457031 193.128906 162.4375 199.339844 162.0625 C 205.027344 161.6875 210.710938 161.539062 216.398438 162.8125 C 217.96875 163.183594 218.867188 163.707031 218.792969 165.429688 C 218.644531 169.320312 221.113281 171.789062 223.355469 174.332031 C 224.628906 175.753906 226.648438 175.378906 228.371094 175.230469 C 236.082031 174.472656 243.691406 175.070312 251.191406 177.027344 C 256.203125 178.375 261.292969 177.773438 266.304688 177.625 C 271.285156 177.523438 276.195312 176.898438 281.042969 175.753906 C 281.941406 175.53125 283.0625 175.53125 283.738281 174.933594 C 288.003906 171.414062 293.988281 171.339844 297.804688 167.074219 C 299.152344 165.578125 299.226562 167.972656 300.046875 167.972656 C 302.367188 167.898438 303.265625 170.144531 304.835938 171.117188 C 308.054688 173.0625 308.726562 176.578125 309.101562 180.019531 C 309.554688 184.332031 309.179688 188.574219 307.980469 192.738281 C 310 189.523438 309.550781 185.855469 309.925781 182.339844 C 310.703125 188.21875 311.527344 193.832031 309.207031 199.292969 Z M 309.175781 199.324219 " fill-opacity="1" fill-rule="nonzero"/></g><path fill="#e1afd1" d="M 85.789062 163.976562 C 85.417969 163.230469 84.96875 162.53125 84.445312 161.882812 C 84.167969 161.957031 83.921875 161.90625 83.695312 161.734375 C 83.472656 161.96875 83.199219 162.09375 82.871094 162.109375 C 81.976562 162.183594 81.152344 162.257812 80.253906 162.40625 L 79.953125 162.40625 C 79.828125 162.425781 79.703125 162.449219 79.582031 162.480469 C 79.582031 162.554688 79.503906 162.554688 79.503906 162.632812 C 79.503906 162.707031 79.429688 162.855469 79.355469 162.929688 C 79.503906 162.632812 79.355469 162.929688 79.355469 163.003906 C 79.28125 163.230469 79.207031 163.378906 79.132812 163.605469 C 78.972656 163.96875 78.847656 164.339844 78.757812 164.726562 C 78.609375 165.25 78.382812 165.699219 78.234375 166.222656 C 78.246094 166.480469 78.296875 166.730469 78.382812 166.972656 C 79.417969 167.371094 80.492188 167.546875 81.601562 167.496094 C 82.519531 167.4375 83.367188 167.164062 84.144531 166.671875 C 84.53125 166.414062 84.878906 166.117188 85.191406 165.773438 C 85.507812 165.429688 85.78125 165.054688 86.015625 164.652344 C 86.023438 164.59375 86.046875 164.542969 86.089844 164.5 C 86.035156 164.300781 85.933594 164.125 85.789062 163.976562 Z M 80.628906 167.121094 C 80.480469 167.109375 80.339844 167.066406 80.214844 166.992188 C 80.085938 166.914062 79.980469 166.8125 79.898438 166.6875 C 79.820312 166.5625 79.769531 166.429688 79.753906 166.28125 C 79.738281 166.132812 79.753906 165.988281 79.804688 165.847656 C 80.328125 164.425781 81.226562 163.230469 82.722656 162.929688 C 83.472656 162.78125 84.070312 163.304688 84.144531 164.277344 C 84.1875 165.398438 82.273438 167.046875 80.628906 167.121094 Z M 194.59375 122.480469 C 194.59375 126.132812 192.574219 128.671875 189.898438 128.746094 C 189.414062 128.804688 188.960938 128.71875 188.535156 128.488281 C 188.109375 128.253906 187.792969 127.917969 187.585938 127.480469 C 186.3125 124.71875 189.148438 119.496094 192.074219 119.421875 C 194.070312 119.371094 194.175781 121.238281 194.59375 122.480469 Z M 193.398438 123.007812 C 193.175781 122.257812 193.398438 121.066406 192.058594 120.917969 C 190.71875 120.769531 188.550781 123.972656 188.476562 125.917969 C 188.398438 127.03125 188.925781 127.554688 190.046875 127.480469 C 191.683594 127.503906 193.429688 125.339844 193.429688 123.027344 Z M 180.273438 139.863281 C 183.625 139.5625 185.339844 142.472656 184.300781 145.527344 C 183.476562 147.988281 180.347656 150.152344 178.703125 149.484375 C 177.289062 148.886719 176.839844 146.574219 177.738281 143.664062 C 178.039062 142.625 178.328125 141.578125 179.300781 141.054688 C 179.824219 140.753906 180.425781 140.679688 180.714844 141.351562 C 181.007812 142.027344 180.867188 142.175781 180.125 142.472656 C 178.105469 143.363281 178.105469 145.378906 178.253906 147.246094 C 178.328125 148.289062 179.300781 148.4375 180.125 148.136719 C 180.988281 147.863281 181.726562 147.390625 182.335938 146.722656 C 182.949219 146.054688 183.351562 145.28125 183.550781 144.398438 C 184 142.609375 182.886719 141.636719 181.839844 140.65625 C 181.300781 140.429688 180.78125 140.175781 180.273438 139.886719 Z M 189.449219 100.851562 C 189.449219 103.3125 187.875 105.550781 185.707031 105.925781 C 184.59375 106.148438 183.460938 105.925781 183.171875 104.429688 C 182.652344 102.042969 184.964844 98.234375 187.203125 97.859375 C 189.597656 97.515625 189.222656 99.535156 189.449219 100.875 Z M 187.953125 100.777344 C 187.953125 100.027344 187.953125 98.988281 187.0625 99.210938 C 185.339844 99.730469 184.972656 101.523438 184.675781 103.089844 C 184.597656 103.613281 184.597656 104.285156 185.339844 104.433594 C 186.386719 104.675781 187.875 102.511719 187.953125 100.785156 Z M 205.632812 68.777344 C 204.066406 69.75 205.257812 71.164062 204.957031 72.359375 C 204.921875 72.78125 204.753906 73.144531 204.460938 73.453125 C 204.171875 73.757812 203.8125 73.941406 203.394531 74 C 203.074219 74.070312 202.761719 74.050781 202.453125 73.941406 C 202.144531 73.835938 201.886719 73.652344 201.679688 73.398438 C 201.082031 72.585938 201.457031 71.902344 201.832031 71.15625 C 202.203125 70.40625 203.695312 69.660156 201.980469 68.691406 C 201.90625 68.617188 201.980469 68.25 202.054688 68.027344 C 202.273438 67.503906 202.871094 67.128906 203.171875 67.652344 C 203.769531 68.507812 205.109375 67.535156 205.632812 68.796875 Z M 192.285156 76.460938 C 192.683594 76.644531 192.992188 76.929688 193.210938 77.3125 C 193.429688 77.695312 193.515625 78.109375 193.472656 78.546875 C 193.277344 79.546875 192.910156 80.476562 192.367188 81.335938 C 191.828125 82.199219 191.152344 82.933594 190.339844 83.546875 C 189.898438 83.917969 189.074219 84.21875 188.625 83.546875 C 188.511719 83.394531 188.433594 83.230469 188.390625 83.046875 C 188.347656 82.863281 188.34375 82.675781 188.378906 82.492188 C 188.414062 82.308594 188.484375 82.136719 188.59375 81.984375 C 188.703125 81.828125 188.835938 81.703125 189 81.609375 C 190.710938 80.632812 191.992188 79.59375 191.386719 77.28125 C 191.3125 76.929688 191.757812 76.558594 192.285156 76.480469 Z M 203.902344 134.886719 C 204.71875 135.1875 205.242188 135.710938 205.09375 136.527344 C 205.003906 137.265625 204.785156 137.960938 204.425781 138.613281 C 203.828125 139.886719 203.003906 140.925781 201.433594 140.925781 C 201.308594 140.941406 201.1875 140.933594 201.066406 140.902344 C 200.945312 140.871094 200.835938 140.816406 200.738281 140.738281 C 200.640625 140.660156 200.558594 140.570312 200.5 140.460938 C 200.4375 140.351562 200.402344 140.234375 200.386719 140.109375 C 200.339844 139.445312 200.464844 138.808594 200.757812 138.210938 C 201.054688 137.609375 201.476562 137.125 202.03125 136.75 C 202.722656 136.226562 202.871094 135.039062 203.902344 134.886719 Z M 201.53125 139.691406 C 203.09375 139.09375 203.84375 138.128906 204.292969 136.332031 C 202.722656 137.050781 201.660156 137.796875 201.53125 139.691406 Z M 169.679688 154.953125 C 168.78125 155.996094 167.816406 156.667969 166.6875 156.070312 C 165.496094 155.320312 166.3125 154.207031 166.613281 152.785156 C 166.917969 155.320312 166.917969 155.320312 169.679688 154.953125 Z M 251.429688 127.652344 C 250.980469 127.203125 250.605469 126.753906 250.015625 126.15625 C 251.28125 125.265625 252.695312 124.890625 253.816406 123.769531 C 254.863281 122.804688 257.46875 125.117188 257.394531 126.828125 C 257.324219 128.992188 253.816406 133.464844 251.804688 133.914062 C 251.597656 134 251.382812 134.035156 251.160156 134.027344 C 250.9375 134.019531 250.726562 133.964844 250.527344 133.867188 C 250.324219 133.765625 250.15625 133.628906 250.015625 133.457031 C 249.875 133.285156 249.773438 133.089844 249.714844 132.875 C 249.5625 132.402344 249.484375 131.921875 249.484375 131.425781 C 249.488281 130.929688 249.5625 130.445312 249.71875 129.976562 C 249.871094 129.503906 250.09375 129.070312 250.386719 128.671875 C 250.679688 128.269531 251.027344 127.925781 251.429688 127.636719 C 251.503906 129.132812 249.566406 131.140625 251.207031 131.960938 C 252.542969 132.636719 254.265625 130.847656 255.082031 129.351562 C 255.679688 128.386719 256.875 126.890625 255.753906 125.847656 C 254.488281 124.652344 253.292969 125.925781 252.328125 126.890625 C 252.0625 127.183594 251.765625 127.4375 251.429688 127.652344 Z M 263.140625 135.777344 C 265.152344 133.175781 267.761719 132.574219 269.699219 134.066406 C 270.136719 134.445312 270.503906 134.882812 270.796875 135.382812 C 271.085938 135.882812 271.289062 136.414062 271.40625 136.984375 C 271.519531 137.550781 271.542969 138.121094 271.46875 138.695312 C 271.394531 139.269531 271.226562 139.816406 270.972656 140.335938 C 270 142.421875 265.078125 144.660156 262.914062 143.910156 C 262.449219 143.734375 262.074219 143.4375 261.789062 143.03125 C 261.5 142.621094 261.355469 142.164062 261.351562 141.667969 C 261.230469 141.054688 261.246094 140.449219 261.402344 139.847656 C 261.558594 139.246094 261.839844 138.707031 262.242188 138.230469 C 262.503906 138.097656 262.78125 138.074219 263.0625 138.15625 C 263.4375 138.382812 263.289062 138.90625 263.214844 139.28125 C 263.0625 140.328125 261.71875 141.523438 262.839844 142.414062 C 264.113281 143.453125 265.527344 142.488281 266.871094 141.964844 C 268.21875 141.441406 269.777344 140.84375 270.148438 139.128906 C 270.335938 138.445312 270.34375 137.757812 270.171875 137.066406 C 270 136.375 269.671875 135.773438 269.183594 135.253906 C 268.699219 134.804688 268.132812 134.527344 267.480469 134.417969 C 266.832031 134.308594 266.203125 134.390625 265.601562 134.65625 C 264.777344 134.960938 263.960938 135.410156 263.140625 135.777344 Z M 242.105469 153.90625 C 242.105469 156.367188 238.082031 160.09375 235.621094 159.796875 C 234.125 159.652344 233.449219 158.230469 234.199219 156.667969 C 235.027344 155.007812 235.972656 153.414062 237.035156 151.894531 C 237.632812 151.070312 238.296875 149.808594 239.496094 150.398438 C 240.691406 150.988281 242.183594 151.894531 242.105469 153.90625 Z M 240.835938 153.90625 C 240.894531 153.734375 240.917969 153.554688 240.910156 153.375 C 240.898438 153.191406 240.855469 153.019531 240.78125 152.851562 C 240.703125 152.6875 240.601562 152.539062 240.46875 152.414062 C 240.339844 152.285156 240.1875 152.1875 240.019531 152.117188 C 239.730469 151.949219 239.417969 151.886719 239.082031 151.929688 C 238.75 151.96875 238.464844 152.109375 238.222656 152.34375 C 236.714844 153.796875 235.71875 155.542969 235.230469 157.582031 C 235.082031 158.105469 235.007812 158.777344 235.980469 158.777344 C 237.632812 158.832031 240.761719 155.769531 240.835938 153.90625 Z M 260.019531 151.25 C 259.945312 154.371094 256.277344 157.632812 253.636719 157.117188 C 253.492188 157.109375 253.355469 157.085938 253.214844 157.046875 C 253.078125 157.007812 252.949219 156.953125 252.824219 156.882812 C 252.699219 156.8125 252.582031 156.726562 252.480469 156.628906 C 252.375 156.535156 252.28125 156.425781 252.203125 156.304688 C 252.125 156.1875 252.058594 156.058594 252.007812 155.925781 C 251.960938 155.792969 251.925781 155.652344 251.910156 155.511719 C 251.890625 155.371094 251.890625 155.226562 251.90625 155.085938 C 251.925781 154.941406 251.957031 154.804688 252.003906 154.671875 C 252.820312 151.925781 254.820312 149.992188 256.601562 147.9375 C 257.199219 147.269531 257.9375 147.644531 258.605469 148.011719 C 259.921875 148.730469 259.773438 150.167969 260.019531 151.25 Z M 254.527344 155.851562 C 256.308594 155.851562 259.195312 152.589844 258.980469 150.511719 C 258.828125 149.402344 258.015625 148.363281 257.199219 149.015625 C 255.566406 150.421875 253.785156 151.910156 253.335938 154.355469 C 253.164062 155.335938 253.242188 155.925781 254.503906 155.851562 Z M 86.761719 110.210938 C 87.511719 108.199219 88.550781 107.527344 90.113281 108.125 C 91.679688 108.722656 91.976562 110.136719 91.535156 111.558594 C 90.863281 113.804688 89.589844 115.660156 87.355469 116.554688 C 85.117188 117.453125 84.226562 116.773438 84.519531 113.273438 C 85.117188 115.285156 86.164062 116.40625 87.511719 115.359375 C 89.007812 114.164062 91.171875 112.898438 90.796875 110.660156 C 90.316406 108.632812 88.527344 109.015625 86.742188 110.195312 Z M 107.714844 107.824219 C 107.789062 107.300781 107.714844 106.484375 108.601562 106.859375 C 110.773438 107.675781 111.597656 111.558594 110.023438 113.347656 C 109.824219 113.65625 109.550781 113.871094 109.207031 113.996094 C 108.859375 114.121094 108.511719 114.128906 108.160156 114.019531 C 107.566406 113.828125 107.070312 113.488281 106.679688 113 C 106.285156 112.511719 106.058594 111.957031 106 111.332031 C 105.851562 109.914062 106.066406 108.421875 107.714844 107.824219 C 107.488281 108.722656 107.113281 109.613281 106.964844 110.585938 C 106.90625 111 106.980469 111.386719 107.1875 111.75 C 107.398438 112.113281 107.699219 112.371094 108.085938 112.523438 C 108.347656 112.65625 108.621094 112.6875 108.90625 112.617188 C 109.191406 112.546875 109.414062 112.390625 109.582031 112.148438 C 109.859375 111.816406 110 111.4375 110.015625 111.007812 C 110.027344 110.574219 109.910156 110.1875 109.660156 109.835938 C 109.160156 109.011719 108.507812 108.335938 107.699219 107.808594 Z M 107.75 70.109375 C 107.527344 71.378906 105.953125 71.902344 106.328125 73.542969 C 107.453125 73.390625 108.050781 72.425781 108.941406 71.976562 C 109.832031 71.527344 110.8125 71.003906 111.410156 72.203125 C 111.523438 72.445312 111.585938 72.699219 111.601562 72.96875 C 111.613281 73.234375 111.574219 73.496094 111.480469 73.746094 C 111.390625 74 111.253906 74.226562 111.074219 74.421875 C 110.890625 74.621094 110.679688 74.777344 110.4375 74.886719 C 109.164062 75.636719 107.601562 75.5625 106.328125 75.5625 C 104.832031 75.5625 104.980469 73.839844 105.355469 72.792969 C 105.515625 72.179688 105.804688 71.632812 106.226562 71.160156 C 106.648438 70.6875 107.15625 70.335938 107.75 70.109375 Z M 167.144531 52.148438 C 165.730469 52.074219 164.757812 51.632812 164.832031 49.839844 C 164.980469 47.226562 166.917969 44.25 168.574219 44.25 C 170.742188 44.25 172.605469 45.746094 172.679688 47.527344 C 172.664062 49.703125 169.679688 52.238281 167.144531 52.148438 Z M 167.292969 50.960938 C 169.230469 50.960938 171.542969 49.171875 171.320312 47.75 C 171.300781 47.46875 171.234375 47.195312 171.125 46.933594 C 171.015625 46.671875 170.867188 46.4375 170.675781 46.222656 C 170.488281 46.011719 170.269531 45.839844 170.019531 45.699219 C 169.773438 45.5625 169.511719 45.464844 169.230469 45.417969 C 168.042969 45.191406 165.953125 47.953125 165.804688 49.667969 C 165.746094 50.902344 166.621094 50.902344 167.292969 50.976562 Z M 167.292969 50.960938 " fill-opacity="1" fill-rule="nonzero"/><g clip-path="url(#dd047964c3)"><path fill="#febdc6" d="M 328.308594 188.910156 C 327.558594 181.726562 324.566406 175.066406 317.757812 170.203125 C 316.261719 169.15625 316.261719 168.183594 317.234375 166.835938 C 321.5 160.476562 323.59375 153.21875 324.640625 145.664062 C 325.390625 140.726562 324.714844 135.863281 321.5 132.121094 C 316.335938 126.210938 310.125 121.496094 304.8125 115.660156 C 300.398438 110.722656 296.507812 105.785156 295.535156 98.601562 C 294.5625 91.117188 290.074219 85.804688 283.789062 82.214844 C 277.652344 78.699219 271.96875 74.507812 267.476562 68.820312 C 263.4375 63.734375 260.820312 57.75 256.703125 52.734375 C 251.617188 46.523438 246.527344 40.6875 238.222656 39.640625 C 237.699219 39.566406 237.25 39.34375 237.175781 38.820312 C 236.953125 36.425781 235.15625 34.703125 234.40625 32.535156 C 233.839844 30.902344 232.953125 29.464844 231.75 28.222656 C 230.546875 26.980469 229.136719 26.046875 227.523438 25.425781 C 218.546875 21.757812 209.492188 18.167969 200.4375 14.652344 C 196.472656 13.082031 192.132812 12.40625 188.765625 9.488281 C 187.121094 7.945312 185.324219 6.597656 183.378906 5.449219 C 181.285156 4.324219 180.085938 4.925781 178.742188 6.796875 C 177.019531 9.191406 176.496094 12.03125 175.222656 14.578125 C 172.828125 19.441406 170.734375 24.304688 171.558594 30.066406 C 172.15625 34.253906 170.957031 38.445312 170.0625 42.558594 C 168.414062 50.492188 163.027344 54.832031 155.246094 54.832031 C 154.769531 54.816406 154.296875 54.84375 153.824219 54.90625 C 153.75 54.90625 153.675781 55.128906 153.527344 55.28125 C 154.144531 55.363281 154.769531 55.414062 155.394531 55.429688 C 155.390625 55.609375 155.414062 55.78125 155.472656 55.953125 C 150.082031 57.449219 142.527344 61.265625 136.988281 59.019531 C 135.121094 58.273438 133.398438 57.148438 131.527344 56.550781 C 127.863281 55.28125 123.894531 55.804688 120.082031 56.328125 C 118.511719 56.449219 117.015625 56.851562 115.589844 57.523438 C 112.222656 59.46875 110.128906 65.230469 109.082031 68.746094 C 108.484375 70.84375 109.082031 73.238281 108.484375 75.257812 C 107.359375 78.546875 108.035156 77.574219 104.519531 77.800781 C 97.933594 78.175781 92.921875 78.996094 89.480469 85.058594 C 88.804688 86.253906 83.117188 97.328125 84.390625 97.777344 C 86.5625 98.527344 85.738281 100.320312 85.960938 101.667969 C 86.933594 109.152344 87.90625 116.558594 91.273438 123.367188 C 91.871094 124.636719 91.347656 124.714844 90.527344 125.011719 C 87.609375 125.984375 84.617188 126.957031 81.699219 127.855469 C 77.882812 128.976562 75.039062 132.046875 71.523438 133.691406 C 70.09375 134.347656 68.972656 135.34375 68.15625 136.683594 C 66.191406 139.816406 64.617188 143.132812 63.441406 146.636719 C 62.617188 148.804688 61.871094 151.050781 62.320312 153.371094 C 62.480469 154.238281 62.40625 155.085938 62.09375 155.914062 C 62.09375 155.988281 62.167969 156.0625 62.167969 156.136719 C 62.242188 156.738281 62.242188 157.335938 62.320312 158.007812 L 62.320312 158.082031 C 62.328125 158.140625 62.351562 158.191406 62.394531 158.234375 C 62.917969 158.308594 62.765625 159.207031 62.992188 159.730469 C 63.367188 160.550781 63.738281 161.375 64.1875 162.5 C 64.398438 162.652344 64.550781 162.851562 64.636719 163.097656 L 64.863281 163.769531 C 65.304688 164.304688 65.628906 164.902344 65.835938 165.566406 C 66.445312 166.28125 66.96875 167.054688 67.40625 167.886719 C 68.078125 169.007812 69.425781 170.203125 69.277344 171.175781 C 69.050781 172.597656 67.105469 172.375 65.910156 173.046875 C 64.320312 173.917969 62.996094 175.089844 61.945312 176.5625 C 61.046875 177.835938 60 178.957031 59.101562 180.230469 C 55.511719 185.765625 52.964844 191.601562 54.386719 198.488281 C 55.136719 202.003906 54.6875 205.667969 57.304688 208.886719 C 58.652344 210.535156 59.550781 213.078125 60.898438 215.097656 C 62.617188 217.640625 64.636719 220.109375 67.855469 220.707031 C 71.371094 221.382812 73.167969 223.851562 74.515625 227.144531 C 79.226562 239.039062 80.574219 251.757812 83.042969 264.179688 C 85.363281 275.925781 86.785156 287.972656 89.03125 299.792969 C 91.722656 314.011719 92.695312 328.375 94.941406 342.667969 C 96.363281 351.945312 100.851562 358.003906 108.035156 362.121094 C 113.945312 365.5625 120.378906 367.957031 126.964844 370.125 C 134.671875 372.671875 142.675781 373.042969 150.609375 374.09375 C 153.75 374.542969 157.042969 374.988281 160.035156 374.464844 C 170.210938 372.671875 180.386719 373.644531 190.5625 372.746094 C 194.601562 372.371094 198.71875 373.492188 202.609375 372.894531 C 210.238281 371.699219 217.945312 371.175781 225.578125 370.425781 C 228.871094 370.125 232.164062 369.453125 235.15625 371.773438 C 235.570312 372.066406 236.03125 372.242188 236.539062 372.296875 C 237.042969 372.347656 237.53125 372.273438 238 372.070312 C 237.625 371.398438 236.578125 371.921875 236.652344 371.175781 C 236.726562 370.425781 237.550781 370.574219 238.222656 370.5 C 243.910156 370.125 249.671875 370.050781 255.355469 369.378906 C 259.546875 368.855469 263.664062 368.40625 267.703125 370.050781 C 268.242188 370.269531 268.792969 370.296875 269.347656 370.125 C 276.007812 368.628906 279.597656 363.394531 282.964844 357.855469 C 283.039062 357.714844 283.089844 357.566406 283.117188 357.40625 C 282.070312 355.011719 283.265625 353.066406 283.9375 350.898438 C 285.285156 346.558594 287.679688 342.519531 287.15625 337.578125 C 287.042969 336.222656 287.265625 334.925781 287.828125 333.6875 C 288.695312 331.679688 289.367188 329.609375 289.851562 327.480469 C 290.523438 323.8125 291.269531 320.144531 292.167969 316.628906 C 293.742188 310.867188 295.3125 305.105469 296.660156 299.269531 C 298.230469 292.613281 299.949219 285.878906 301.671875 279.292969 C 303.691406 271.8125 303.390625 263.878906 305.636719 256.398438 C 306.082031 254.90625 306.378906 253.382812 306.535156 251.835938 C 307.359375 244.203125 309.304688 236.796875 310.875 229.3125 C 311.097656 228.117188 311.472656 227.144531 312.894531 226.917969 C 317.609375 225.945312 320.675781 222.953125 322.621094 218.390625 C 326.0625 209.304688 329.28125 198.636719 328.308594 188.910156 Z M 238.222656 47.394531 C 238.222656 46.496094 237.925781 45.746094 237.925781 45 C 237.925781 42.980469 239.644531 41.332031 240.917969 42.378906 C 244.132812 45 248.472656 45.746094 251.09375 49.414062 C 253.785156 53.230469 255.882812 57.417969 258.5 61.234375 C 260.625 64.578125 263.070312 67.671875 265.832031 70.511719 C 268.976562 73.65625 271.96875 76.949219 275.558594 79.492188 C 278.402344 81.511719 281.621094 83.007812 284.460938 85.101562 C 286.148438 86.339844 287.585938 87.816406 288.78125 89.535156 C 289.972656 91.253906 290.851562 93.117188 291.421875 95.128906 C 292.46875 98.644531 293.441406 102.238281 294.488281 105.828125 C 295.085938 107.847656 296.433594 109.34375 297.632812 110.992188 C 300.101562 114.433594 303.316406 117.125 306.308594 120.042969 C 307.957031 121.617188 309.078125 123.636719 310.574219 125.355469 C 312.519531 127.675781 315.066406 129.171875 317.308594 131.117188 C 321.5 134.710938 322.546875 139.648438 322.320312 144.660156 C 322.167969 148.746094 321.410156 152.714844 320.042969 156.570312 C 318.675781 160.421875 316.769531 163.984375 314.316406 167.257812 C 311.546875 170.921875 308.105469 174.066406 303.242188 174.8125 C 300.472656 175.261719 298.15625 177.058594 295.535156 177.957031 C 291.871094 179.226562 288.203125 179.902344 286.109375 179.828125 C 279.898438 179.527344 275.484375 180.722656 271.070312 179.75 C 268.078125 179.078125 265.082031 178.253906 262.089844 177.507812 C 257.300781 176.386719 252.589844 175.9375 247.800781 177.582031 C 246.195312 178.113281 244.550781 178.335938 242.863281 178.253906 C 240.019531 178.105469 238.222656 175.785156 238.671875 172.867188 L 238.671875 172.644531 C 238.671875 171.445312 237.550781 169.800781 238.820312 169.050781 C 239.644531 168.601562 241.140625 169.128906 242.261719 169.425781 C 250.121094 171.746094 257.976562 170.398438 265.757812 169.5 C 272.339844 168.679688 277.730469 165.160156 281.84375 160.296875 C 286.78125 154.539062 289.773438 147.578125 289.550781 139.574219 C 289.25 129.546875 284.761719 121.839844 277.054688 116.078125 C 274.660156 114.285156 272.941406 111.964844 270.921875 109.945312 C 265.382812 104.554688 258.949219 100.441406 253.488281 95.054688 C 249.371094 90.9375 245.929688 86.300781 244.433594 80.316406 C 243.601562 76.960938 242.582031 73.671875 241.367188 70.4375 C 240.542969 68.117188 238.523438 66.695312 236.726562 65.277344 C 236.433594 65.085938 236.175781 64.851562 235.960938 64.574219 C 235.75 64.292969 235.585938 63.988281 235.476562 63.65625 C 235.367188 63.320312 235.320312 62.980469 235.328125 62.628906 C 235.335938 62.277344 235.402344 61.9375 235.53125 61.609375 C 237.144531 57.007812 238.042969 52.269531 238.222656 47.394531 Z M 259.742188 179.183594 C 257.273438 179.035156 254.878906 178.808594 252.410156 178.660156 C 254.910156 177.433594 257.300781 178.433594 259.742188 179.183594 Z M 119.078125 177.011719 C 116.234375 173.871094 118.40625 170.804688 119.152344 167.660156 C 121.847656 155.6875 130.972656 150.675781 140.476562 146.261719 C 146.6875 143.34375 153.570312 142.519531 159.929688 139.976562 C 167.261719 137.058594 174.894531 134.664062 180.730469 128.902344 C 181.863281 127.808594 182.875 126.613281 183.761719 125.3125 C 184.648438 124.011719 185.398438 122.632812 186 121.179688 C 186.605469 119.722656 187.058594 118.222656 187.355469 116.675781 C 187.652344 115.128906 187.789062 113.570312 187.765625 111.992188 C 187.6875 104.960938 183.199219 100.84375 179.160156 96.355469 C 176.863281 93.855469 174.316406 91.636719 171.527344 89.695312 C 168.386719 87.378906 167.710938 84.011719 169.65625 80.492188 C 169.957031 79.894531 170.105469 79.445312 169.730469 78.921875 C 169.527344 78.5625 169.378906 78.179688 169.289062 77.773438 C 169.199219 77.367188 169.171875 76.960938 169.207031 76.546875 C 169.238281 76.132812 169.332031 75.734375 169.488281 75.347656 C 169.640625 74.960938 169.847656 74.605469 170.105469 74.285156 C 172.574219 71.140625 174.820312 67.476562 178.859375 66.351562 C 181.179688 65.753906 182.675781 64.109375 184.171875 62.535156 C 186.65625 59.789062 189.375 57.292969 192.328125 55.054688 C 193.75 54.007812 194.046875 52.363281 194.796875 51.015625 C 195.949219 48.835938 196.945312 46.59375 197.789062 44.28125 C 200.109375 37.996094 197.265625 32.832031 194.046875 27.894531 C 192.777344 25.875 191.054688 24.078125 190.53125 21.757812 C 201.15625 28.042969 210.957031 31.410156 218.664062 41.960938 C 218.289062 40.839844 217.84375 39.640625 217.46875 38.519531 C 220.296875 42.988281 221.992188 47.851562 222.554688 53.109375 C 223.125 52.488281 223.5 51.765625 223.679688 50.941406 C 224.203125 56.777344 225.324219 62.535156 225.847656 68.375 C 226.371094 74.058594 224.425781 77.875 220.386719 81.464844 C 213.277344 87.675781 210.210938 96.28125 209.761719 105.484375 C 209.65625 107.378906 209.78125 109.261719 210.132812 111.125 C 210.484375 112.992188 211.054688 114.789062 211.84375 116.515625 C 212.632812 118.242188 213.617188 119.847656 214.796875 121.335938 C 215.972656 122.824219 217.3125 124.148438 218.816406 125.3125 C 225.773438 130.847656 228.09375 141.25 223.753906 149.253906 C 221.433594 153.519531 218.738281 157.261719 214.101562 158.90625 C 213.054688 159.28125 211.929688 159.429688 210.882812 159.730469 C 203.777344 162.050781 198.6875 166.835938 195.320312 173.722656 C 195.175781 174.109375 195.003906 174.484375 194.796875 174.84375 C 193.824219 176.339844 193.375 176.714844 192.550781 175.890625 C 192.410156 175.953125 192.257812 175.976562 192.101562 175.964844 C 191.898438 175.976562 191.699219 175.953125 191.503906 175.890625 C 191.128906 177.386719 189.933594 177.6875 188.511719 177.984375 C 183.289062 178.972656 178.152344 180.296875 173.097656 181.953125 C 171.109375 182.488281 169.089844 182.839844 167.039062 183 C 165.992188 183.121094 164.96875 183.015625 163.972656 182.671875 C 162.976562 182.332031 162.101562 181.792969 161.351562 181.054688 C 157.984375 177.835938 153.792969 177.011719 149.457031 176.714844 C 145.414062 176.414062 141.375 176.566406 137.335938 176.640625 C 134.640625 176.640625 132.320312 177.910156 129.851562 178.957031 C 126.785156 180.304688 123.792969 182.101562 120.351562 180.457031 C 119.378906 180.007812 118.105469 179.707031 118.929688 178.0625 C 119.078125 177.714844 119.125 177.355469 119.078125 176.984375 Z M 208.191406 162.871094 C 209.699219 162.167969 211.273438 161.644531 212.902344 161.300781 C 221.957031 159.132812 227.71875 149.03125 227.941406 139.976562 C 228.09375 132.121094 224.949219 126.058594 219.414062 120.972656 C 214.398438 116.410156 211.332031 110.796875 212.304688 103.613281 C 212.976562 98.675781 213.503906 93.664062 217.242188 89.847656 C 219.339844 87.675781 220.386719 84.535156 222.554688 82.289062 C 223.003906 81.839844 223.378906 80.941406 223.976562 81.167969 C 226.296875 82.214844 226.671875 80.34375 227.34375 78.921875 C 227.980469 77.507812 228.804688 76.210938 229.8125 75.03125 C 231.832031 72.710938 232.804688 69.644531 234.003906 66.578125 C 235.199219 67.625 234.902344 68.898438 235.800781 69.792969 C 236.324219 69.046875 235.722656 68 236.472656 67.324219 C 236.949219 67.535156 237.359375 67.835938 237.699219 68.226562 C 238.039062 68.621094 238.277344 69.070312 238.417969 69.570312 C 239.691406 72.9375 241.484375 76.078125 241.484375 79.894531 C 241.484375 81.542969 242.609375 82.964844 243.28125 84.386719 C 245.527344 89.023438 248.292969 93.289062 252.183594 96.582031 C 256.75 100.472656 261.386719 104.363281 266.175781 108.027344 C 271.414062 111.992188 274.40625 117.753906 278.148438 122.917969 C 279.417969 124.714844 280.691406 126.507812 283.234375 126.433594 C 284.207031 126.433594 284.582031 127.257812 284.882812 128.003906 C 286.902344 133.839844 288.847656 139.753906 287.277344 146.113281 C 286.828125 148.132812 286.378906 150.226562 284.882812 151.648438 C 281.515625 154.792969 279.945312 159.429688 275.753906 161.898438 C 271.777344 164.367188 267.460938 165.867188 262.808594 166.390625 C 259.292969 166.6875 255.777344 167.363281 252.257812 167.886719 C 248.070312 168.484375 244.328125 166.761719 240.4375 165.640625 C 235.417969 164.203125 230.328125 163.902344 225.175781 164.742188 C 220.683594 165.417969 216.046875 164.890625 211.480469 165.191406 C 208.640625 165.417969 206.019531 165.941406 203.699219 167.734375 C 203.449219 168.046875 203.132812 168.257812 202.746094 168.367188 C 202.363281 168.476562 201.984375 168.464844 201.605469 168.335938 C 203.132812 165.761719 205.601562 164.113281 208.21875 162.84375 Z M 273.210938 165.417969 C 269.242188 168.484375 264.53125 168.558594 259.964844 168.859375 C 264.558594 168.527344 268.898438 167.03125 273.210938 165.386719 Z M 214.550781 22.359375 C 219.1875 24.003906 224.125 25.351562 228.242188 28.34375 C 233.253906 31.933594 235.949219 37.023438 234.902344 43.53125 C 234.675781 44.878906 235.800781 45.253906 235.949219 46.300781 C 236.253906 48.683594 236.175781 51.050781 235.722656 53.410156 C 234.453125 60.367188 232.582031 67.175781 228.015625 73.535156 C 227.792969 70.394531 227.417969 67.773438 227.417969 65.15625 C 227.4375 60.945312 226.960938 56.789062 225.988281 52.691406 C 225.011719 48.59375 223.570312 44.667969 221.65625 40.914062 C 218.441406 34.703125 213.875 29.539062 207.589844 26.175781 C 201.679688 23.03125 195.695312 20.039062 189.183594 18.316406 C 188.441406 18.105469 187.785156 17.746094 187.207031 17.234375 C 186.628906 16.722656 186.191406 16.109375 185.894531 15.398438 C 184.890625 13.570312 183.792969 11.800781 182.601562 10.085938 C 193.253906 15.144531 203.953125 18.585938 214.578125 22.328125 Z M 169.207031 50.984375 C 171.675781 47.84375 171.675781 43.578125 173.097656 39.910156 C 175.269531 34.375 174.070312 28.464844 174.96875 22.777344 C 175.566406 18.960938 177.511719 15.820312 179.457031 12.601562 C 180.058594 11.554688 180.429688 12.300781 180.953125 12.902344 C 182.527344 14.769531 182.976562 17.390625 185.144531 19.035156 C 185.667969 19.410156 185.519531 20.160156 186.792969 20.308594 C 187.914062 20.457031 188.585938 22.628906 188.8125 24.199219 C 188.960938 25.394531 189.261719 26.292969 190.605469 26.441406 C 191.050781 26.496094 191.375 26.71875 191.578125 27.117188 C 193.898438 30.632812 196.667969 33.925781 196.59375 38.640625 C 196.390625 41.304688 195.78125 43.871094 194.757812 46.339844 C 193.734375 48.808594 192.351562 51.054688 190.605469 53.078125 C 188.136719 55.996094 180.132812 62.433594 178.933594 60.636719 C 176.691406 57.195312 173.472656 54.949219 169.957031 53.15625 C 168.640625 52.628906 167.964844 52.480469 169.207031 50.984375 Z M 134.417969 59.664062 C 131.347656 60.410156 129.328125 57.71875 126.558594 57.269531 C 129.554688 56.894531 132.050781 58.242188 134.445312 59.664062 Z M 115.785156 62.058594 C 116.683594 61.535156 117.433594 60.9375 118.554688 61.160156 C 120.273438 61.535156 121.921875 60.710938 124.089844 60.636719 C 122.21875 59.515625 120.722656 60.039062 118.929688 60.636719 C 120.351562 58.464844 121.921875 58.09375 123.71875 58.464844 C 126.003906 58.84375 128.195312 59.519531 130.300781 60.488281 C 132.429688 61.527344 134.675781 61.925781 137.035156 61.683594 C 144.21875 61.460938 151.402344 60.9375 158.132812 57.792969 C 158.488281 57.582031 158.867188 57.464844 159.277344 57.4375 C 159.683594 57.414062 160.078125 57.480469 160.453125 57.644531 C 161.5 58.167969 162.472656 58.914062 162.625 56.820312 C 162.625 56.222656 163.296875 56.148438 163.746094 56.148438 C 168.984375 56.296875 173.773438 57.71875 177.4375 61.984375 C 178.1875 62.804688 178.1875 62.957031 177.0625 63.929688 C 175.117188 65.722656 172.726562 66.921875 171.003906 69.015625 C 168.386719 72.160156 164.792969 73.804688 161.800781 76.347656 C 161.050781 76.949219 160.453125 76.871094 160.378906 75.75 C 160.304688 74.628906 159.855469 73.582031 158.660156 73.429688 C 157.460938 73.28125 156.789062 74.105469 156.339844 75.152344 C 155.890625 76.199219 154.542969 76.648438 155.066406 78.144531 C 149.230469 83.832031 141.972656 84.429688 134.566406 83.980469 C 127.832031 83.605469 121.097656 82.109375 114.289062 82.335938 C 113.988281 80.839844 115.710938 80.839844 115.636719 79.566406 C 114.515625 79.492188 113.988281 80.613281 113.09375 80.988281 C 112.195312 81.363281 111.597656 81.8125 111.070312 80.390625 C 109.53125 76.273438 110.726562 64.828125 115.816406 62.058594 Z M 154.992188 78.175781 C 156.113281 77.425781 156.5625 75.929688 157.984375 75.554688 C 158.285156 75.480469 157.835938 74.359375 158.660156 74.734375 C 159.183594 74.957031 159.03125 75.554688 159.03125 76.078125 C 158.808594 78.472656 156.9375 79.296875 155.140625 80.195312 C 154.648438 79.566406 155.097656 78.816406 154.992188 78.175781 Z M 87.726562 98.75 C 86.980469 95.007812 89.375 91.492188 91.246094 88.199219 C 93.039062 85.132812 95.734375 83.1875 98.652344 81.617188 C 100.296875 80.71875 102.242188 81.167969 104.039062 81.691406 C 102.992188 81.992188 102.019531 82.214844 100.820312 82.515625 C 101.195312 82.8125 101.34375 83.039062 101.421875 82.964844 C 106.582031 81.617188 111.445312 84.085938 116.535156 84.308594 C 124.390625 84.683594 132.097656 85.730469 139.878906 86.554688 C 143.695312 86.929688 147.0625 84.910156 150.726562 84.085938 C 151.402344 83.9375 152.296875 83.335938 152.746094 83.5625 C 155.214844 85.132812 156.265625 83.1875 157.910156 81.765625 C 160.605469 79.519531 163.597656 77.726562 166.664062 75.628906 C 166.886719 78.398438 165.617188 79.894531 163.445312 80.867188 C 159.28125 82.773438 155.339844 85.066406 151.625 87.75 C 146.984375 90.894531 145.191406 95.683594 145.117188 101.292969 C 145.117188 103.390625 144.890625 105.410156 145.039062 107.503906 C 145.191406 111.097656 143.394531 113.265625 140.703125 114.988281 C 136.808594 117.457031 132.996094 120.222656 128.65625 121.796875 C 122.070312 124.113281 115.335938 124.339844 108.453125 124.265625 C 104.5625 124.265625 100.671875 124.113281 96.855469 124.636719 C 95.136719 124.863281 94.164062 124.039062 93.191406 122.320312 C 89.03125 114.882812 89.328125 106.605469 87.757812 98.71875 Z M 147.433594 105.707031 C 146.613281 103.839844 147.285156 102.492188 147.359375 101.070312 C 147.894531 102.59375 147.925781 104.132812 147.464844 105.679688 Z M 65.507812 152.921875 C 65.507812 148.878906 65.878906 144.464844 68.273438 140.800781 C 68.574219 140.277344 68.722656 139.527344 69.472656 139.304688 C 70.148438 138.277344 70.949219 137.355469 71.867188 136.535156 C 72.238281 135.5625 72.6875 134.441406 73.886719 134.289062 C 74.042969 134.277344 74.191406 134.304688 74.335938 134.367188 L 74.785156 133.917969 C 75.710938 133.011719 76.785156 132.339844 78 131.894531 C 78.601562 131.671875 79.125 131.449219 79.722656 131.222656 C 79.882812 131.128906 80.058594 131.078125 80.246094 131.074219 C 81.070312 130.773438 81.964844 130.398438 82.789062 130.101562 C 83.015625 130.023438 83.238281 130.023438 83.464844 130.101562 C 84.628906 129.59375 85.722656 128.972656 86.753906 128.230469 C 88.25 127.183594 89.671875 126.285156 91.542969 127.109375 C 91.929688 127.285156 92.304688 127.261719 92.667969 127.03125 C 94.761719 125.3125 97.230469 125.984375 99.550781 125.910156 C 107.332031 125.761719 115.113281 126.285156 122.746094 124.863281 C 129.777344 123.589844 136.585938 121.644531 142.496094 117.007812 C 146.089844 114.164062 150.351562 103.761719 148.109375 98.601562 C 147.285156 96.65625 147.882812 95.160156 148.855469 93.511719 C 151.175781 89.695312 154.992188 87.902344 158.507812 85.65625 C 160.5 84.480469 162.542969 83.410156 164.644531 82.4375 C 165.316406 82.066406 166.214844 81.542969 166.140625 82.886719 C 165.765625 89.023438 170.332031 91.640625 174.144531 94.484375 C 178.078125 97.429688 181.246094 101.046875 183.648438 105.335938 C 186.714844 110.796875 184.996094 116.257812 182.824219 121.496094 C 179.90625 128.453125 174.222656 132.269531 167.710938 134.964844 C 163.296875 136.765625 158.785156 138.261719 154.167969 139.453125 C 146.539062 141.398438 139.054688 143.71875 132.171875 147.832031 C 128.355469 150.078125 125.214844 153.21875 121.847656 156.136719 C 119.378906 158.308594 117.957031 161.300781 116.984375 164.519531 C 116.683594 165.492188 116.535156 166.6875 115.636719 166.988281 C 112.867188 168.035156 110.996094 170.28125 108.679688 171.925781 C 106.058594 173.796875 102.992188 173.496094 99.773438 173.273438 C 98.679688 173.703125 97.546875 173.917969 96.371094 173.917969 C 95.195312 173.917969 94.058594 173.703125 92.964844 173.273438 C 92.714844 173.210938 92.515625 173.074219 92.371094 172.855469 C 92.226562 172.640625 92.175781 172.40625 92.21875 172.148438 C 87.652344 170.878906 82.863281 171.476562 78.523438 169.605469 C 78.023438 169.617188 77.523438 169.59375 77.027344 169.53125 L 76.355469 169.308594 C 76.054688 170.054688 75.457031 170.128906 74.335938 169.382812 C 72.964844 168.488281 71.730469 167.441406 70.625 166.234375 C 69.523438 165.03125 68.585938 163.707031 67.816406 162.265625 C 67.046875 160.824219 66.472656 159.308594 66.085938 157.722656 C 65.699219 156.136719 65.515625 154.523438 65.535156 152.890625 Z M 271.488281 365.789062 C 272.160156 363.691406 273.507812 363.46875 275.605469 363.316406 C 274.4375 365.007812 273.164062 365.382812 271.519531 365.757812 Z M 294.757812 297.175781 C 294.832031 294.484375 294.984375 291.714844 296.554688 289.320312 Z M 297.300781 285.804688 C 297.261719 283.71875 297.761719 281.773438 298.796875 279.96875 C 298.804688 282.027344 298.316406 283.964844 297.332031 285.773438 Z M 302.164062 259.464844 C 302.914062 255.652344 303.738281 251.835938 304.558594 247.945312 C 304.964844 250.457031 303.839844 256.667969 302.195312 259.4375 Z M 307.402344 230.4375 C 306.28125 235.148438 305.382812 239.9375 303.886719 244.503906 C 301.941406 250.488281 301.117188 256.847656 299.621094 262.984375 C 297.601562 271.4375 296.628906 280.117188 294.535156 288.570312 C 293.785156 291.714844 292.140625 294.558594 291.464844 297.550781 C 290.867188 300.320312 290.269531 303.238281 289.519531 306.003906 C 289.496094 306.347656 289.621094 306.621094 289.894531 306.828125 C 290.492188 307.128906 290.71875 306.605469 290.941406 306.230469 C 292.289062 304.058594 293.035156 301.664062 294.007812 299.269531 C 293.5625 304.507812 291.089844 309.222656 290.195312 314.386719 C 288.472656 312.363281 291.539062 310.34375 290.269531 308.324219 C 288.621094 310.867188 284.730469 325.90625 285.554688 328.152344 C 286.527344 324.785156 287.949219 322.089844 288.546875 318.800781 C 289.144531 320.96875 284.058594 345.585938 282.710938 347.605469 C 282.414062 344.6875 284.132812 342.144531 284.058594 339.300781 C 284.058594 338.777344 284.058594 338.253906 283.535156 338.101562 C 282.863281 337.878906 282.710938 338.476562 282.636719 339 C 282.113281 344.539062 279.195312 349.625 279.34375 355.238281 C 279.417969 357.183594 279.195312 358.53125 277.847656 359.726562 C 277.59375 360.035156 277.277344 360.269531 276.910156 360.429688 C 276.539062 360.585938 276.15625 360.652344 275.753906 360.625 C 275.605469 360.625 275.378906 360.476562 275.304688 360.550781 C 272.984375 363.167969 268.570312 361.371094 266.476562 365.039062 C 265.878906 366.085938 263.707031 365.9375 262.210938 365.636719 C 260.628906 365.347656 259.058594 365.398438 257.496094 365.789062 C 256.277344 366.144531 255.03125 366.261719 253.765625 366.144531 C 252.5 366.03125 251.300781 365.6875 250.164062 365.113281 C 248.742188 364.367188 246.722656 364.738281 245 364.664062 C 240.886719 364.488281 236.820312 363.941406 232.804688 363.019531 C 235.425781 364.664062 238.34375 365.339844 241.859375 366.160156 C 239.988281 366.683594 238.640625 366.386719 237.445312 366.460938 C 228.988281 367.207031 220.535156 368.707031 212.003906 368.707031 C 208.5625 368.707031 205.347656 369.976562 201.90625 370.203125 C 197.566406 370.5 193.226562 370.5 188.886719 370.425781 C 185.292969 370.425781 181.777344 371.324219 178.261719 371.023438 C 171.527344 370.425781 164.867188 371.699219 158.210938 371.546875 C 151.027344 371.398438 143.84375 371.25 136.660156 370.425781 C 126.933594 369.304688 118.40625 365.414062 110.175781 360.398438 C 105.757812 357.707031 101.867188 354.339844 99.324219 349.625 C 98.394531 347.679688 97.796875 345.632812 97.53125 343.492188 C 95.433594 330.769531 94.3125 317.976562 92.515625 305.257812 C 91.167969 296.128906 89.597656 287.074219 88.625 277.871094 C 87.878906 271.136719 85.933594 264.554688 84.585938 257.894531 C 83.015625 250.039062 81.742188 242.183594 79.648438 234.476562 C 78.824219 231.632812 78.972656 228.492188 76.953125 225.945312 C 76.128906 224.898438 76.28125 223.476562 77.628906 222.503906 C 79.339844 221.324219 81.214844 220.503906 83.246094 220.050781 C 85.277344 219.597656 87.320312 219.542969 89.375 219.886719 C 91.015625 220.089844 92.414062 220.789062 93.5625 221.980469 C 95.027344 223.371094 96.671875 224.492188 98.503906 225.347656 C 99.339844 225.828125 100.234375 226.148438 101.1875 226.316406 C 102.136719 226.484375 103.085938 226.484375 104.039062 226.320312 C 105.011719 226.097656 106.65625 225.871094 105.984375 227.519531 C 106.332031 227.480469 106.683594 227.480469 107.03125 227.519531 C 107.03125 225.125 109.5 224.074219 111.296875 222.730469 C 112.277344 222 113.375 221.578125 114.589844 221.457031 C 115.710938 221.308594 116.90625 221.15625 117.730469 220.410156 C 120.125 218.390625 122.894531 218.6875 125.664062 218.761719 C 129.027344 218.761719 130.375 221.832031 132.246094 223.851562 C 134.339844 226.019531 136.285156 228.265625 138.679688 230.0625 C 141.597656 232.304688 144.816406 233.652344 148.632812 233.355469 C 149.765625 233.292969 150.761719 232.894531 151.625 232.15625 C 154.992188 229.238281 158.433594 226.546875 161.800781 223.703125 C 162.433594 223.136719 163.105469 222.625 163.820312 222.167969 C 164.53125 221.710938 165.277344 221.316406 166.054688 220.976562 C 166.832031 220.640625 167.632812 220.367188 168.457031 220.160156 C 169.277344 219.953125 170.109375 219.8125 170.953125 219.738281 C 171.796875 219.664062 172.644531 219.660156 173.488281 219.722656 C 174.332031 219.785156 175.167969 219.914062 175.992188 220.109375 C 176.816406 220.308594 177.621094 220.570312 178.402344 220.894531 C 179.183594 221.222656 179.9375 221.609375 180.65625 222.054688 C 181.640625 222.632812 182.386719 223.429688 182.898438 224.449219 C 182.898438 224.523438 182.976562 224.523438 182.976562 224.601562 C 183.425781 224.75 183.796875 224.898438 184.171875 225.046875 C 184.003906 224.714844 183.878906 224.367188 183.796875 224 C 187.167969 225.902344 190.757812 227.175781 194.574219 227.816406 C 194.207031 228.167969 193.785156 228.417969 193.300781 228.566406 C 194.242188 228.71875 195.191406 228.792969 196.144531 228.789062 L 196.21875 228.789062 C 198.402344 227.84375 200.097656 226.347656 201.304688 224.300781 C 202.371094 222.851562 203.742188 221.804688 205.421875 221.15625 C 206.617188 220.558594 208.113281 220.335938 207.742188 218.316406 C 207.667969 218.089844 208.039062 217.714844 208.265625 217.566406 C 212.082031 215.621094 215.972656 214.648438 220.160156 216.371094 C 224.125 218.015625 227.121094 220.707031 229.738281 224.226562 C 232.65625 228.117188 236.695312 229.988281 241.710938 228.566406 C 245.203125 227.546875 248.371094 225.902344 251.210938 223.628906 C 256 219.886719 261.089844 216.292969 267.671875 217.789062 C 271.113281 218.539062 273.734375 220.707031 276.203125 222.953125 C 280.242188 226.621094 285.332031 226.546875 289.070312 222.355469 C 290.050781 221.273438 290.949219 220.125 291.765625 218.914062 C 293.1875 216.742188 295.28125 215.996094 297.601562 215.472656 C 297.902344 215.398438 298.5 215.320312 298.5 215.472656 C 299.695312 218.613281 304.484375 217.566406 304.859375 221.832031 C 305.007812 223.179688 306.054688 224.675781 307.253906 225.945312 C 308.105469 226.738281 307.730469 228.984375 307.433594 230.40625 Z M 324.613281 203.648438 C 324.085938 204.847656 324.535156 206.492188 323.9375 207.914062 C 323.714844 208.4375 323.5625 209.1875 322.816406 208.664062 C 320.871094 207.316406 321.09375 208.738281 321.167969 210.007812 C 321.46875 214.949219 318.925781 218.464844 315.632812 221.457031 C 313.386719 223.476562 312.265625 223.027344 311.441406 220.183594 C 311.144531 219.289062 310.621094 218.316406 309.796875 218.238281 C 308.375 218.164062 309.648438 220.035156 308.449219 220.558594 C 307.550781 219.0625 305.90625 217.941406 306.207031 215.769531 C 306.277344 215.535156 306.261719 215.300781 306.164062 215.074219 C 306.0625 214.851562 305.902344 214.683594 305.683594 214.574219 C 300.894531 211.953125 293.859375 213.453125 290.117188 217.789062 C 288.621094 219.585938 287.351562 221.679688 285.179688 222.652344 C 283.308594 223.476562 282.039062 224.449219 279.570312 222.429688 C 277.550781 220.785156 275.230469 218.761719 272.535156 217.714844 C 271.742188 217.488281 271.035156 217.109375 270.40625 216.574219 C 269.78125 216.039062 269.292969 215.394531 268.945312 214.648438 C 269.019531 216.445312 268.195312 216.371094 267.148438 216.070312 C 262.585938 214.5 258.621094 216.292969 254.804688 218.613281 C 252.308594 220.082031 249.941406 221.726562 247.695312 223.550781 C 244.777344 226.019531 241.261719 226.917969 237.445312 226.917969 C 236.527344 226.800781 235.65625 226.53125 234.832031 226.109375 C 234.007812 225.683594 233.285156 225.132812 232.65625 224.449219 C 229.988281 220.976562 226.847656 218.011719 223.230469 215.546875 C 218.515625 212.328125 213.726562 213.078125 208.863281 214.722656 C 204.824219 216.070312 202.503906 219.734375 199.585938 222.578125 C 196.21875 225.871094 194.648438 226.394531 190.308594 224.75 C 186.941406 223.476562 183.871094 221.53125 180.65625 219.960938 C 177.78125 218.511719 174.738281 217.664062 171.527344 217.417969 C 167.636719 217.117188 164.496094 219.363281 161.351562 221.15625 C 157.011719 223.628906 154.019531 228.117188 149.53125 230.511719 C 148.929688 230.808594 148.40625 231.933594 148.40625 230.210938 C 148.027344 230.160156 147.65625 230.183594 147.285156 230.285156 C 143.171875 231.707031 140.253906 229.386719 137.484375 226.769531 C 135.304688 224.800781 133.382812 222.609375 131.722656 220.183594 C 128.953125 215.84375 122.96875 215.769531 119.003906 217.265625 C 114.65625 218.882812 110.492188 220.878906 106.507812 223.253906 C 103.589844 225.046875 100.371094 224.375 97.53125 222.730469 C 95.765625 221.597656 94.070312 220.375 92.441406 219.0625 C 91.425781 218.265625 90.292969 217.699219 89.046875 217.359375 C 87.800781 217.023438 86.539062 216.941406 85.257812 217.117188 C 83.164062 217.417969 80.917969 215.921875 78.824219 217.34375 C 78.375 217.640625 77.628906 217.789062 77.402344 218.164062 C 75.757812 220.859375 73.363281 219.363281 71.417969 219.289062 C 70.769531 219.246094 70.246094 218.972656 69.84375 218.464844 L 69.769531 218.464844 C 68.941406 218.644531 68.191406 218.46875 67.527344 217.941406 C 67.527344 218.015625 67.601562 218.015625 67.601562 218.089844 C 64.832031 216.292969 62.363281 214.125 61.089844 210.980469 C 60.097656 209.566406 59.25 208.070312 58.546875 206.492188 C 58.253906 205.765625 58.03125 205.015625 57.875 204.25 C 57.8125 204.105469 57.789062 203.957031 57.800781 203.800781 C 57.722656 202.601562 57.5 201.480469 57.351562 200.28125 C 57.058594 200.085938 56.910156 199.8125 56.902344 199.460938 L 56.902344 198.113281 C 56.816406 197.820312 56.765625 197.519531 56.75 197.214844 C 56.078125 193.023438 57.722656 188.761719 59.144531 184.945312 C 60.460938 181.585938 62.558594 178.820312 65.429688 176.640625 C 68.347656 174.394531 71.640625 173.421875 75.234375 172.972656 C 77.851562 172.671875 80.84375 172.597656 83.386719 173.570312 C 87.203125 172.75 91.019531 174.246094 94.835938 174.84375 C 101.121094 175.890625 107.257812 176.640625 112.71875 172 C 113.988281 170.878906 114.960938 171.476562 114.738281 173.121094 C 114.289062 175.964844 115.710938 178.210938 116.308594 180.753906 C 116.832031 182.847656 118.40625 183.449219 120.351562 183.375 C 124.390625 183.148438 128.132812 181.800781 131.945312 180.753906 C 137.632812 179.257812 143.246094 177.539062 149.230469 178.511719 C 152.746094 179.109375 156.039062 180.082031 159.03125 182.324219 C 162.25 184.71875 166.066406 185.09375 169.957031 184.347656 L 183.5 181.652344 C 186.941406 180.980469 190.007812 179.183594 193.449219 178.585938 C 195.84375 178.136719 196.964844 175.589844 198.464844 173.871094 C 202.878906 168.78125 208.5625 166.761719 214.773438 166.390625 C 220.460938 166.015625 226.148438 165.863281 231.832031 167.136719 C 233.40625 167.511719 234.300781 168.035156 234.226562 169.753906 C 234.078125 173.644531 236.546875 176.117188 238.792969 178.660156 C 240.0625 180.082031 242.082031 179.707031 243.804688 179.558594 C 251.519531 178.796875 259.125 179.394531 266.625 181.351562 C 271.636719 182.699219 276.726562 182.101562 281.738281 181.953125 C 286.71875 181.847656 291.632812 181.226562 296.480469 180.082031 C 297.375 179.855469 298.5 179.855469 299.171875 179.257812 C 303.4375 175.742188 309.421875 175.667969 313.238281 171.402344 C 314.585938 169.90625 314.660156 172.300781 315.484375 172.300781 C 317.804688 172.226562 318.699219 174.46875 320.273438 175.441406 C 323.488281 177.386719 324.164062 180.902344 324.535156 184.347656 C 324.992188 188.660156 324.617188 192.898438 323.414062 197.066406 C 325.433594 193.847656 324.984375 190.183594 325.359375 186.664062 C 326.136719 192.546875 326.960938 198.15625 324.640625 203.621094 Z M 324.613281 203.648438 " fill-opacity="1" fill-rule="nonzero"/></g><path fill="#febdc6" d="M 101.226562 168.304688 C 100.855469 167.554688 100.40625 166.859375 99.878906 166.210938 C 99.605469 166.28125 99.355469 166.230469 99.128906 166.058594 C 98.90625 166.296875 98.632812 166.421875 98.308594 166.433594 C 97.410156 166.507812 96.585938 166.582031 95.6875 166.734375 L 95.390625 166.734375 C 95.261719 166.75 95.136719 166.777344 95.015625 166.808594 C 95.015625 166.882812 94.941406 166.882812 94.941406 166.957031 C 94.941406 167.03125 94.867188 167.183594 94.789062 167.257812 C 94.941406 166.957031 94.789062 167.257812 94.789062 167.332031 C 94.714844 167.554688 94.640625 167.707031 94.566406 167.929688 C 94.40625 168.292969 94.285156 168.667969 94.191406 169.050781 C 94.042969 169.578125 93.816406 170.023438 93.667969 170.550781 C 93.683594 170.804688 93.730469 171.054688 93.816406 171.296875 C 94.855469 171.699219 95.925781 171.875 97.035156 171.820312 C 97.953125 171.765625 98.800781 171.488281 99.578125 170.996094 C 99.964844 170.742188 100.316406 170.441406 100.628906 170.101562 C 100.945312 169.757812 101.21875 169.382812 101.449219 168.976562 C 101.457031 168.917969 101.484375 168.871094 101.523438 168.828125 C 101.46875 168.628906 101.371094 168.453125 101.226562 168.304688 Z M 96.0625 171.445312 C 95.914062 171.4375 95.777344 171.390625 95.648438 171.316406 C 95.519531 171.242188 95.417969 171.140625 95.335938 171.015625 C 95.253906 170.890625 95.207031 170.753906 95.1875 170.605469 C 95.171875 170.457031 95.1875 170.316406 95.238281 170.175781 C 95.761719 168.753906 96.660156 167.554688 98.15625 167.257812 C 98.90625 167.105469 99.503906 167.628906 99.578125 168.601562 C 99.625 169.726562 97.707031 171.371094 96.0625 171.445312 Z M 210.03125 126.808594 C 210.03125 130.460938 208.011719 132.996094 205.332031 133.070312 C 204.851562 133.132812 204.398438 133.046875 203.96875 132.8125 C 203.542969 132.582031 203.226562 132.246094 203.019531 131.804688 C 201.746094 129.046875 204.582031 123.824219 207.507812 123.75 C 209.507812 123.695312 209.613281 125.566406 210.03125 126.808594 Z M 208.832031 127.332031 C 208.609375 126.582031 208.832031 125.394531 207.492188 125.246094 C 206.15625 125.09375 203.984375 128.296875 203.910156 130.242188 C 203.835938 131.359375 204.359375 131.882812 205.480469 131.804688 C 207.121094 131.828125 208.863281 129.667969 208.863281 127.355469 Z M 195.710938 144.1875 C 199.0625 143.890625 200.773438 146.800781 199.734375 149.851562 C 198.910156 152.316406 195.785156 154.476562 194.136719 153.8125 C 192.722656 153.210938 192.277344 150.902344 193.171875 147.992188 C 193.472656 146.949219 193.765625 145.902344 194.738281 145.378906 C 195.261719 145.078125 195.859375 145.003906 196.152344 145.679688 C 196.441406 146.351562 196.300781 146.5 195.558594 146.800781 C 193.539062 147.691406 193.539062 149.703125 193.691406 151.574219 C 193.765625 152.613281 194.738281 152.765625 195.558594 152.464844 C 196.421875 152.1875 197.160156 151.71875 197.769531 151.050781 C 198.382812 150.382812 198.789062 149.605469 198.988281 148.722656 C 199.4375 146.933594 198.320312 145.960938 197.273438 144.984375 C 196.738281 144.757812 196.214844 144.5 195.710938 144.210938 Z M 204.882812 105.175781 C 204.882812 107.640625 203.3125 109.875 201.140625 110.25 C 200.027344 110.476562 198.898438 110.25 198.605469 108.753906 C 198.089844 106.367188 200.402344 102.558594 202.636719 102.183594 C 205.03125 101.839844 204.660156 103.859375 204.882812 105.199219 Z M 203.386719 105.101562 C 203.386719 104.355469 203.386719 103.316406 202.496094 103.539062 C 200.773438 104.054688 200.410156 105.851562 200.109375 107.414062 C 200.035156 107.9375 200.035156 108.613281 200.773438 108.761719 C 201.824219 109 203.3125 106.839844 203.386719 105.109375 Z M 221.066406 73.101562 C 219.503906 74.074219 220.691406 75.488281 220.394531 76.6875 C 220.355469 77.109375 220.191406 77.472656 219.898438 77.777344 C 219.605469 78.085938 219.25 78.265625 218.828125 78.324219 C 218.511719 78.394531 218.195312 78.375 217.886719 78.269531 C 217.578125 78.160156 217.320312 77.980469 217.117188 77.726562 C 216.515625 76.910156 216.890625 76.230469 217.265625 75.480469 C 217.640625 74.734375 219.128906 73.984375 217.414062 73.019531 C 217.339844 72.945312 217.414062 72.578125 217.488281 72.355469 C 217.707031 71.828125 218.304688 71.457031 218.605469 71.980469 C 219.203125 72.832031 220.542969 71.859375 221.066406 73.125 Z M 207.71875 80.785156 C 208.117188 80.972656 208.429688 81.257812 208.648438 81.640625 C 208.863281 82.023438 208.953125 82.433594 208.90625 82.875 C 208.710938 83.871094 208.34375 84.800781 207.804688 85.664062 C 207.261719 86.523438 206.585938 87.261719 205.773438 87.871094 C 205.332031 88.246094 204.507812 88.542969 204.058594 87.871094 C 203.945312 87.722656 203.867188 87.554688 203.824219 87.371094 C 203.78125 87.1875 203.777344 87.003906 203.8125 86.820312 C 203.847656 86.632812 203.921875 86.464844 204.03125 86.308594 C 204.136719 86.15625 204.273438 86.03125 204.433594 85.933594 C 206.148438 84.960938 207.425781 83.921875 206.820312 81.609375 C 206.746094 81.257812 207.195312 80.882812 207.71875 80.808594 Z M 219.339844 139.214844 C 220.152344 139.511719 220.675781 140.035156 220.527344 140.851562 C 220.441406 141.589844 220.21875 142.285156 219.863281 142.941406 C 219.261719 144.210938 218.441406 145.25 216.871094 145.25 C 216.746094 145.269531 216.625 145.261719 216.503906 145.226562 C 216.382812 145.195312 216.273438 145.140625 216.171875 145.066406 C 216.074219 144.988281 215.996094 144.894531 215.933594 144.785156 C 215.875 144.675781 215.835938 144.558594 215.820312 144.4375 C 215.777344 143.769531 215.902344 143.136719 216.195312 142.535156 C 216.488281 141.9375 216.914062 141.449219 217.46875 141.078125 C 218.15625 140.554688 218.304688 139.363281 219.339844 139.214844 Z M 216.964844 144.015625 C 218.53125 143.417969 219.277344 142.453125 219.726562 140.65625 C 218.15625 141.375 217.09375 142.125 216.964844 144.015625 Z M 185.113281 159.28125 C 184.21875 160.320312 183.253906 160.996094 182.121094 160.394531 C 180.933594 159.648438 181.75 158.53125 182.046875 157.109375 C 182.355469 159.648438 182.355469 159.648438 185.113281 159.28125 Z M 266.863281 131.980469 C 266.414062 131.53125 266.042969 131.082031 265.449219 130.480469 C 266.714844 129.589844 268.128906 129.21875 269.25 128.09375 C 270.300781 127.128906 272.902344 129.441406 272.828125 131.15625 C 272.761719 133.316406 269.25 137.792969 267.238281 138.242188 C 267.03125 138.324219 266.816406 138.363281 266.59375 138.355469 C 266.371094 138.34375 266.160156 138.289062 265.960938 138.191406 C 265.761719 138.09375 265.589844 137.957031 265.449219 137.785156 C 265.308594 137.609375 265.207031 137.417969 265.152344 137.199219 C 264.996094 136.730469 264.921875 136.246094 264.921875 135.75 C 264.921875 135.257812 265 134.773438 265.152344 134.300781 C 265.308594 133.832031 265.53125 133.398438 265.824219 132.996094 C 266.113281 132.597656 266.460938 132.253906 266.863281 131.964844 C 266.941406 133.460938 265 135.464844 266.640625 136.289062 C 267.980469 136.960938 269.699219 135.171875 270.515625 133.675781 C 271.113281 132.710938 272.3125 131.214844 271.1875 130.175781 C 269.925781 128.976562 268.726562 130.25 267.761719 131.214844 C 267.5 131.511719 267.199219 131.765625 266.863281 131.980469 Z M 278.574219 140.105469 C 280.585938 137.5 283.199219 136.902344 285.136719 138.390625 C 285.574219 138.769531 285.9375 139.207031 286.230469 139.707031 C 286.523438 140.207031 286.726562 140.742188 286.839844 141.308594 C 286.957031 141.875 286.976562 142.445312 286.902344 143.019531 C 286.828125 143.59375 286.664062 144.140625 286.40625 144.660156 C 285.433594 146.75 280.511719 148.984375 278.351562 148.238281 C 277.882812 148.058594 277.507812 147.765625 277.222656 147.355469 C 276.9375 146.945312 276.792969 146.492188 276.785156 145.992188 C 276.664062 145.382812 276.683594 144.777344 276.839844 144.171875 C 276.996094 143.570312 277.273438 143.03125 277.675781 142.558594 C 277.941406 142.425781 278.214844 142.402344 278.5 142.484375 C 278.875 142.707031 278.722656 143.230469 278.648438 143.605469 C 278.5 144.652344 277.152344 145.851562 278.273438 146.742188 C 279.546875 147.78125 280.960938 146.816406 282.308594 146.292969 C 283.65625 145.769531 285.210938 145.167969 285.585938 143.457031 C 285.773438 142.769531 285.78125 142.082031 285.609375 141.390625 C 285.4375 140.703125 285.105469 140.097656 284.621094 139.582031 C 284.136719 139.132812 283.566406 138.851562 282.917969 138.746094 C 282.265625 138.636719 281.640625 138.714844 281.035156 138.980469 C 280.210938 139.289062 279.398438 139.738281 278.574219 140.105469 Z M 257.542969 158.234375 C 257.542969 160.695312 253.515625 164.421875 251.054688 164.121094 C 249.558594 163.980469 248.886719 162.558594 249.632812 160.996094 C 250.460938 159.332031 251.40625 157.742188 252.46875 156.21875 C 253.066406 155.398438 253.734375 154.132812 254.929688 154.722656 C 256.128906 155.316406 257.617188 156.21875 257.542969 158.234375 Z M 256.269531 158.234375 C 256.328125 158.058594 256.351562 157.882812 256.34375 157.699219 C 256.335938 157.519531 256.292969 157.34375 256.214844 157.179688 C 256.140625 157.011719 256.035156 156.867188 255.90625 156.738281 C 255.773438 156.613281 255.625 156.515625 255.453125 156.445312 C 255.164062 156.277344 254.851562 156.214844 254.519531 156.253906 C 254.1875 156.296875 253.898438 156.433594 253.660156 156.667969 C 252.152344 158.125 251.152344 159.871094 250.664062 161.90625 C 250.515625 162.429688 250.441406 163.105469 251.414062 163.105469 C 253.066406 163.15625 256.195312 160.097656 256.269531 158.234375 Z M 275.453125 155.578125 C 275.378906 158.695312 271.714844 161.960938 269.070312 161.441406 C 268.929688 161.4375 268.789062 161.414062 268.652344 161.375 C 268.515625 161.335938 268.382812 161.277344 268.257812 161.207031 C 268.132812 161.136719 268.019531 161.054688 267.914062 160.957031 C 267.808594 160.859375 267.71875 160.75 267.636719 160.632812 C 267.558594 160.511719 267.492188 160.386719 267.445312 160.253906 C 267.394531 160.117188 267.363281 159.980469 267.34375 159.835938 C 267.328125 159.695312 267.328125 159.554688 267.34375 159.410156 C 267.359375 159.269531 267.390625 159.132812 267.441406 158.996094 C 268.257812 156.25 270.253906 154.320312 272.035156 152.261719 C 272.632812 151.597656 273.375 151.972656 274.039062 152.335938 C 275.355469 153.054688 275.207031 154.492188 275.453125 155.578125 Z M 269.960938 160.179688 C 271.742188 160.179688 274.632812 156.917969 274.414062 154.835938 C 274.265625 153.730469 273.449219 152.6875 272.632812 153.339844 C 271.003906 154.746094 269.222656 156.234375 268.773438 158.683594 C 268.601562 159.664062 268.675781 160.253906 269.941406 160.179688 Z M 102.199219 114.539062 C 102.945312 112.523438 103.988281 111.851562 105.550781 112.449219 C 107.113281 113.046875 107.414062 114.464844 106.972656 115.882812 C 106.296875 118.128906 105.027344 119.984375 102.789062 120.882812 C 100.550781 121.78125 99.660156 121.097656 99.953125 117.597656 C 100.550781 119.609375 101.601562 120.734375 102.945312 119.683594 C 104.441406 118.488281 106.605469 117.222656 106.230469 114.988281 C 105.753906 112.960938 103.964844 113.339844 102.175781 114.523438 Z M 123.148438 112.152344 C 123.222656 111.628906 123.148438 110.8125 124.039062 111.1875 C 126.207031 112 127.03125 115.882812 125.460938 117.671875 C 125.261719 117.980469 124.988281 118.199219 124.640625 118.324219 C 124.296875 118.449219 123.949219 118.457031 123.597656 118.347656 C 123 118.152344 122.507812 117.8125 122.113281 117.324219 C 121.722656 116.839844 121.496094 116.28125 121.433594 115.660156 C 121.285156 114.238281 121.503906 112.75 123.148438 112.152344 C 122.921875 113.046875 122.550781 113.9375 122.398438 114.910156 C 122.339844 115.324219 122.414062 115.714844 122.625 116.074219 C 122.832031 116.4375 123.132812 116.695312 123.523438 116.851562 C 123.785156 116.984375 124.054688 117.015625 124.339844 116.941406 C 124.625 116.871094 124.851562 116.714844 125.019531 116.476562 C 125.292969 116.144531 125.4375 115.761719 125.449219 115.332031 C 125.464844 114.902344 125.34375 114.511719 125.09375 114.164062 C 124.597656 113.335938 123.941406 112.660156 123.132812 112.136719 Z M 123.1875 74.433594 C 122.960938 75.707031 121.390625 76.230469 121.765625 77.867188 C 122.886719 77.71875 123.484375 76.753906 124.375 76.304688 C 125.265625 75.855469 126.246094 75.332031 126.84375 76.527344 C 126.957031 76.769531 127.023438 77.027344 127.035156 77.292969 C 127.046875 77.5625 127.007812 77.820312 126.917969 78.074219 C 126.824219 78.328125 126.691406 78.550781 126.507812 78.75 C 126.328125 78.945312 126.113281 79.101562 125.871094 79.214844 C 124.601562 79.960938 123.035156 79.886719 121.765625 79.886719 C 120.265625 79.886719 120.417969 78.167969 120.792969 77.121094 C 120.949219 76.503906 121.242188 75.960938 121.664062 75.488281 C 122.085938 75.011719 122.59375 74.660156 123.1875 74.433594 Z M 182.578125 56.476562 C 181.164062 56.402344 180.191406 55.960938 180.265625 54.164062 C 180.417969 51.554688 182.355469 48.574219 184.007812 48.574219 C 186.175781 48.574219 188.039062 50.070312 188.117188 51.851562 C 188.101562 54.03125 185.113281 56.566406 182.578125 56.476562 Z M 182.726562 55.285156 C 184.667969 55.285156 186.976562 53.5 186.753906 52.078125 C 186.734375 51.792969 186.671875 51.523438 186.558594 51.261719 C 186.449219 51 186.300781 50.761719 186.113281 50.550781 C 185.921875 50.339844 185.703125 50.164062 185.457031 50.027344 C 185.207031 49.886719 184.945312 49.792969 184.667969 49.742188 C 183.476562 49.519531 181.390625 52.277344 181.238281 53.992188 C 181.179688 55.226562 182.054688 55.226562 182.726562 55.300781 Z M 182.726562 55.285156 " fill-opacity="1" fill-rule="nonzero"/></svg>