<svg xmlns="http://www.w3.org/2000/svg" xmlns:xlink="http://www.w3.org/1999/xlink" width="500" zoomAndPan="magnify" viewBox="0 0 375 374.999991" height="500" preserveAspectRatio="xMidYMid meet" version="1.0"><defs><g/><clipPath id="d8a834ab53"><path d="M 144.898438 50.585938 L 230.398438 50.585938 L 230.398438 148.835938 L 144.898438 148.835938 Z M 144.898438 50.585938 " clip-rule="nonzero"/></clipPath><clipPath id="5aedf0b34d"><path d="M 151.371094 50.585938 L 236.871094 50.585938 L 236.871094 148.835938 L 151.371094 148.835938 Z M 151.371094 50.585938 " clip-rule="nonzero"/></clipPath></defs><path fill="#ad88c6" d="M 37.507812 34.5 L 46.507812 34.546875 L 46.492188 37.546875 L 37.492188 37.5 M 49.507812 34.558594 L 58.507812 34.605469 L 58.492188 37.605469 L 49.492188 37.558594 M 61.507812 34.621094 L 70.507812 34.664062 L 70.492188 37.664062 L 61.492188 37.621094 M 73.507812 34.679688 L 82.507812 34.726562 L 82.492188 37.726562 L 73.492188 37.679688 M 85.507812 34.738281 L 94.507812 34.785156 L 94.492188 37.785156 L 85.492188 37.738281 M 97.507812 34.800781 L 106.507812 34.84375 L 106.492188 37.84375 L 97.492188 37.800781 M 109.507812 34.859375 L 118.507812 34.90625 L 118.492188 37.90625 L 109.492188 37.859375 M 121.507812 34.921875 L 130.507812 34.964844 L 130.492188 37.964844 L 121.492188 37.921875 M 133.507812 34.980469 L 142.507812 35.023438 L 142.492188 38.023438 L 133.492188 37.980469 M 145.507812 35.039062 L 154.507812 35.085938 L 154.492188 38.085938 L 145.492188 38.039062 M 157.507812 35.101562 L 166.507812 35.144531 L 166.492188 38.144531 L 157.492188 38.101562 M 169.503906 35.160156 L 178.503906 35.203125 L 178.492188 38.203125 L 169.492188 38.160156 M 181.503906 35.21875 L 190.503906 35.265625 L 190.492188 38.265625 L 181.492188 38.21875 M 193.503906 35.28125 L 202.503906 35.324219 L 202.492188 38.324219 L 193.492188 38.28125 M 205.503906 35.339844 L 214.503906 35.386719 L 214.492188 38.386719 L 205.492188 38.339844 M 217.503906 35.398438 L 226.503906 35.445312 L 226.488281 38.445312 L 217.492188 38.398438 M 229.503906 35.460938 L 238.503906 35.503906 L 238.488281 38.503906 L 229.488281 38.460938 M 241.503906 35.519531 L 250.503906 35.566406 L 250.488281 38.566406 L 241.488281 38.519531 M 253.503906 35.578125 L 262.503906 35.625 L 262.488281 38.625 L 253.488281 38.578125 M 265.503906 35.640625 L 274.503906 35.683594 L 274.488281 38.683594 L 265.488281 38.640625 M 277.503906 35.699219 L 286.503906 35.746094 L 286.488281 38.746094 L 277.488281 38.699219 M 289.503906 35.761719 L 298.503906 35.804688 L 298.488281 38.804688 L 289.488281 38.761719 M 301.503906 35.820312 L 310.503906 35.863281 L 310.488281 38.863281 L 301.488281 38.820312 M 313.503906 35.878906 L 322.503906 35.925781 L 322.488281 38.925781 L 313.488281 38.878906 M 325.503906 35.941406 L 334.503906 35.984375 L 334.488281 38.984375 L 325.488281 38.941406 M 337.503906 36 L 337.507812 36 L 337.492188 39 L 337.488281 39 " fill-opacity="1" fill-rule="nonzero"/><path fill="#ad88c6" d="M 37.515625 333 L 46.515625 333.046875 L 46.5 336.046875 L 37.5 336 M 49.515625 333.058594 L 58.515625 333.105469 L 58.5 336.105469 L 49.5 336.058594 M 61.515625 333.121094 L 70.515625 333.164062 L 70.5 336.164062 L 61.5 336.121094 M 73.515625 333.179688 L 82.515625 333.226562 L 82.5 336.226562 L 73.5 336.179688 M 85.515625 333.238281 L 94.515625 333.285156 L 94.5 336.285156 L 85.5 336.238281 M 97.515625 333.300781 L 106.515625 333.34375 L 106.5 336.34375 L 97.5 336.300781 M 109.515625 333.359375 L 118.515625 333.40625 L 118.5 336.40625 L 109.5 336.359375 M 121.515625 333.421875 L 130.515625 333.464844 L 130.5 336.464844 L 121.5 336.421875 M 133.515625 333.480469 L 142.515625 333.523438 L 142.5 336.523438 L 133.5 336.480469 M 145.511719 333.539062 L 154.511719 333.585938 L 154.5 336.585938 L 145.5 336.539062 M 157.511719 333.601562 L 166.511719 333.644531 L 166.5 336.644531 L 157.5 336.601562 M 169.511719 333.660156 L 178.511719 333.707031 L 178.5 336.703125 L 169.5 336.660156 M 181.511719 333.71875 L 190.511719 333.765625 L 190.5 336.765625 L 181.5 336.71875 M 193.511719 333.78125 L 202.511719 333.824219 L 202.496094 336.824219 L 193.496094 336.78125 M 205.511719 333.839844 L 214.511719 333.886719 L 214.496094 336.886719 L 205.496094 336.839844 M 217.511719 333.898438 L 226.511719 333.945312 L 226.496094 336.945312 L 217.496094 336.898438 M 229.511719 333.960938 L 238.511719 334.003906 L 238.496094 337.003906 L 229.496094 336.960938 M 241.511719 334.019531 L 250.511719 334.066406 L 250.496094 337.066406 L 241.496094 337.019531 M 253.511719 334.082031 L 262.511719 334.125 L 262.496094 337.125 L 253.496094 337.078125 M 265.511719 334.140625 L 274.511719 334.183594 L 274.496094 337.183594 L 265.496094 337.140625 M 277.511719 334.199219 L 286.511719 334.246094 L 286.496094 337.246094 L 277.496094 337.199219 M 289.511719 334.261719 L 298.511719 334.304688 L 298.496094 337.304688 L 289.496094 337.261719 M 301.511719 334.320312 L 310.511719 334.363281 L 310.496094 337.363281 L 301.496094 337.320312 M 313.511719 334.378906 L 322.511719 334.425781 L 322.496094 337.425781 L 313.496094 337.378906 M 325.511719 334.441406 L 334.511719 334.484375 L 334.496094 337.484375 L 325.496094 337.441406 M 337.511719 334.5 L 337.515625 334.5 L 337.5 337.5 L 337.496094 337.5 " fill-opacity="1" fill-rule="nonzero"/><path fill="#ad88c6" d="M 40.503906 37.5 L 40.503906 46.5 L 37.503906 46.5 L 37.503906 37.5 M 40.503906 49.5 L 40.503906 58.5 L 37.503906 58.5 L 37.503906 49.5 M 40.503906 61.5 L 40.503906 70.5 L 37.503906 70.5 L 37.503906 61.5 M 40.503906 73.5 L 40.503906 82.5 L 37.503906 82.5 L 37.503906 73.5 M 40.503906 85.5 L 40.503906 94.5 L 37.503906 94.5 L 37.503906 85.5 M 40.503906 97.5 L 40.503906 106.5 L 37.503906 106.5 L 37.503906 97.5 M 40.503906 109.5 L 40.503906 118.5 L 37.503906 118.5 L 37.503906 109.5 M 40.503906 121.5 L 40.503906 130.5 L 37.503906 130.5 L 37.503906 121.5 M 40.503906 133.5 L 40.503906 142.5 L 37.503906 142.5 L 37.503906 133.5 M 40.503906 145.5 L 40.503906 154.5 L 37.503906 154.5 L 37.503906 145.5 M 40.503906 157.5 L 40.503906 166.5 L 37.503906 166.5 L 37.503906 157.5 M 40.503906 169.5 L 40.503906 178.5 L 37.503906 178.5 L 37.503906 169.5 M 40.503906 181.5 L 40.503906 190.5 L 37.503906 190.5 L 37.503906 181.5 M 40.503906 193.5 L 40.503906 202.5 L 37.503906 202.5 L 37.503906 193.5 M 40.503906 205.5 L 40.503906 214.5 L 37.503906 214.5 L 37.503906 205.5 M 40.503906 217.5 L 40.503906 226.5 L 37.503906 226.5 L 37.503906 217.5 M 40.503906 229.5 L 40.503906 238.5 L 37.503906 238.5 L 37.503906 229.5 M 40.503906 241.5 L 40.503906 250.5 L 37.503906 250.5 L 37.503906 241.5 M 40.503906 253.5 L 40.503906 262.5 L 37.503906 262.5 L 37.503906 253.5 M 40.503906 265.5 L 40.503906 274.5 L 37.503906 274.5 L 37.503906 265.5 M 40.503906 277.5 L 40.503906 286.5 L 37.503906 286.5 L 37.503906 277.5 M 40.503906 289.5 L 40.503906 298.5 L 37.503906 298.5 L 37.503906 289.5 M 40.503906 301.5 L 40.503906 310.5 L 37.503906 310.5 L 37.503906 301.5 M 40.503906 313.5 L 40.503906 322.5 L 37.503906 322.5 L 37.503906 313.5 M 40.503906 325.5 L 40.503906 334.5 L 37.503906 334.5 L 37.503906 325.5 M 40.503906 337.5 L 40.503906 337.503906 L 37.503906 337.503906 L 37.503906 337.5 " fill-opacity="1" fill-rule="nonzero"/><path fill="#ad88c6" d="M 337.5 37.5 L 337.5 46.5 L 334.5 46.5 L 334.5 37.5 M 337.5 49.5 L 337.5 58.5 L 334.5 58.5 L 334.5 49.5 M 337.5 61.5 L 337.5 70.5 L 334.5 70.5 L 334.5 61.5 M 337.5 73.5 L 337.5 82.5 L 334.5 82.5 L 334.5 73.5 M 337.5 85.5 L 337.5 94.5 L 334.5 94.5 L 334.5 85.5 M 337.5 97.5 L 337.5 106.5 L 334.5 106.5 L 334.5 97.5 M 337.5 109.5 L 337.5 118.5 L 334.5 118.5 L 334.5 109.5 M 337.5 121.5 L 337.5 130.5 L 334.5 130.5 L 334.5 121.5 M 337.5 133.5 L 337.5 142.5 L 334.5 142.5 L 334.5 133.5 M 337.5 145.5 L 337.5 154.5 L 334.5 154.5 L 334.5 145.5 M 337.5 157.5 L 337.5 166.5 L 334.5 166.5 L 334.5 157.5 M 337.5 169.5 L 337.5 178.5 L 334.5 178.5 L 334.5 169.5 M 337.5 181.5 L 337.5 190.5 L 334.5 190.5 L 334.5 181.5 M 337.5 193.5 L 337.5 202.5 L 334.5 202.5 L 334.5 193.5 M 337.5 205.5 L 337.5 214.5 L 334.5 214.5 L 334.5 205.5 M 337.5 217.5 L 337.5 226.5 L 334.5 226.5 L 334.5 217.5 M 337.5 229.5 L 337.5 238.5 L 334.5 238.5 L 334.5 229.5 M 337.5 241.5 L 337.5 250.5 L 334.5 250.5 L 334.5 241.5 M 337.5 253.5 L 337.5 262.5 L 334.5 262.5 L 334.5 253.5 M 337.5 265.5 L 337.5 274.5 L 334.5 274.5 L 334.5 265.5 M 337.5 277.5 L 337.5 286.5 L 334.5 286.5 L 334.5 277.5 M 337.5 289.5 L 337.5 298.5 L 334.5 298.5 L 334.5 289.5 M 337.5 301.5 L 337.5 310.5 L 334.5 310.5 L 334.5 301.5 M 337.5 313.5 L 337.5 322.5 L 334.5 322.5 L 334.5 313.5 M 337.5 325.5 L 337.5 334.5 L 334.5 334.5 L 334.5 325.5 M 337.5 337.5 L 337.5 337.503906 L 334.5 337.503906 L 334.5 337.5 " fill-opacity="1" fill-rule="nonzero"/><g fill="#372642" fill-opacity="1"><g transform="translate(70.152187, 197.587487)"><g><path d="M 12.234375 -28.203125 C 16.347656 -28.203125 19.285156 -27.453125 21.046875 -25.953125 C 22.804688 -24.460938 23.6875 -22.195312 23.6875 -19.15625 C 23.6875 -17.375 23.242188 -15.78125 22.359375 -14.375 C 21.484375 -12.976562 20.148438 -11.878906 18.359375 -11.078125 C 16.578125 -10.273438 14.390625 -9.875 11.796875 -9.875 L 10.125 -9.875 L 10.125 -6.359375 C 10.125 -5.296875 10.242188 -4.492188 10.484375 -3.953125 C 10.722656 -3.421875 11.140625 -3.054688 11.734375 -2.859375 C 12.335938 -2.660156 13.253906 -2.5625 14.484375 -2.5625 C 14.484375 -2.082031 14.398438 -1.613281 14.234375 -1.15625 C 14.078125 -0.707031 13.863281 -0.320312 13.59375 0 L 1.953125 0 C 1.660156 -0.320312 1.4375 -0.707031 1.28125 -1.15625 C 1.125 -1.613281 1.046875 -2.082031 1.046875 -2.5625 C 1.953125 -2.5625 2.597656 -2.710938 2.984375 -3.015625 C 3.367188 -3.328125 3.5625 -3.84375 3.5625 -4.5625 L 3.5625 -23.359375 C 3.5625 -24.109375 3.367188 -24.632812 2.984375 -24.9375 C 2.597656 -25.25 1.953125 -25.40625 1.046875 -25.40625 C 1.046875 -26.3125 1.335938 -27.148438 1.921875 -27.921875 C 3.703125 -27.921875 6.128906 -27.988281 9.203125 -28.125 C 10.742188 -28.175781 11.753906 -28.203125 12.234375 -28.203125 Z M 16.71875 -19.28125 C 16.71875 -20.988281 16.320312 -22.375 15.53125 -23.4375 C 14.75 -24.507812 13.4375 -25.046875 11.59375 -25.046875 C 11.007812 -25.046875 10.519531 -24.988281 10.125 -24.875 L 10.125 -13.15625 C 10.363281 -13.101562 10.707031 -13.078125 11.15625 -13.078125 C 13.375 -13.078125 14.851562 -13.660156 15.59375 -14.828125 C 16.34375 -16.003906 16.71875 -17.488281 16.71875 -19.28125 Z M 16.71875 -19.28125 "/></g></g></g><g fill="#372642" fill-opacity="1"><g transform="translate(94.229799, 197.587487)"><g><path d="M 0.875 -5.640625 C 0.875 -7.421875 1.460938 -8.832031 2.640625 -9.875 C 3.816406 -10.914062 5.550781 -11.4375 7.84375 -11.4375 C 8.644531 -11.4375 9.460938 -11.351562 10.296875 -11.1875 C 11.140625 -11.03125 11.828125 -10.820312 12.359375 -10.5625 L 12.359375 -15.875 C 12.359375 -16.945312 12.09375 -17.710938 11.5625 -18.171875 C 11.03125 -18.640625 10.3125 -18.875 9.40625 -18.875 C 8.519531 -18.875 7.796875 -18.660156 7.234375 -18.234375 C 7.742188 -18.078125 8.125 -17.804688 8.375 -17.421875 C 8.632812 -17.035156 8.765625 -16.601562 8.765625 -16.125 C 8.765625 -15.269531 8.457031 -14.570312 7.84375 -14.03125 C 7.226562 -13.5 6.453125 -13.234375 5.515625 -13.234375 C 4.503906 -13.234375 3.691406 -13.523438 3.078125 -14.109375 C 2.460938 -14.703125 2.15625 -15.46875 2.15625 -16.40625 C 2.15625 -17.332031 2.472656 -18.207031 3.109375 -19.03125 C 3.753906 -19.863281 4.738281 -20.53125 6.0625 -21.03125 C 7.382812 -21.539062 9.015625 -21.796875 10.953125 -21.796875 C 13.597656 -21.796875 15.597656 -21.253906 16.953125 -20.171875 C 18.316406 -19.097656 19 -17.519531 19 -15.4375 L 19 -4.84375 C 19 -3.5625 19.613281 -2.785156 20.84375 -2.515625 L 20.84375 -1.234375 C 20.488281 -0.753906 19.910156 -0.378906 19.109375 -0.109375 C 18.316406 0.148438 17.507812 0.28125 16.6875 0.28125 C 14.863281 0.28125 13.582031 -0.34375 12.84375 -1.59375 C 12.226562 -1.0625 11.476562 -0.613281 10.59375 -0.25 C 9.71875 0.101562 8.71875 0.28125 7.59375 0.28125 C 5.59375 0.28125 3.972656 -0.269531 2.734375 -1.375 C 1.492188 -2.488281 0.875 -3.910156 0.875 -5.640625 Z M 12.359375 -7.484375 C 12.066406 -7.671875 11.710938 -7.828125 11.296875 -7.953125 C 10.890625 -8.085938 10.5 -8.15625 10.125 -8.15625 C 9.375 -8.15625 8.757812 -7.921875 8.28125 -7.453125 C 7.800781 -6.992188 7.5625 -6.320312 7.5625 -5.4375 C 7.5625 -4.71875 7.800781 -4.125 8.28125 -3.65625 C 8.757812 -3.1875 9.398438 -2.953125 10.203125 -2.953125 C 10.597656 -2.953125 10.988281 -3.007812 11.375 -3.125 C 11.757812 -3.25 12.085938 -3.40625 12.359375 -3.59375 Z M 12.359375 -7.484375 "/></g></g></g><g fill="#372642" fill-opacity="1"><g transform="translate(115.707669, 197.587487)"><g><path d="M 9.234375 0.40625 C 7.929688 0.40625 6.632812 0.210938 5.34375 -0.171875 C 4.050781 -0.566406 2.988281 -1.125 2.15625 -1.84375 C 1.332031 -2.5625 0.921875 -3.414062 0.921875 -4.40625 C 0.921875 -5.332031 1.1875 -6.082031 1.71875 -6.65625 C 2.25 -7.226562 2.929688 -7.515625 3.765625 -7.515625 C 4.503906 -7.515625 5.132812 -7.273438 5.65625 -6.796875 C 6.175781 -6.316406 6.4375 -5.691406 6.4375 -4.921875 C 6.4375 -4.578125 6.390625 -4.273438 6.296875 -4.015625 C 6.203125 -3.765625 6.035156 -3.492188 5.796875 -3.203125 C 6.015625 -2.984375 6.414062 -2.8125 7 -2.6875 C 7.582031 -2.570312 8.207031 -2.515625 8.875 -2.515625 C 9.78125 -2.515625 10.492188 -2.679688 11.015625 -3.015625 C 11.535156 -3.347656 11.796875 -3.78125 11.796875 -4.3125 C 11.796875 -5.039062 11.460938 -5.660156 10.796875 -6.171875 C 10.128906 -6.691406 9.0625 -7.34375 7.59375 -8.125 C 6.101562 -8.914062 4.972656 -9.570312 4.203125 -10.09375 C 3.429688 -10.613281 2.742188 -11.320312 2.140625 -12.21875 C 1.535156 -13.113281 1.234375 -14.210938 1.234375 -15.515625 C 1.234375 -17.328125 1.976562 -18.789062 3.46875 -19.90625 C 4.96875 -21.03125 7.039062 -21.59375 9.6875 -21.59375 C 12.269531 -21.59375 14.191406 -21.132812 15.453125 -20.21875 C 16.722656 -19.300781 17.359375 -18.203125 17.359375 -16.921875 C 17.359375 -16.117188 17.097656 -15.460938 16.578125 -14.953125 C 16.054688 -14.453125 15.425781 -14.203125 14.6875 -14.203125 C 13.988281 -14.203125 13.390625 -14.40625 12.890625 -14.8125 C 12.398438 -15.226562 12.15625 -15.769531 12.15625 -16.4375 C 12.15625 -16.78125 12.207031 -17.132812 12.3125 -17.5 C 12.425781 -17.863281 12.578125 -18.164062 12.765625 -18.40625 C 12.222656 -18.832031 11.421875 -19.046875 10.359375 -19.046875 C 9.503906 -19.046875 8.835938 -18.84375 8.359375 -18.4375 C 7.878906 -18.039062 7.640625 -17.535156 7.640625 -16.921875 C 7.640625 -16.097656 7.972656 -15.414062 8.640625 -14.875 C 9.304688 -14.34375 10.375 -13.703125 11.84375 -12.953125 C 13.226562 -12.234375 14.316406 -11.609375 15.109375 -11.078125 C 15.910156 -10.546875 16.601562 -9.835938 17.1875 -8.953125 C 17.78125 -8.078125 18.078125 -7 18.078125 -5.71875 C 18.078125 -3.632812 17.226562 -2.09375 15.53125 -1.09375 C 13.84375 -0.09375 11.742188 0.40625 9.234375 0.40625 Z M 9.234375 0.40625 "/></g></g></g><g fill="#372642" fill-opacity="1"><g transform="translate(134.705776, 197.587487)"><g><path d="M 9.234375 -17.640625 L 9.234375 -6.359375 C 9.234375 -5.554688 9.394531 -5 9.71875 -4.6875 C 10.039062 -4.382812 10.492188 -4.234375 11.078125 -4.234375 C 11.585938 -4.234375 12.117188 -4.367188 12.671875 -4.640625 C 13.234375 -4.910156 13.675781 -5.242188 14 -5.640625 C 14.269531 -5.421875 14.460938 -5.097656 14.578125 -4.671875 C 14.703125 -4.253906 14.765625 -3.867188 14.765625 -3.515625 C 14.765625 -2.898438 14.550781 -2.300781 14.125 -1.71875 C 13.695312 -1.132812 13.054688 -0.65625 12.203125 -0.28125 C 11.347656 0.09375 10.320312 0.28125 9.125 0.28125 C 7.25 0.28125 5.742188 -0.25 4.609375 -1.3125 C 3.484375 -2.382812 2.921875 -4.160156 2.921875 -6.640625 L 2.921875 -17.640625 L 0.40625 -17.640625 L 0.40625 -20.078125 C 1.09375 -20.179688 1.765625 -20.625 2.421875 -21.40625 C 3.078125 -22.195312 3.632812 -23.1875 4.09375 -24.375 C 4.5625 -25.5625 4.863281 -26.742188 5 -27.921875 C 5.476562 -28.003906 5.914062 -28.046875 6.3125 -28.046875 C 7.28125 -28.046875 7.992188 -27.769531 8.453125 -27.21875 C 8.921875 -26.675781 9.15625 -26.070312 9.15625 -25.40625 L 9.15625 -21.203125 L 13.796875 -21.203125 C 13.796875 -20.398438 13.753906 -19.710938 13.671875 -19.140625 C 13.597656 -18.566406 13.425781 -18.066406 13.15625 -17.640625 Z M 9.234375 -17.640625 "/></g></g></g><g fill="#372642" fill-opacity="1"><g transform="translate(149.784281, 197.587487)"><g><path d="M 0.875 -5.640625 C 0.875 -7.421875 1.460938 -8.832031 2.640625 -9.875 C 3.816406 -10.914062 5.550781 -11.4375 7.84375 -11.4375 C 8.644531 -11.4375 9.460938 -11.351562 10.296875 -11.1875 C 11.140625 -11.03125 11.828125 -10.820312 12.359375 -10.5625 L 12.359375 -15.875 C 12.359375 -16.945312 12.09375 -17.710938 11.5625 -18.171875 C 11.03125 -18.640625 10.3125 -18.875 9.40625 -18.875 C 8.519531 -18.875 7.796875 -18.660156 7.234375 -18.234375 C 7.742188 -18.078125 8.125 -17.804688 8.375 -17.421875 C 8.632812 -17.035156 8.765625 -16.601562 8.765625 -16.125 C 8.765625 -15.269531 8.457031 -14.570312 7.84375 -14.03125 C 7.226562 -13.5 6.453125 -13.234375 5.515625 -13.234375 C 4.503906 -13.234375 3.691406 -13.523438 3.078125 -14.109375 C 2.460938 -14.703125 2.15625 -15.46875 2.15625 -16.40625 C 2.15625 -17.332031 2.472656 -18.207031 3.109375 -19.03125 C 3.753906 -19.863281 4.738281 -20.53125 6.0625 -21.03125 C 7.382812 -21.539062 9.015625 -21.796875 10.953125 -21.796875 C 13.597656 -21.796875 15.597656 -21.253906 16.953125 -20.171875 C 18.316406 -19.097656 19 -17.519531 19 -15.4375 L 19 -4.84375 C 19 -3.5625 19.613281 -2.785156 20.84375 -2.515625 L 20.84375 -1.234375 C 20.488281 -0.753906 19.910156 -0.378906 19.109375 -0.109375 C 18.316406 0.148438 17.507812 0.28125 16.6875 0.28125 C 14.863281 0.28125 13.582031 -0.34375 12.84375 -1.59375 C 12.226562 -1.0625 11.476562 -0.613281 10.59375 -0.25 C 9.71875 0.101562 8.71875 0.28125 7.59375 0.28125 C 5.59375 0.28125 3.972656 -0.269531 2.734375 -1.375 C 1.492188 -2.488281 0.875 -3.910156 0.875 -5.640625 Z M 12.359375 -7.484375 C 12.066406 -7.671875 11.710938 -7.828125 11.296875 -7.953125 C 10.890625 -8.085938 10.5 -8.15625 10.125 -8.15625 C 9.375 -8.15625 8.757812 -7.921875 8.28125 -7.453125 C 7.800781 -6.992188 7.5625 -6.320312 7.5625 -5.4375 C 7.5625 -4.71875 7.800781 -4.125 8.28125 -3.65625 C 8.757812 -3.1875 9.398438 -2.953125 10.203125 -2.953125 C 10.597656 -2.953125 10.988281 -3.007812 11.375 -3.125 C 11.757812 -3.25 12.085938 -3.40625 12.359375 -3.59375 Z M 12.359375 -7.484375 "/></g></g></g><g fill="#372642" fill-opacity="1"><g transform="translate(171.26215, 197.587487)"><g><path d="M 23.6875 -1.078125 C 23.28125 -0.679688 22.5625 -0.363281 21.53125 -0.125 C 20.507812 0.113281 19.53125 0.234375 18.59375 0.234375 C 17.445312 0.234375 16.597656 0.0195312 16.046875 -0.40625 C 15.503906 -0.832031 15.234375 -1.507812 15.234375 -2.4375 L 15.234375 -14.921875 C 15.234375 -15.960938 15.003906 -16.707031 14.546875 -17.15625 C 14.097656 -17.613281 13.503906 -17.84375 12.765625 -17.84375 C 11.671875 -17.84375 10.75 -17.398438 10 -16.515625 L 10 -4.3125 C 10 -3.539062 10.164062 -2.984375 10.5 -2.640625 C 10.832031 -2.296875 11.398438 -2.125 12.203125 -2.125 C 12.203125 -1.320312 11.894531 -0.613281 11.28125 0 L 2.203125 0 C 1.554688 -0.632812 1.234375 -1.34375 1.234375 -2.125 C 2.035156 -2.125 2.609375 -2.296875 2.953125 -2.640625 C 3.304688 -2.984375 3.484375 -3.539062 3.484375 -4.3125 L 3.484375 -16 C 3.484375 -16.71875 3.28125 -17.226562 2.875 -17.53125 C 2.476562 -17.84375 1.785156 -18 0.796875 -18 L 0.796875 -19.796875 C 1.648438 -20.273438 2.859375 -20.710938 4.421875 -21.109375 C 5.984375 -21.515625 7.160156 -21.71875 7.953125 -21.71875 C 8.566406 -21.71875 9.039062 -21.523438 9.375 -21.140625 C 9.707031 -20.753906 9.898438 -20.023438 9.953125 -18.953125 C 10.648438 -19.804688 11.519531 -20.476562 12.5625 -20.96875 C 13.601562 -21.46875 14.773438 -21.71875 16.078125 -21.71875 C 17.992188 -21.71875 19.410156 -21.226562 20.328125 -20.25 C 21.253906 -19.28125 21.71875 -17.691406 21.71875 -15.484375 L 21.71875 -4.5625 C 21.71875 -3.25 22.359375 -2.472656 23.640625 -2.234375 Z M 23.6875 -1.078125 "/></g></g></g><g fill="#372642" fill-opacity="1"><g transform="translate(195.699725, 197.587487)"><g><path d="M 12.796875 -4.078125 C 14.472656 -4.078125 16.035156 -4.613281 17.484375 -5.6875 C 17.691406 -5.46875 17.875 -5.144531 18.03125 -4.71875 C 18.195312 -4.289062 18.28125 -3.914062 18.28125 -3.59375 C 18.28125 -3.113281 17.957031 -2.5625 17.3125 -1.9375 C 16.675781 -1.3125 15.789062 -0.769531 14.65625 -0.3125 C 13.519531 0.132812 12.25 0.359375 10.84375 0.359375 C 8.863281 0.359375 7.132812 -0.0664062 5.65625 -0.921875 C 4.175781 -1.773438 3.035156 -3.015625 2.234375 -4.640625 C 1.441406 -6.265625 1.046875 -8.1875 1.046875 -10.40625 C 1.046875 -12.664062 1.476562 -14.648438 2.34375 -16.359375 C 3.207031 -18.066406 4.398438 -19.378906 5.921875 -20.296875 C 7.441406 -21.222656 9.160156 -21.6875 11.078125 -21.6875 C 13.503906 -21.6875 15.4375 -20.976562 16.875 -19.5625 C 18.320312 -18.144531 19.046875 -16.1875 19.046875 -13.6875 C 19.046875 -12.507812 18.859375 -11.578125 18.484375 -10.890625 C 18.109375 -10.210938 17.441406 -9.875 16.484375 -9.875 L 7.84375 -9.875 C 8 -6.007812 9.648438 -4.078125 12.796875 -4.078125 Z M 10.84375 -18.921875 C 10.007812 -18.921875 9.3125 -18.457031 8.75 -17.53125 C 8.195312 -16.613281 7.894531 -15.078125 7.84375 -12.921875 L 11.875 -12.921875 C 12.300781 -12.921875 12.582031 -13.066406 12.71875 -13.359375 C 12.851562 -13.648438 12.921875 -14.101562 12.921875 -14.71875 C 12.921875 -16.289062 12.734375 -17.382812 12.359375 -18 C 11.984375 -18.613281 11.476562 -18.921875 10.84375 -18.921875 Z M 10.84375 -18.921875 "/></g></g></g><g fill="#372642" fill-opacity="1"><g transform="translate(215.777731, 197.587487)"><g><path d="M 33.515625 -4.3125 C 33.515625 -3.164062 34.171875 -2.472656 35.484375 -2.234375 L 35.484375 -1.078125 C 34.460938 -0.203125 32.820312 0.234375 30.5625 0.234375 C 29.4375 0.234375 28.550781 0.0820312 27.90625 -0.21875 C 27.269531 -0.53125 26.953125 -1.070312 26.953125 -1.84375 L 26.953125 -15.15625 C 26.953125 -16.007812 26.71875 -16.671875 26.25 -17.140625 C 25.789062 -17.609375 25.175781 -17.84375 24.40625 -17.84375 C 23.4375 -17.84375 22.609375 -17.519531 21.921875 -16.875 C 21.941406 -16.75 21.953125 -16.550781 21.953125 -16.28125 L 21.953125 -4.3125 C 21.953125 -3.539062 22.113281 -2.988281 22.4375 -2.65625 C 22.757812 -2.320312 23.265625 -2.15625 23.953125 -2.15625 C 23.953125 -1.351562 23.632812 -0.632812 23 0 L 14.484375 0 C 13.867188 -0.664062 13.5625 -1.382812 13.5625 -2.15625 C 14.226562 -2.15625 14.707031 -2.320312 15 -2.65625 C 15.289062 -2.988281 15.4375 -3.539062 15.4375 -4.3125 L 15.4375 -15.15625 C 15.4375 -15.988281 15.195312 -16.644531 14.71875 -17.125 C 14.238281 -17.601562 13.640625 -17.84375 12.921875 -17.84375 C 12.390625 -17.84375 11.851562 -17.710938 11.3125 -17.453125 C 10.78125 -17.203125 10.34375 -16.863281 10 -16.4375 L 10 -4.3125 C 10 -3.539062 10.140625 -2.988281 10.421875 -2.65625 C 10.703125 -2.320312 11.175781 -2.15625 11.84375 -2.15625 C 11.84375 -1.332031 11.519531 -0.613281 10.875 0 L 2.203125 0 C 1.554688 -0.632812 1.234375 -1.351562 1.234375 -2.15625 C 2.035156 -2.15625 2.609375 -2.320312 2.953125 -2.65625 C 3.304688 -2.988281 3.484375 -3.539062 3.484375 -4.3125 L 3.484375 -16.046875 C 3.484375 -16.765625 3.28125 -17.273438 2.875 -17.578125 C 2.476562 -17.890625 1.785156 -18.046875 0.796875 -18.046875 L 0.796875 -19.796875 C 1.648438 -20.304688 2.859375 -20.757812 4.421875 -21.15625 C 5.984375 -21.5625 7.160156 -21.765625 7.953125 -21.765625 C 8.546875 -21.765625 9.007812 -21.582031 9.34375 -21.21875 C 9.675781 -20.863281 9.894531 -20.191406 10 -19.203125 C 10.695312 -20.003906 11.578125 -20.628906 12.640625 -21.078125 C 13.703125 -21.535156 14.890625 -21.765625 16.203125 -21.765625 C 18.867188 -21.765625 20.601562 -20.867188 21.40625 -19.078125 C 22.09375 -19.929688 22.988281 -20.59375 24.09375 -21.0625 C 25.207031 -21.53125 26.441406 -21.765625 27.796875 -21.765625 C 29.691406 -21.765625 31.117188 -21.296875 32.078125 -20.359375 C 33.035156 -19.421875 33.515625 -18.0625 33.515625 -16.28125 Z M 33.515625 -4.3125 "/></g></g></g><g fill="#372642" fill-opacity="1"><g transform="translate(252.014129, 197.587487)"><g><path d="M 9.484375 -4.3125 C 9.484375 -3.539062 9.675781 -2.988281 10.0625 -2.65625 C 10.445312 -2.320312 11.039062 -2.15625 11.84375 -2.15625 C 11.84375 -1.332031 11.535156 -0.613281 10.921875 0 L 1.875 0 C 1.257812 -0.613281 0.953125 -1.332031 0.953125 -2.15625 C 1.753906 -2.15625 2.332031 -2.320312 2.6875 -2.65625 C 3.050781 -2.988281 3.234375 -3.554688 3.234375 -4.359375 L 3.234375 -15.953125 C 3.234375 -16.703125 3.050781 -17.238281 2.6875 -17.5625 C 2.332031 -17.882812 1.632812 -18.046875 0.59375 -18.046875 L 0.59375 -19.796875 C 1.238281 -20.203125 2.328125 -20.625 3.859375 -21.0625 C 5.390625 -21.5 6.691406 -21.71875 7.765625 -21.71875 C 8.378906 -21.71875 8.816406 -21.578125 9.078125 -21.296875 C 9.347656 -21.015625 9.484375 -20.539062 9.484375 -19.875 Z M 9.59375 -28.28125 C 9.59375 -27.132812 9.242188 -26.21875 8.546875 -25.53125 C 7.859375 -24.851562 6.941406 -24.515625 5.796875 -24.515625 C 4.648438 -24.515625 3.726562 -24.851562 3.03125 -25.53125 C 2.34375 -26.21875 2 -27.132812 2 -28.28125 C 2 -29.394531 2.34375 -30.300781 3.03125 -31 C 3.726562 -31.695312 4.648438 -32.046875 5.796875 -32.046875 C 6.941406 -32.046875 7.859375 -31.695312 8.546875 -31 C 9.242188 -30.300781 9.59375 -29.394531 9.59375 -28.28125 Z M 9.59375 -28.28125 "/></g></g></g><g fill="#372642" fill-opacity="1"><g transform="translate(264.492903, 197.587487)"><g><path d="M 10.640625 -2.71875 C 11.941406 -2.71875 12.96875 -2.914062 13.71875 -3.3125 C 14.46875 -3.71875 15.035156 -4.273438 15.421875 -4.984375 C 15.804688 -5.691406 16.144531 -6.644531 16.4375 -7.84375 L 19.4375 -7.84375 L 19.4375 -6.4375 C 19.4375 -5.082031 19.367188 -3.875 19.234375 -2.8125 C 19.109375 -1.757812 18.832031 -0.820312 18.40625 0 L 1.4375 0 L 0.3125 -1.515625 L 10.234375 -16.40625 L 12.15625 -18.515625 L 8.796875 -18.515625 C 7.546875 -18.515625 6.640625 -18.164062 6.078125 -17.46875 C 5.515625 -16.78125 5.234375 -15.640625 5.234375 -14.046875 L 2.046875 -14.046875 C 1.742188 -14.867188 1.5625 -15.765625 1.5 -16.734375 C 1.4375 -17.710938 1.390625 -19.203125 1.359375 -21.203125 L 18.359375 -21.203125 L 19.5625 -19.5625 L 10.40625 -5.234375 L 8 -2.71875 Z M 10.640625 -2.71875 "/></g></g></g><g fill="#372642" fill-opacity="1"><g transform="translate(284.770871, 197.587487)"><g><path d="M 12.796875 -4.078125 C 14.472656 -4.078125 16.035156 -4.613281 17.484375 -5.6875 C 17.691406 -5.46875 17.875 -5.144531 18.03125 -4.71875 C 18.195312 -4.289062 18.28125 -3.914062 18.28125 -3.59375 C 18.28125 -3.113281 17.957031 -2.5625 17.3125 -1.9375 C 16.675781 -1.3125 15.789062 -0.769531 14.65625 -0.3125 C 13.519531 0.132812 12.25 0.359375 10.84375 0.359375 C 8.863281 0.359375 7.132812 -0.0664062 5.65625 -0.921875 C 4.175781 -1.773438 3.035156 -3.015625 2.234375 -4.640625 C 1.441406 -6.265625 1.046875 -8.1875 1.046875 -10.40625 C 1.046875 -12.664062 1.476562 -14.648438 2.34375 -16.359375 C 3.207031 -18.066406 4.398438 -19.378906 5.921875 -20.296875 C 7.441406 -21.222656 9.160156 -21.6875 11.078125 -21.6875 C 13.503906 -21.6875 15.4375 -20.976562 16.875 -19.5625 C 18.320312 -18.144531 19.046875 -16.1875 19.046875 -13.6875 C 19.046875 -12.507812 18.859375 -11.578125 18.484375 -10.890625 C 18.109375 -10.210938 17.441406 -9.875 16.484375 -9.875 L 7.84375 -9.875 C 8 -6.007812 9.648438 -4.078125 12.796875 -4.078125 Z M 10.84375 -18.921875 C 10.007812 -18.921875 9.3125 -18.457031 8.75 -17.53125 C 8.195312 -16.613281 7.894531 -15.078125 7.84375 -12.921875 L 11.875 -12.921875 C 12.300781 -12.921875 12.582031 -13.066406 12.71875 -13.359375 C 12.851562 -13.648438 12.921875 -14.101562 12.921875 -14.71875 C 12.921875 -16.289062 12.734375 -17.382812 12.359375 -18 C 11.984375 -18.613281 11.476562 -18.921875 10.84375 -18.921875 Z M 10.84375 -18.921875 "/></g></g></g><g fill="#372642" fill-opacity="1"><g transform="translate(138.320151, 253.087483)"><g><path d="M 24 -10.921875 C 24 -7.210938 23.125 -4.378906 21.375 -2.421875 C 19.632812 -0.460938 17.039062 0.515625 13.59375 0.515625 C 10.132812 0.515625 7.414062 -0.425781 5.4375 -2.3125 C 3.46875 -4.207031 2.484375 -6.941406 2.484375 -10.515625 L 2.484375 -23.40625 C 2.484375 -24.125 2.296875 -24.632812 1.921875 -24.9375 C 1.546875 -25.25 0.90625 -25.40625 0 -25.40625 C 0 -26.414062 0.304688 -27.253906 0.921875 -27.921875 L 10.921875 -27.921875 C 11.535156 -27.253906 11.84375 -26.414062 11.84375 -25.40625 C 10.9375 -25.40625 10.296875 -25.25 9.921875 -24.9375 C 9.546875 -24.632812 9.359375 -24.125 9.359375 -23.40625 L 9.359375 -9.6875 C 9.359375 -7.757812 9.765625 -6.210938 10.578125 -5.046875 C 11.390625 -3.890625 12.632812 -3.3125 14.3125 -3.3125 C 16 -3.3125 17.222656 -3.835938 17.984375 -4.890625 C 18.742188 -5.953125 19.125 -7.335938 19.125 -9.046875 L 19.125 -23.40625 C 19.125 -24.125 18.898438 -24.632812 18.453125 -24.9375 C 18.015625 -25.25 17.289062 -25.40625 16.28125 -25.40625 C 16.28125 -26.46875 16.570312 -27.304688 17.15625 -27.921875 L 25.953125 -27.921875 C 26.546875 -27.253906 26.84375 -26.414062 26.84375 -25.40625 C 25.820312 -25.40625 25.09375 -25.25 24.65625 -24.9375 C 24.21875 -24.632812 24 -24.125 24 -23.40625 Z M 24 -10.921875 "/></g></g></g><g fill="#372642" fill-opacity="1"><g transform="translate(165.157484, 253.087483)"><g><path d="M 10.796875 -4.765625 C 14.234375 -4.523438 16.800781 -3.90625 18.5 -2.90625 C 20.195312 -1.90625 21.046875 -0.429688 21.046875 1.515625 C 21.046875 2.878906 20.535156 4.125 19.515625 5.25 C 18.503906 6.382812 17.164062 7.28125 15.5 7.9375 C 13.832031 8.59375 12.050781 8.921875 10.15625 8.921875 C 6.988281 8.921875 4.617188 8.351562 3.046875 7.21875 C 1.472656 6.082031 0.6875 4.570312 0.6875 2.6875 C 0.6875 1.695312 1.007812 0.796875 1.65625 -0.015625 C 2.3125 -0.828125 3.253906 -1.4375 4.484375 -1.84375 C 3.953125 -2.21875 3.597656 -2.65625 3.421875 -3.15625 C 3.242188 -3.664062 3.15625 -4.296875 3.15625 -5.046875 C 3.15625 -5.523438 3.34375 -6.007812 3.71875 -6.5 C 4.09375 -6.988281 4.613281 -7.351562 5.28125 -7.59375 C 4.03125 -8.257812 3.050781 -9.179688 2.34375 -10.359375 C 1.632812 -11.535156 1.28125 -12.800781 1.28125 -14.15625 C 1.28125 -15.539062 1.617188 -16.785156 2.296875 -17.890625 C 2.972656 -19.003906 3.972656 -19.882812 5.296875 -20.53125 C 6.617188 -21.1875 8.226562 -21.515625 10.125 -21.515625 L 10.15625 -21.515625 C 11.113281 -21.515625 11.941406 -21.445312 12.640625 -21.3125 C 15.148438 -21.3125 16.875 -21.34375 17.8125 -21.40625 C 18.757812 -21.476562 19.675781 -21.582031 20.5625 -21.71875 C 20.820312 -21.71875 21.023438 -21.535156 21.171875 -21.171875 C 21.328125 -20.816406 21.40625 -20.441406 21.40625 -20.046875 C 21.40625 -18.835938 20.882812 -18.234375 19.84375 -18.234375 C 19.601562 -18.234375 18.867188 -18.472656 17.640625 -18.953125 C 17.421875 -19.066406 17.101562 -19.203125 16.6875 -19.359375 C 17.5625 -18.640625 18.238281 -17.816406 18.71875 -16.890625 C 19.195312 -15.972656 19.4375 -15.085938 19.4375 -14.234375 C 19.4375 -11.753906 18.585938 -9.851562 16.890625 -8.53125 C 15.203125 -7.21875 12.835938 -6.5625 9.796875 -6.5625 C 9.054688 -6.5625 8.21875 -6.65625 7.28125 -6.84375 L 7.28125 -6.71875 C 7.28125 -6.082031 7.53125 -5.625 8.03125 -5.34375 C 8.539062 -5.0625 9.460938 -4.867188 10.796875 -4.765625 Z M 10.484375 -18.875 C 9.628906 -18.875 9.019531 -18.429688 8.65625 -17.546875 C 8.300781 -16.671875 8.125 -15.394531 8.125 -13.71875 C 8.125 -10.707031 8.910156 -9.203125 10.484375 -9.203125 C 11.335938 -9.203125 11.945312 -9.65625 12.3125 -10.5625 C 12.6875 -11.46875 12.875 -12.851562 12.875 -14.71875 C 12.875 -16.1875 12.675781 -17.242188 12.28125 -17.890625 C 11.882812 -18.546875 11.285156 -18.875 10.484375 -18.875 Z M 11.484375 5.640625 C 12.703125 5.640625 13.601562 5.34375 14.1875 4.75 C 14.78125 4.164062 15.078125 3.4375 15.078125 2.5625 C 15.078125 1.757812 14.585938 1.164062 13.609375 0.78125 C 12.640625 0.394531 11.117188 0.03125 9.046875 -0.3125 L 7.234375 -0.6875 C 6.890625 -0.09375 6.71875 0.679688 6.71875 1.640625 C 6.71875 2.867188 7.085938 3.84375 7.828125 4.5625 C 8.578125 5.28125 9.796875 5.640625 11.484375 5.640625 Z M 3.796875 -31.875 C 3.878906 -32.113281 4.078125 -32.304688 4.390625 -32.453125 C 4.710938 -32.609375 5.078125 -32.6875 5.484375 -32.6875 C 5.859375 -32.6875 6.222656 -32.628906 6.578125 -32.515625 C 6.941406 -32.410156 7.1875 -32.253906 7.3125 -32.046875 C 7.3125 -31.078125 7.640625 -30.238281 8.296875 -29.53125 C 8.953125 -28.832031 9.851562 -28.484375 11 -28.484375 C 12.144531 -28.484375 13.046875 -28.832031 13.703125 -29.53125 C 14.359375 -30.238281 14.6875 -31.078125 14.6875 -32.046875 C 14.8125 -32.253906 15.050781 -32.410156 15.40625 -32.515625 C 15.769531 -32.628906 16.140625 -32.6875 16.515625 -32.6875 C 16.941406 -32.6875 17.304688 -32.609375 17.609375 -32.453125 C 17.921875 -32.304688 18.117188 -32.113281 18.203125 -31.875 C 18.203125 -29.632812 17.550781 -27.859375 16.25 -26.546875 C 14.957031 -25.242188 13.207031 -24.59375 11 -24.59375 C 8.789062 -24.59375 7.035156 -25.242188 5.734375 -26.546875 C 4.441406 -27.859375 3.796875 -29.632812 3.796875 -31.875 Z M 3.796875 -31.875 "/></g></g></g><g fill="#372642" fill-opacity="1"><g transform="translate(186.315377, 253.087483)"><g><path d="M 14.71875 -21.71875 C 15.914062 -21.71875 16.796875 -21.410156 17.359375 -20.796875 C 17.921875 -20.179688 18.203125 -19.34375 18.203125 -18.28125 C 18.203125 -17.132812 17.898438 -16.203125 17.296875 -15.484375 C 16.703125 -14.765625 15.894531 -14.40625 14.875 -14.40625 C 14 -14.40625 13.285156 -14.65625 12.734375 -15.15625 C 12.191406 -15.664062 11.921875 -16.265625 11.921875 -16.953125 C 11.921875 -17.378906 11.960938 -17.710938 12.046875 -17.953125 C 11.078125 -17.710938 10.257812 -17.300781 9.59375 -16.71875 L 9.59375 -4.71875 C 9.59375 -4.050781 9.6875 -3.546875 9.875 -3.203125 C 10.0625 -2.859375 10.425781 -2.597656 10.96875 -2.421875 C 11.519531 -2.242188 12.34375 -2.15625 13.4375 -2.15625 C 13.4375 -1.675781 13.382812 -1.269531 13.28125 -0.9375 C 13.175781 -0.601562 12.976562 -0.289062 12.6875 0 L 2 0 C 1.382812 -0.613281 1.078125 -1.332031 1.078125 -2.15625 C 1.847656 -2.15625 2.398438 -2.320312 2.734375 -2.65625 C 3.066406 -2.988281 3.234375 -3.554688 3.234375 -4.359375 L 3.234375 -15.921875 C 3.234375 -16.640625 3.039062 -17.144531 2.65625 -17.4375 C 2.269531 -17.726562 1.582031 -17.875 0.59375 -17.875 L 0.59375 -19.6875 C 1.476562 -20.1875 2.644531 -20.628906 4.09375 -21.015625 C 5.550781 -21.398438 6.679688 -21.59375 7.484375 -21.59375 C 8.117188 -21.59375 8.566406 -21.363281 8.828125 -20.90625 C 9.097656 -20.457031 9.234375 -19.554688 9.234375 -18.203125 C 9.710938 -19.109375 10.472656 -19.921875 11.515625 -20.640625 C 12.554688 -21.359375 13.625 -21.71875 14.71875 -21.71875 Z M 14.71875 -21.71875 "/></g></g></g><g fill="#372642" fill-opacity="1"><g transform="translate(204.313591, 253.087483)"><g><path d="M 0.875 -5.640625 C 0.875 -7.421875 1.460938 -8.832031 2.640625 -9.875 C 3.816406 -10.914062 5.550781 -11.4375 7.84375 -11.4375 C 8.644531 -11.4375 9.460938 -11.351562 10.296875 -11.1875 C 11.140625 -11.03125 11.828125 -10.820312 12.359375 -10.5625 L 12.359375 -15.875 C 12.359375 -16.945312 12.09375 -17.710938 11.5625 -18.171875 C 11.03125 -18.640625 10.3125 -18.875 9.40625 -18.875 C 8.519531 -18.875 7.796875 -18.660156 7.234375 -18.234375 C 7.742188 -18.078125 8.125 -17.804688 8.375 -17.421875 C 8.632812 -17.035156 8.765625 -16.601562 8.765625 -16.125 C 8.765625 -15.269531 8.457031 -14.570312 7.84375 -14.03125 C 7.226562 -13.5 6.453125 -13.234375 5.515625 -13.234375 C 4.503906 -13.234375 3.691406 -13.523438 3.078125 -14.109375 C 2.460938 -14.703125 2.15625 -15.46875 2.15625 -16.40625 C 2.15625 -17.332031 2.472656 -18.207031 3.109375 -19.03125 C 3.753906 -19.863281 4.738281 -20.53125 6.0625 -21.03125 C 7.382812 -21.539062 9.015625 -21.796875 10.953125 -21.796875 C 13.597656 -21.796875 15.597656 -21.253906 16.953125 -20.171875 C 18.316406 -19.097656 19 -17.519531 19 -15.4375 L 19 -4.84375 C 19 -3.5625 19.613281 -2.785156 20.84375 -2.515625 L 20.84375 -1.234375 C 20.488281 -0.753906 19.910156 -0.378906 19.109375 -0.109375 C 18.316406 0.148438 17.507812 0.28125 16.6875 0.28125 C 14.863281 0.28125 13.582031 -0.34375 12.84375 -1.59375 C 12.226562 -1.0625 11.476562 -0.613281 10.59375 -0.25 C 9.71875 0.101562 8.71875 0.28125 7.59375 0.28125 C 5.59375 0.28125 3.972656 -0.269531 2.734375 -1.375 C 1.492188 -2.488281 0.875 -3.910156 0.875 -5.640625 Z M 12.359375 -7.484375 C 12.066406 -7.671875 11.710938 -7.828125 11.296875 -7.953125 C 10.890625 -8.085938 10.5 -8.15625 10.125 -8.15625 C 9.375 -8.15625 8.757812 -7.921875 8.28125 -7.453125 C 7.800781 -6.992188 7.5625 -6.320312 7.5625 -5.4375 C 7.5625 -4.71875 7.800781 -4.125 8.28125 -3.65625 C 8.757812 -3.1875 9.398438 -2.953125 10.203125 -2.953125 C 10.597656 -2.953125 10.988281 -3.007812 11.375 -3.125 C 11.757812 -3.25 12.085938 -3.40625 12.359375 -3.59375 Z M 12.359375 -7.484375 "/></g></g></g><g fill="#372642" fill-opacity="1"><g transform="translate(225.79146, 253.087483)"><g><path d="M 3.765625 -12.3125 L 1.796875 -27.953125 C 1.773438 -28.171875 1.765625 -28.453125 1.765625 -28.796875 C 1.765625 -30.609375 2.695312 -31.515625 4.5625 -31.515625 L 6.28125 -31.515625 C 8.175781 -31.515625 9.125 -30.609375 9.125 -28.796875 C 9.125 -28.660156 9.097656 -28.378906 9.046875 -27.953125 L 7.046875 -12.3125 Z M 9.484375 -3.4375 C 9.484375 -2.269531 9.109375 -1.316406 8.359375 -0.578125 C 7.609375 0.148438 6.625 0.515625 5.40625 0.515625 C 4.195312 0.515625 3.226562 0.148438 2.5 -0.578125 C 1.769531 -1.316406 1.40625 -2.269531 1.40625 -3.4375 C 1.40625 -4.632812 1.769531 -5.59375 2.5 -6.3125 C 3.226562 -7.039062 4.195312 -7.40625 5.40625 -7.40625 C 6.625 -7.40625 7.609375 -7.039062 8.359375 -6.3125 C 9.109375 -5.59375 9.484375 -4.632812 9.484375 -3.4375 Z M 9.484375 -3.4375 "/></g></g></g><path fill="#372642" d="M 129.722656 298.046875 L 245.28125 298.046875 L 245.28125 299.546875 L 129.722656 299.546875 Z M 129.722656 298.046875 " fill-opacity="1" fill-rule="nonzero"/><g fill="#372642" fill-opacity="1"><g transform="translate(129.72187, 296.546114)"><g><path d="M 0.34375 -11.203125 L 5.328125 -11.203125 L 5.328125 -10.890625 L 4.40625 -10.890625 L 4.40625 -5.9375 L 7.578125 -5.9375 L 7.578125 -10.890625 L 6.640625 -10.890625 L 6.640625 -11.203125 L 11.640625 -11.203125 L 11.640625 -10.890625 L 10.703125 -10.890625 L 10.703125 -0.296875 L 11.640625 -0.296875 L 11.640625 0 L 6.640625 0 L 6.640625 -0.296875 L 7.578125 -0.296875 L 7.578125 -5.515625 L 4.40625 -5.515625 L 4.40625 -0.296875 L 5.328125 -0.296875 L 5.328125 0 L 0.34375 0 L 0.34375 -0.296875 L 1.28125 -0.296875 L 1.28125 -10.890625 L 0.34375 -10.890625 Z M 0.34375 -11.203125 "/></g></g></g><g fill="#372642" fill-opacity="1"><g transform="translate(141.702987, 296.546114)"><g><path d="M 4 -3.765625 L 4.46875 -3.765625 L 4.46875 -4.984375 C 4.46875 -6.003906 4.410156 -6.6875 4.296875 -7.03125 C 4.179688 -7.375 3.960938 -7.546875 3.640625 -7.546875 C 3.453125 -7.546875 3.28125 -7.492188 3.125 -7.390625 C 2.96875 -7.296875 2.890625 -7.160156 2.890625 -6.984375 C 2.890625 -6.804688 2.921875 -6.628906 2.984375 -6.453125 L 3.390625 -6.453125 C 3.472656 -6.222656 3.515625 -5.953125 3.515625 -5.640625 C 3.515625 -5.328125 3.378906 -5.054688 3.109375 -4.828125 C 2.847656 -4.597656 2.515625 -4.484375 2.109375 -4.484375 C 1.191406 -4.484375 0.734375 -4.925781 0.734375 -5.8125 C 0.734375 -7.125 1.847656 -7.78125 4.078125 -7.78125 C 5.347656 -7.78125 6.222656 -7.5625 6.703125 -7.125 C 7.191406 -6.695312 7.4375 -5.90625 7.4375 -4.75 L 7.4375 -1.5 C 7.4375 -0.945312 7.59375 -0.671875 7.90625 -0.671875 C 8.269531 -0.671875 8.484375 -1.21875 8.546875 -2.3125 L 8.78125 -2.296875 C 8.738281 -1.359375 8.5625 -0.710938 8.25 -0.359375 C 7.945312 -0.015625 7.441406 0.15625 6.734375 0.15625 C 5.453125 0.15625 4.71875 -0.238281 4.53125 -1.03125 C 4.382812 -0.625 4.171875 -0.320312 3.890625 -0.125 C 3.617188 0.0625 3.21875 0.15625 2.6875 0.15625 C 1.101562 0.15625 0.3125 -0.488281 0.3125 -1.78125 C 0.3125 -2.53125 0.613281 -3.046875 1.21875 -3.328125 C 1.820312 -3.617188 2.75 -3.765625 4 -3.765625 Z M 3.359375 -1.796875 C 3.359375 -1.234375 3.382812 -0.875 3.4375 -0.71875 C 3.5 -0.5625 3.613281 -0.484375 3.78125 -0.484375 C 3.945312 -0.484375 4.101562 -0.617188 4.25 -0.890625 C 4.394531 -1.160156 4.46875 -1.535156 4.46875 -2.015625 L 4.46875 -3.5 L 4.359375 -3.5 C 3.691406 -3.5 3.359375 -3.015625 3.359375 -2.046875 Z M 3.359375 -1.796875 "/></g></g></g><g fill="#372642" fill-opacity="1"><g transform="translate(150.484873, 296.546114)"><g><path d="M 5.5 -7.171875 C 5.101562 -7.171875 4.753906 -6.910156 4.453125 -6.390625 C 4.160156 -5.878906 4.015625 -5.273438 4.015625 -4.578125 L 4.015625 -0.28125 L 5.15625 -0.28125 L 5.15625 0 L 0.15625 0 L 0.15625 -0.28125 L 1.046875 -0.28125 L 1.046875 -7.328125 L 0.15625 -7.328125 L 0.15625 -7.609375 L 4.015625 -7.609375 L 4.015625 -6.078125 C 4.148438 -6.617188 4.414062 -7.035156 4.8125 -7.328125 C 5.207031 -7.628906 5.65625 -7.78125 6.15625 -7.78125 C 6.65625 -7.78125 7.0625 -7.632812 7.375 -7.34375 C 7.695312 -7.0625 7.859375 -6.660156 7.859375 -6.140625 C 7.859375 -5.628906 7.738281 -5.234375 7.5 -4.953125 C 7.269531 -4.679688 6.910156 -4.546875 6.421875 -4.546875 C 5.941406 -4.546875 5.585938 -4.703125 5.359375 -5.015625 C 5.128906 -5.335938 5.097656 -5.785156 5.265625 -6.359375 L 5.84375 -6.359375 C 6.101562 -6.898438 5.988281 -7.171875 5.5 -7.171875 Z M 5.5 -7.171875 "/></g></g></g><g fill="#372642" fill-opacity="1"><g transform="translate(158.402971, 296.546114)"><g><path d="M 2.5 -8.71875 C 1.9375 -8.71875 1.535156 -8.859375 1.296875 -9.140625 C 1.054688 -9.429688 0.9375 -9.789062 0.9375 -10.21875 C 0.9375 -10.644531 1.066406 -11 1.328125 -11.28125 C 1.597656 -11.5625 2 -11.703125 2.53125 -11.703125 C 3.0625 -11.703125 3.460938 -11.570312 3.734375 -11.3125 C 4.015625 -11.0625 4.15625 -10.703125 4.15625 -10.234375 C 4.15625 -9.773438 4.019531 -9.40625 3.75 -9.125 C 3.488281 -8.851562 3.070312 -8.71875 2.5 -8.71875 Z M 0.09375 -7.609375 L 4.015625 -7.609375 L 4.015625 -0.28125 L 4.90625 -0.28125 L 4.90625 0 L 0.15625 0 L 0.15625 -0.28125 L 1.046875 -0.28125 L 1.046875 -7.328125 L 0.09375 -7.328125 Z M 0.09375 -7.609375 "/></g></g></g><g fill="#372642" fill-opacity="1"><g transform="translate(163.473756, 296.546114)"><g><path d="M 0.953125 -2.28125 L 0.953125 -7.328125 L 0.078125 -7.328125 L 0.078125 -7.609375 L 0.953125 -7.609375 L 0.953125 -9.6875 L 3.9375 -10.421875 L 3.9375 -7.609375 L 6.015625 -7.609375 L 6.015625 -7.328125 L 3.9375 -7.328125 L 3.9375 -1.9375 C 3.9375 -1.4375 3.984375 -1.066406 4.078125 -0.828125 C 4.179688 -0.597656 4.394531 -0.484375 4.71875 -0.484375 C 5.039062 -0.484375 5.320312 -0.640625 5.5625 -0.953125 C 5.800781 -1.273438 5.957031 -1.710938 6.03125 -2.265625 L 6.296875 -2.234375 C 6.210938 -1.503906 5.976562 -0.921875 5.59375 -0.484375 C 5.21875 -0.0546875 4.585938 0.15625 3.703125 0.15625 C 2.816406 0.15625 2.132812 -0.015625 1.65625 -0.359375 C 1.1875 -0.710938 0.953125 -1.351562 0.953125 -2.28125 Z M 0.953125 -2.28125 "/></g></g></g><g fill="#372642" fill-opacity="1"><g transform="translate(169.776246, 296.546114)"><g><path d="M 4 -3.765625 L 4.46875 -3.765625 L 4.46875 -4.984375 C 4.46875 -6.003906 4.410156 -6.6875 4.296875 -7.03125 C 4.179688 -7.375 3.960938 -7.546875 3.640625 -7.546875 C 3.453125 -7.546875 3.28125 -7.492188 3.125 -7.390625 C 2.96875 -7.296875 2.890625 -7.160156 2.890625 -6.984375 C 2.890625 -6.804688 2.921875 -6.628906 2.984375 -6.453125 L 3.390625 -6.453125 C 3.472656 -6.222656 3.515625 -5.953125 3.515625 -5.640625 C 3.515625 -5.328125 3.378906 -5.054688 3.109375 -4.828125 C 2.847656 -4.597656 2.515625 -4.484375 2.109375 -4.484375 C 1.191406 -4.484375 0.734375 -4.925781 0.734375 -5.8125 C 0.734375 -7.125 1.847656 -7.78125 4.078125 -7.78125 C 5.347656 -7.78125 6.222656 -7.5625 6.703125 -7.125 C 7.191406 -6.695312 7.4375 -5.90625 7.4375 -4.75 L 7.4375 -1.5 C 7.4375 -0.945312 7.59375 -0.671875 7.90625 -0.671875 C 8.269531 -0.671875 8.484375 -1.21875 8.546875 -2.3125 L 8.78125 -2.296875 C 8.738281 -1.359375 8.5625 -0.710938 8.25 -0.359375 C 7.945312 -0.015625 7.441406 0.15625 6.734375 0.15625 C 5.453125 0.15625 4.71875 -0.238281 4.53125 -1.03125 C 4.382812 -0.625 4.171875 -0.320312 3.890625 -0.125 C 3.617188 0.0625 3.21875 0.15625 2.6875 0.15625 C 1.101562 0.15625 0.3125 -0.488281 0.3125 -1.78125 C 0.3125 -2.53125 0.613281 -3.046875 1.21875 -3.328125 C 1.820312 -3.617188 2.75 -3.765625 4 -3.765625 Z M 3.359375 -1.796875 C 3.359375 -1.234375 3.382812 -0.875 3.4375 -0.71875 C 3.5 -0.5625 3.613281 -0.484375 3.78125 -0.484375 C 3.945312 -0.484375 4.101562 -0.617188 4.25 -0.890625 C 4.394531 -1.160156 4.46875 -1.535156 4.46875 -2.015625 L 4.46875 -3.5 L 4.359375 -3.5 C 3.691406 -3.5 3.359375 -3.015625 3.359375 -2.046875 Z M 3.359375 -1.796875 "/></g></g></g><g fill="#372642" fill-opacity="1"><g transform="translate(178.558133, 296.546114)"><g/></g></g><g fill="#372642" fill-opacity="1"><g transform="translate(181.437443, 296.546114)"><g><path d="M 0.40625 -11.203125 L 5.28125 -11.203125 L 5.28125 -10.890625 L 4.40625 -10.890625 L 4.40625 -5.84375 L 4.53125 -5.875 L 9.046875 -10.890625 L 7.78125 -10.890625 L 7.78125 -11.203125 L 10.578125 -11.203125 L 10.578125 -10.890625 L 9.609375 -10.890625 L 6.859375 -7.828125 L 10.703125 -0.296875 L 11.5625 -0.296875 L 11.5625 0 L 6.4375 0 L 6.4375 -0.296875 L 7.1875 -0.296875 L 4.546875 -5.40625 L 4.40625 -5.375 L 4.40625 -0.296875 L 5.28125 -0.296875 L 5.28125 0 L 0.40625 0 L 0.40625 -0.296875 L 1.28125 -0.296875 L 1.28125 -10.890625 L 0.40625 -10.890625 Z M 0.40625 -11.203125 "/></g></g></g><g fill="#372642" fill-opacity="1"><g transform="translate(193.178623, 296.546114)"><g><path d="M 5.328125 -3.15625 L 5.328125 -4.515625 C 5.328125 -5.546875 5.269531 -6.296875 5.15625 -6.765625 C 5.039062 -7.242188 4.785156 -7.484375 4.390625 -7.484375 C 4.148438 -7.484375 3.957031 -7.414062 3.8125 -7.28125 C 3.664062 -7.15625 3.5625 -6.9375 3.5 -6.625 C 3.40625 -6.144531 3.359375 -5.414062 3.359375 -4.4375 L 3.359375 -3.1875 C 3.359375 -2.019531 3.390625 -1.316406 3.453125 -1.078125 C 3.523438 -0.847656 3.601562 -0.660156 3.6875 -0.515625 C 3.800781 -0.253906 4.03125 -0.125 4.375 -0.125 C 4.78125 -0.125 5.050781 -0.363281 5.1875 -0.84375 C 5.28125 -1.1875 5.328125 -1.957031 5.328125 -3.15625 Z M 4.34375 0.15625 C 3.007812 0.15625 2 -0.179688 1.3125 -0.859375 C 0.625 -1.546875 0.28125 -2.523438 0.28125 -3.796875 C 0.28125 -5.078125 0.644531 -6.0625 1.375 -6.75 C 2.113281 -7.4375 3.144531 -7.78125 4.46875 -7.78125 C 5.789062 -7.78125 6.773438 -7.460938 7.421875 -6.828125 C 8.078125 -6.191406 8.40625 -5.222656 8.40625 -3.921875 C 8.40625 -1.203125 7.050781 0.15625 4.34375 0.15625 Z M 4.34375 0.15625 "/></g></g></g><g fill="#372642" fill-opacity="1"><g transform="translate(201.864539, 296.546114)"><g><path d="M 0.1875 -7.609375 L 4.046875 -7.609375 L 4.046875 -6.140625 C 4.210938 -6.628906 4.472656 -7.023438 4.828125 -7.328125 C 5.179688 -7.628906 5.71875 -7.78125 6.4375 -7.78125 C 8.082031 -7.78125 8.90625 -6.890625 8.90625 -5.109375 L 8.90625 -0.28125 L 9.8125 -0.28125 L 9.8125 0 L 5.28125 0 L 5.28125 -0.28125 L 5.9375 -0.28125 L 5.9375 -5.484375 C 5.9375 -6.128906 5.894531 -6.546875 5.8125 -6.734375 C 5.726562 -6.921875 5.570312 -7.015625 5.34375 -7.015625 C 5 -7.015625 4.695312 -6.785156 4.4375 -6.328125 C 4.175781 -5.878906 4.046875 -5.335938 4.046875 -4.703125 L 4.046875 -0.28125 L 4.734375 -0.28125 L 4.734375 0 L 0.1875 0 L 0.1875 -0.28125 L 1.078125 -0.28125 L 1.078125 -7.328125 L 0.1875 -7.328125 Z M 0.1875 -7.609375 "/></g></g></g><g fill="#372642" fill-opacity="1"><g transform="translate(211.718176, 296.546114)"><g><path d="M 9.515625 0 L 5.875 0 L 5.703125 -1.171875 C 5.523438 -0.742188 5.269531 -0.414062 4.9375 -0.1875 C 4.601562 0.0390625 4.101562 0.15625 3.4375 0.15625 C 1.78125 0.15625 0.953125 -0.734375 0.953125 -2.515625 L 0.953125 -7.328125 L 0.0625 -7.328125 L 0.0625 -7.609375 L 3.9375 -7.609375 L 3.9375 -2.125 C 3.9375 -1.488281 3.976562 -1.066406 4.0625 -0.859375 C 4.15625 -0.660156 4.335938 -0.5625 4.609375 -0.5625 C 4.890625 -0.5625 5.132812 -0.722656 5.34375 -1.046875 C 5.550781 -1.378906 5.65625 -1.84375 5.65625 -2.4375 L 5.65625 -7.328125 L 4.921875 -7.328125 L 4.921875 -7.609375 L 8.640625 -7.609375 L 8.640625 -0.28125 L 9.515625 -0.28125 Z M 9.515625 0 "/></g></g></g><g fill="#372642" fill-opacity="1"><g transform="translate(221.395849, 296.546114)"><g><path d="M 0.15625 -7.609375 L 4.015625 -7.609375 L 4.015625 -6.140625 C 4.367188 -7.234375 5.144531 -7.78125 6.34375 -7.78125 C 7.539062 -7.78125 8.269531 -7.203125 8.53125 -6.046875 C 8.90625 -7.203125 9.6875 -7.78125 10.875 -7.78125 C 12.445312 -7.78125 13.234375 -6.890625 13.234375 -5.109375 L 13.234375 -0.28125 L 14.125 -0.28125 L 14.125 0 L 9.703125 0 L 9.703125 -0.28125 L 10.25 -0.28125 L 10.25 -5.484375 C 10.25 -6.296875 10.179688 -6.769531 10.046875 -6.90625 C 9.984375 -6.976562 9.898438 -7.015625 9.796875 -7.015625 C 9.484375 -7.015625 9.207031 -6.804688 8.96875 -6.390625 C 8.738281 -5.972656 8.625 -5.441406 8.625 -4.796875 L 8.625 -0.28125 L 9.203125 -0.28125 L 9.203125 0 L 5.09375 0 L 5.09375 -0.28125 L 5.640625 -0.28125 L 5.640625 -5.484375 C 5.640625 -6.296875 5.570312 -6.769531 5.4375 -6.90625 C 5.375 -6.976562 5.289062 -7.015625 5.1875 -7.015625 C 4.882812 -7.015625 4.613281 -6.785156 4.375 -6.328125 C 4.132812 -5.867188 4.015625 -5.328125 4.015625 -4.703125 L 4.015625 -0.28125 L 4.59375 -0.28125 L 4.59375 0 L 0.15625 0 L 0.15625 -0.28125 L 1.046875 -0.28125 L 1.046875 -7.328125 L 0.15625 -7.328125 Z M 0.15625 -7.609375 "/></g></g></g><g fill="#372642" fill-opacity="1"><g transform="translate(235.600438, 296.546114)"><g><path d="M 9.515625 0 L 5.875 0 L 5.703125 -1.171875 C 5.523438 -0.742188 5.269531 -0.414062 4.9375 -0.1875 C 4.601562 0.0390625 4.101562 0.15625 3.4375 0.15625 C 1.78125 0.15625 0.953125 -0.734375 0.953125 -2.515625 L 0.953125 -7.328125 L 0.0625 -7.328125 L 0.0625 -7.609375 L 3.9375 -7.609375 L 3.9375 -2.125 C 3.9375 -1.488281 3.976562 -1.066406 4.0625 -0.859375 C 4.15625 -0.660156 4.335938 -0.5625 4.609375 -0.5625 C 4.890625 -0.5625 5.132812 -0.722656 5.34375 -1.046875 C 5.550781 -1.378906 5.65625 -1.84375 5.65625 -2.4375 L 5.65625 -7.328125 L 4.921875 -7.328125 L 4.921875 -7.609375 L 8.640625 -7.609375 L 8.640625 -0.28125 L 9.515625 -0.28125 Z M 9.515625 0 "/></g></g></g><g clip-path="url(#d8a834ab53)"><path fill="#e1afd1" d="M 229.195312 147.332031 C 226.753906 147.332031 224.375 147.332031 222.054688 147.320312 C 222.003906 144.039062 222.066406 141.019531 222.113281 138.09375 C 222.136719 136.601562 222.160156 135.074219 222.183594 133.5 C 222.195312 133.414062 222.195312 133.332031 222.183594 133.25 C 222.195312 131.578125 222.195312 129.839844 222.160156 128.027344 C 222.160156 127.800781 222.160156 127.554688 222.160156 127.28125 C 222.171875 125.929688 222.195312 124.082031 221.378906 122.507812 C 220.714844 121.230469 219.613281 120.351562 218.097656 119.867188 C 218.714844 119.039062 219.058594 118.03125 219.117188 116.90625 C 219.175781 115.746094 218.914062 114.527344 218.371094 113.378906 C 217.410156 111.339844 214.984375 109.339844 212.589844 108.640625 C 212.28125 108.546875 211.953125 108.628906 211.714844 108.855469 C 211.488281 109.078125 211.394531 109.410156 211.476562 109.71875 C 211.546875 109.96875 211.21875 110.617188 210.800781 110.949219 C 210.589844 111.117188 210.304688 111.316406 210.007812 111.519531 C 209.488281 111.886719 208.941406 112.265625 208.5625 112.597656 C 208.089844 113.011719 207.722656 113.4375 207.4375 113.898438 C 207.34375 113.671875 207.238281 113.460938 207.121094 113.234375 C 206.335938 111.800781 205.035156 110.675781 203.53125 110.050781 L 204.429688 109.707031 C 204.859375 109.539062 205.09375 109.089844 204.976562 108.652344 C 204.964844 108.59375 203.425781 102.742188 202.75 100.03125 C 202.242188 97.601562 201.730469 95.199219 201.234375 92.878906 C 200.738281 90.582031 200.226562 88.199219 199.730469 85.796875 C 200.121094 85.640625 200.394531 85.535156 200.488281 85.488281 C 201.753906 84.800781 203.378906 83.628906 202.902344 81.320312 C 202.621094 79.945312 201.695312 78.902344 200.308594 78.394531 C 200.214844 78.359375 200.121094 78.324219 200.015625 78.300781 C 200.761719 77.472656 201.222656 76.417969 201.101562 75.363281 C 200.960938 74.132812 200.476562 73.207031 199.648438 72.605469 C 199.195312 72.285156 198.675781 72.070312 198.058594 71.953125 C 198.285156 71.726562 198.5 71.480469 198.6875 71.195312 C 199.574219 69.890625 199.648438 68.316406 198.878906 67.003906 C 198.261719 65.949219 197.042969 65.25 195.621094 65.144531 C 194.980469 65.09375 194.304688 65.144531 193.617188 65.285156 C 192.882812 63.496094 191.570312 61.425781 189.78125 60.335938 C 188.265625 59.398438 186.808594 59.042969 185.175781 59.234375 C 185.398438 58.628906 185.625 58.050781 185.839844 57.46875 C 186.21875 56.4375 186.621094 55.359375 187.070312 54.269531 C 187.269531 53.785156 187.816406 52.484375 186.988281 51.511719 C 186.359375 50.765625 185.339844 50.648438 183.980469 51.144531 C 182.710938 51.605469 181.527344 51.984375 180.390625 52.351562 C 179.230469 52.71875 178.035156 53.109375 176.730469 53.585938 C 176.210938 53.773438 174.824219 54.285156 174.742188 55.515625 C 174.671875 56.558594 175.535156 57.242188 175.914062 57.527344 C 176.863281 58.261719 178.070312 58.902344 179.242188 59.53125 C 179.964844 59.910156 180.699219 60.300781 181.351562 60.703125 C 179.882812 61.71875 178.992188 62.894531 178.496094 64.125 C 175.417969 65.070312 172.042969 67.203125 169.734375 68.742188 C 166.640625 70.816406 164.058594 71.515625 159.785156 72.226562 C 159.300781 72.308594 158.980469 72.757812 159.050781 73.242188 C 159.121094 73.679688 159.5 73.988281 159.925781 73.988281 C 159.972656 73.988281 160.023438 73.988281 160.070312 73.976562 C 164.605469 73.21875 167.351562 72.460938 170.714844 70.210938 C 172.65625 68.910156 175.394531 67.179688 177.964844 66.171875 C 177.75 68.03125 178.128906 69.820312 178.402344 71.125 C 178.414062 71.171875 178.425781 71.21875 178.449219 71.265625 C 178.449219 71.265625 178.449219 71.277344 178.449219 71.277344 C 178.460938 71.324219 178.484375 71.359375 178.507812 71.394531 C 178.507812 71.40625 178.519531 71.40625 178.519531 71.417969 C 178.542969 71.453125 178.566406 71.492188 178.589844 71.515625 C 178.601562 71.527344 178.601562 71.527344 178.613281 71.539062 C 178.636719 71.574219 178.671875 71.597656 178.710938 71.621094 C 178.710938 71.621094 178.722656 71.632812 178.722656 71.632812 C 178.757812 71.65625 178.78125 71.679688 178.816406 71.691406 C 178.828125 71.691406 178.828125 71.703125 178.839844 71.703125 C 178.875 71.726562 178.910156 71.738281 178.945312 71.75 C 178.957031 71.75 178.96875 71.761719 178.980469 71.761719 C 179.015625 71.773438 179.066406 71.785156 179.101562 71.796875 C 179.113281 71.796875 179.125 71.796875 179.125 71.796875 C 179.160156 71.808594 179.207031 71.808594 179.253906 71.808594 C 179.253906 71.808594 179.253906 71.808594 179.265625 71.808594 C 179.300781 71.808594 179.324219 71.808594 179.359375 71.808594 C 182.5 71.492188 186.5 69.867188 190.042969 68.445312 C 191.0625 68.03125 192.03125 67.640625 192.898438 67.320312 C 193.820312 66.976562 194.695312 66.824219 195.5 66.882812 C 196.320312 66.941406 197.03125 67.320312 197.359375 67.867188 C 197.789062 68.601562 197.753906 69.40625 197.242188 70.152344 C 196.769531 70.839844 196.023438 71.335938 195.230469 71.847656 C 195.050781 71.964844 194.886719 72.070312 194.707031 72.1875 C 194.351562 72.425781 194.222656 72.875 194.390625 73.265625 C 194.554688 73.65625 194.96875 73.882812 195.382812 73.789062 C 196.910156 73.46875 198.011719 73.539062 198.628906 73.988281 C 199.03125 74.285156 199.28125 74.78125 199.363281 75.503906 C 199.46875 76.40625 198.367188 77.828125 197.042969 78.085938 C 196.613281 78.167969 196.332031 78.535156 196.332031 78.953125 C 196.332031 79.011719 196.332031 79.070312 196.34375 79.128906 C 196.4375 79.613281 196.910156 79.921875 197.386719 79.828125 C 198.238281 79.660156 200.761719 79.613281 201.175781 81.617188 C 201.316406 82.289062 201.304688 82.964844 199.671875 83.855469 C 199.03125 84.160156 191.226562 86.886719 185.28125 88.507812 C 177.109375 90.734375 166.015625 90.949219 161.929688 90.699219 C 161.441406 90.675781 161.015625 91.042969 160.992188 91.527344 C 160.96875 92.011719 161.335938 92.441406 161.820312 92.464844 C 162.664062 92.511719 163.789062 92.546875 165.125 92.546875 C 170.441406 92.546875 179.039062 92.039062 185.742188 90.214844 C 185.804688 90.203125 185.851562 90.179688 185.910156 90.167969 C 187.222656 92.296875 188.445312 94.464844 189.605469 96.574219 C 190.824219 98.777344 192.089844 101.050781 193.5 103.300781 C 194.625 105.503906 197.703125 111.105469 197.835938 111.339844 C 198 111.636719 198.296875 111.800781 198.617188 111.800781 C 198.722656 111.800781 198.828125 111.777344 198.9375 111.742188 L 200.605469 111.105469 C 200.773438 111.339844 200.761719 111.777344 200.570312 112.109375 C 200.332031 112.523438 199.847656 112.890625 199.078125 113.246094 C 198.902344 113.332031 198.722656 113.414062 198.523438 113.496094 C 197.917969 113.757812 197.300781 114.015625 196.734375 114.445312 C 195.148438 115.605469 194.484375 117.214844 194.839844 118.847656 C 184.570312 118.800781 173.414062 118.8125 162.449219 119.179688 C 159.097656 119.300781 155.746094 119.75 153.933594 122.296875 C 152.621094 124.140625 152.609375 126.867188 152.597656 128.691406 C 152.597656 130.621094 152.585938 131.355469 152.574219 132.21875 C 152.5625 132.917969 152.550781 133.710938 152.539062 135.273438 C 152.523438 137.773438 152.511719 144.6875 152.511719 147.140625 C 150.324219 147.175781 148.085938 147.210938 145.773438 147.257812 C 145.289062 147.269531 144.898438 147.671875 144.910156 148.160156 C 144.921875 148.644531 145.3125 149.023438 145.796875 149.023438 C 145.8125 149.023438 145.8125 149.023438 145.824219 149.023438 C 148.390625 148.976562 150.878906 148.929688 153.296875 148.894531 C 153.332031 148.894531 153.367188 148.90625 153.414062 148.90625 C 153.460938 148.90625 153.507812 148.90625 153.554688 148.894531 C 171.746094 148.621094 186.003906 148.738281 201.007812 148.871094 C 209.820312 148.941406 218.925781 149.023438 229.207031 149.023438 C 229.691406 149.023438 230.09375 148.621094 230.09375 148.136719 C 230.09375 147.648438 229.679688 147.332031 229.195312 147.332031 Z M 176.992188 56.128906 C 176.648438 55.871094 176.542969 55.726562 176.519531 55.667969 C 176.589844 55.597656 176.777344 55.457031 177.335938 55.253906 C 178.601562 54.792969 179.785156 54.414062 180.921875 54.046875 C 182.085938 53.679688 183.28125 53.289062 184.582031 52.816406 C 185.4375 52.507812 185.625 52.648438 185.625 52.660156 C 185.625 52.660156 185.742188 52.816406 185.425781 53.597656 C 184.960938 54.722656 184.558594 55.8125 184.167969 56.851562 C 183.824219 57.789062 183.46875 58.746094 183.066406 59.71875 C 182.179688 59.078125 181.101562 58.511719 180.058594 57.953125 C 178.957031 57.375 177.808594 56.769531 176.992188 56.128906 Z M 189.378906 66.824219 C 186.253906 68.078125 182.757812 69.488281 179.976562 69.949219 C 179.703125 68.566406 179.539062 67.121094 179.835938 65.757812 C 180.152344 64.277344 180.996094 63.082031 182.390625 62.136719 L 182.675781 65.734375 C 182.710938 66.195312 183.101562 66.550781 183.566406 66.550781 C 183.589844 66.550781 183.613281 66.550781 183.636719 66.550781 C 184.121094 66.515625 184.488281 66.089844 184.453125 65.59375 L 184.226562 62.667969 C 185.09375 63.355469 185.875 64.148438 186.523438 65.023438 C 186.820312 65.414062 187.378906 65.5 187.769531 65.203125 C 188.160156 64.90625 188.242188 64.347656 187.945312 63.957031 C 187.128906 62.855469 186.121094 61.863281 185.019531 61.035156 C 186.632812 60.761719 187.757812 61.152344 188.871094 61.839844 C 189.78125 62.394531 191.0625 63.746094 191.9375 65.804688 C 191.132812 66.125 190.28125 66.46875 189.378906 66.824219 Z M 187.675781 89.726562 C 191.441406 88.636719 195.515625 87.289062 198.046875 86.398438 C 198.535156 88.722656 199.03125 91.019531 199.503906 93.246094 C 199.953125 95.316406 200.40625 97.460938 200.867188 99.628906 C 199.824219 99.984375 198.78125 100.363281 197.777344 100.742188 C 196.757812 101.121094 195.703125 101.511719 194.660156 101.867188 C 193.417969 99.839844 192.269531 97.78125 191.15625 95.78125 C 190.054688 93.800781 188.917969 91.753906 187.675781 89.726562 Z M 195.539062 103.441406 C 196.496094 103.109375 197.457031 102.753906 198.390625 102.398438 C 199.339844 102.042969 200.308594 101.6875 201.269531 101.359375 C 201.824219 103.582031 202.679688 106.839844 203.070312 108.320312 L 199.019531 109.871094 C 198.261719 108.511719 196.566406 105.394531 195.539062 103.441406 Z M 209.726562 113.921875 C 210.042969 113.648438 210.566406 113.28125 211.027344 112.953125 C 211.347656 112.726562 211.644531 112.523438 211.878906 112.335938 C 212.484375 111.875 212.875 111.292969 213.078125 110.714844 C 214.640625 111.460938 216.144531 112.820312 216.757812 114.125 C 217.859375 116.445312 217.269531 118.246094 216.355469 119.167969 C 216.261719 119.261719 216.203125 119.359375 216.15625 119.476562 C 215.953125 119.453125 215.753906 119.441406 215.539062 119.429688 C 214.804688 119.394531 213.847656 119.347656 212.839844 119.300781 C 211.976562 119.25 211.039062 119.203125 210.09375 119.15625 C 208.992188 118.269531 208.742188 117.6875 208.625 116.574219 C 208.515625 115.460938 208.835938 114.703125 209.726562 113.921875 Z M 197.777344 115.9375 C 198.191406 115.640625 198.6875 115.414062 199.21875 115.191406 C 199.410156 115.105469 199.609375 115.023438 199.8125 114.929688 C 200.523438 114.597656 201.53125 114.050781 202.097656 113.070312 C 202.359375 112.632812 202.488281 112.085938 202.476562 111.542969 C 203.769531 111.96875 204.90625 112.878906 205.566406 114.089844 C 206.386719 115.582031 206.421875 117.453125 205.710938 118.992188 C 205.285156 118.980469 204.882812 118.96875 204.527344 118.96875 C 203.355469 118.957031 202.15625 118.957031 200.9375 118.945312 C 199.539062 118.933594 198.121094 118.933594 196.6875 118.917969 C 196.105469 117.453125 197.089844 116.433594 197.777344 115.9375 Z M 154.371094 128.761719 C 154.382812 127.175781 154.394531 124.78125 155.378906 123.394531 C 156.8125 121.382812 159.808594 121.109375 162.507812 121.027344 C 175.652344 120.589844 189.082031 120.660156 200.9375 120.730469 C 202.15625 120.742188 203.355469 120.742188 204.527344 120.753906 C 206.492188 120.765625 209.972656 120.945312 212.757812 121.085938 C 213.773438 121.132812 214.734375 121.195312 215.46875 121.21875 C 217.695312 121.3125 219.117188 122.011719 219.804688 123.335938 C 220.417969 124.519531 220.394531 126.050781 220.382812 127.269531 C 220.382812 127.554688 220.371094 127.8125 220.382812 128.0625 C 220.40625 129.460938 220.417969 130.808594 220.40625 132.125 C 218.878906 131.828125 217.160156 132.242188 215.753906 133.308594 C 215.410156 133.570312 215.054688 133.863281 214.664062 134.183594 C 213.515625 135.144531 212.082031 136.339844 210.933594 136.53125 C 209.238281 136.800781 207.640625 135.699219 205.957031 134.539062 C 204.371094 133.4375 202.726562 132.300781 200.773438 132.113281 C 198.746094 131.910156 196.933594 132.941406 195.183594 133.925781 C 193.535156 134.847656 191.996094 135.722656 190.492188 135.476562 C 189.203125 135.261719 187.992188 134.503906 186.714844 133.710938 C 185.398438 132.894531 184.039062 132.054688 182.476562 131.734375 C 179.953125 131.234375 177.796875 132.515625 175.714844 133.746094 C 173.902344 134.824219 172.183594 135.832031 170.371094 135.617188 C 169.175781 135.476562 167.910156 134.730469 166.558594 133.9375 C 165.21875 133.15625 163.847656 132.335938 162.414062 132.078125 C 159.902344 131.628906 157.179688 132.386719 154.300781 134.316406 C 154.3125 133.390625 154.3125 132.824219 154.324219 132.300781 C 154.359375 131.4375 154.371094 130.691406 154.371094 128.761719 Z M 154.300781 147.1875 C 154.300781 145.019531 154.300781 139.550781 154.3125 136.519531 C 157.179688 134.328125 159.808594 133.425781 162.117188 133.839844 C 163.242188 134.042969 164.414062 134.742188 165.671875 135.476562 C 167.117188 136.328125 168.609375 137.203125 170.171875 137.394531 C 172.585938 137.679688 174.648438 136.46875 176.636719 135.285156 C 178.519531 134.171875 180.285156 133.132812 182.144531 133.5 C 183.386719 133.746094 184.546875 134.46875 185.792969 135.238281 C 187.164062 136.089844 188.574219 136.96875 190.207031 137.242188 C 192.328125 137.59375 194.222656 136.519531 196.070312 135.488281 C 197.65625 134.597656 199.148438 133.746094 200.605469 133.890625 C 202.109375 134.03125 203.496094 134.992188 204.953125 136.007812 C 206.632812 137.167969 208.363281 138.367188 210.386719 138.367188 C 210.660156 138.367188 210.945312 138.339844 211.230469 138.292969 C 212.851562 138.035156 214.414062 136.71875 215.8125 135.558594 C 216.179688 135.25 216.523438 134.964844 216.84375 134.730469 C 217.957031 133.890625 219.292969 133.605469 220.40625 133.960938 C 220.394531 135.355469 220.371094 136.71875 220.347656 138.070312 C 220.300781 141.007812 220.242188 144.027344 220.289062 147.320312 C 213.527344 147.292969 207.203125 147.234375 201.019531 147.1875 C 186.21875 147.046875 172.136719 146.925781 154.300781 147.1875 Z M 154.300781 147.1875 " fill-opacity="1" fill-rule="nonzero"/></g><g clip-path="url(#5aedf0b34d)"><path fill="#febdc6" d="M 235.667969 147.332031 C 233.226562 147.332031 230.847656 147.332031 228.527344 147.320312 C 228.480469 144.039062 228.539062 141.019531 228.585938 138.09375 C 228.609375 136.601562 228.632812 135.074219 228.65625 133.5 C 228.667969 133.414062 228.667969 133.332031 228.65625 133.25 C 228.667969 131.578125 228.667969 129.839844 228.632812 128.027344 C 228.632812 127.800781 228.632812 127.554688 228.632812 127.28125 C 228.644531 125.929688 228.667969 124.082031 227.851562 122.507812 C 227.1875 121.230469 226.085938 120.351562 224.570312 119.867188 C 225.1875 119.039062 225.53125 118.03125 225.589844 116.90625 C 225.648438 115.746094 225.386719 114.527344 224.84375 113.378906 C 223.882812 111.339844 221.457031 109.339844 219.0625 108.640625 C 218.757812 108.546875 218.425781 108.628906 218.1875 108.855469 C 217.964844 109.078125 217.867188 109.410156 217.953125 109.71875 C 218.023438 109.96875 217.691406 110.617188 217.277344 110.949219 C 217.0625 111.117188 216.777344 111.316406 216.484375 111.519531 C 215.960938 111.886719 215.417969 112.265625 215.039062 112.597656 C 214.5625 113.011719 214.195312 113.4375 213.914062 113.898438 C 213.816406 113.671875 213.710938 113.460938 213.59375 113.234375 C 212.8125 111.800781 211.507812 110.675781 210.003906 110.050781 L 210.90625 109.707031 C 211.332031 109.539062 211.566406 109.089844 211.449219 108.652344 C 211.4375 108.59375 209.898438 102.742188 209.222656 100.03125 C 208.714844 97.601562 208.203125 95.199219 207.707031 92.878906 C 207.210938 90.582031 206.699219 88.199219 206.203125 85.796875 C 206.59375 85.640625 206.867188 85.535156 206.960938 85.488281 C 208.226562 84.800781 209.851562 83.628906 209.378906 81.320312 C 209.09375 79.945312 208.167969 78.902344 206.785156 78.394531 C 206.6875 78.359375 206.59375 78.324219 206.488281 78.300781 C 207.234375 77.472656 207.695312 76.417969 207.578125 75.363281 C 207.433594 74.132812 206.949219 73.207031 206.121094 72.605469 C 205.671875 72.285156 205.148438 72.070312 204.535156 71.953125 C 204.757812 71.726562 204.972656 71.480469 205.160156 71.195312 C 206.050781 69.890625 206.121094 68.316406 205.351562 67.003906 C 204.734375 65.949219 203.515625 65.25 202.09375 65.144531 C 201.453125 65.09375 200.78125 65.144531 200.09375 65.285156 C 199.359375 63.496094 198.042969 61.425781 196.253906 60.335938 C 194.738281 59.398438 193.28125 59.042969 191.648438 59.234375 C 191.875 58.628906 192.097656 58.050781 192.3125 57.46875 C 192.691406 56.4375 193.09375 55.359375 193.542969 54.269531 C 193.746094 53.785156 194.289062 52.484375 193.460938 51.511719 C 192.832031 50.765625 191.816406 50.648438 190.453125 51.144531 C 189.1875 51.605469 188 51.984375 186.863281 52.351562 C 185.703125 52.71875 184.507812 53.109375 183.207031 53.585938 C 182.683594 53.773438 181.296875 54.285156 181.214844 55.515625 C 181.144531 56.558594 182.007812 57.242188 182.386719 57.527344 C 183.335938 58.261719 184.542969 58.902344 185.714844 59.53125 C 186.4375 59.910156 187.171875 60.300781 187.824219 60.703125 C 186.355469 61.71875 185.46875 62.894531 184.96875 64.125 C 181.890625 65.070312 178.515625 67.203125 176.207031 68.742188 C 173.117188 70.816406 170.535156 71.515625 166.257812 72.226562 C 165.773438 72.308594 165.453125 72.757812 165.523438 73.242188 C 165.59375 73.679688 165.972656 73.988281 166.402344 73.988281 C 166.449219 73.988281 166.496094 73.988281 166.542969 73.976562 C 171.078125 73.21875 173.824219 72.460938 177.1875 70.210938 C 179.132812 68.910156 181.867188 67.179688 184.4375 66.171875 C 184.222656 68.03125 184.601562 69.820312 184.875 71.125 C 184.886719 71.171875 184.898438 71.21875 184.921875 71.265625 C 184.921875 71.265625 184.921875 71.277344 184.921875 71.277344 C 184.933594 71.324219 184.957031 71.359375 184.980469 71.394531 C 184.980469 71.40625 184.992188 71.40625 184.992188 71.417969 C 185.015625 71.453125 185.039062 71.492188 185.066406 71.515625 C 185.078125 71.527344 185.078125 71.527344 185.089844 71.539062 C 185.113281 71.574219 185.148438 71.597656 185.183594 71.621094 C 185.183594 71.621094 185.195312 71.632812 185.195312 71.632812 C 185.230469 71.65625 185.253906 71.679688 185.289062 71.691406 C 185.300781 71.691406 185.300781 71.703125 185.3125 71.703125 C 185.347656 71.726562 185.382812 71.738281 185.417969 71.75 C 185.429688 71.75 185.445312 71.761719 185.457031 71.761719 C 185.492188 71.773438 185.539062 71.785156 185.574219 71.796875 C 185.585938 71.796875 185.597656 71.796875 185.597656 71.796875 C 185.632812 71.808594 185.679688 71.808594 185.726562 71.808594 C 185.726562 71.808594 185.726562 71.808594 185.738281 71.808594 C 185.773438 71.808594 185.796875 71.808594 185.835938 71.808594 C 188.972656 71.492188 192.976562 69.867188 196.515625 68.445312 C 197.535156 68.03125 198.503906 67.640625 199.371094 67.320312 C 200.292969 66.976562 201.171875 66.824219 201.976562 66.882812 C 202.792969 66.941406 203.503906 67.320312 203.835938 67.867188 C 204.261719 68.601562 204.226562 69.40625 203.714844 70.152344 C 203.242188 70.839844 202.496094 71.335938 201.703125 71.847656 C 201.527344 71.964844 201.359375 72.070312 201.183594 72.1875 C 200.828125 72.425781 200.695312 72.875 200.863281 73.265625 C 201.027344 73.65625 201.441406 73.882812 201.855469 73.789062 C 203.386719 73.46875 204.484375 73.539062 205.101562 73.988281 C 205.503906 74.285156 205.753906 74.78125 205.835938 75.503906 C 205.941406 76.40625 204.839844 77.828125 203.515625 78.085938 C 203.089844 78.167969 202.804688 78.535156 202.804688 78.953125 C 202.804688 79.011719 202.804688 79.070312 202.816406 79.128906 C 202.910156 79.613281 203.386719 79.921875 203.859375 79.828125 C 204.710938 79.660156 207.234375 79.613281 207.648438 81.617188 C 207.789062 82.289062 207.777344 82.964844 206.144531 83.855469 C 205.503906 84.160156 197.699219 86.886719 191.753906 88.507812 C 183.585938 90.734375 172.488281 90.949219 168.402344 90.699219 C 167.917969 90.675781 167.488281 91.042969 167.464844 91.527344 C 167.441406 92.011719 167.808594 92.441406 168.296875 92.464844 C 169.136719 92.511719 170.261719 92.546875 171.597656 92.546875 C 176.917969 92.546875 185.515625 92.039062 192.21875 90.214844 C 192.277344 90.203125 192.324219 90.179688 192.382812 90.167969 C 193.699219 92.296875 194.917969 94.464844 196.078125 96.574219 C 197.296875 98.777344 198.566406 101.050781 199.972656 103.300781 C 201.097656 105.503906 204.179688 111.105469 204.308594 111.339844 C 204.472656 111.636719 204.769531 111.800781 205.089844 111.800781 C 205.195312 111.800781 205.304688 111.777344 205.410156 111.742188 L 207.078125 111.105469 C 207.246094 111.339844 207.234375 111.777344 207.042969 112.109375 C 206.808594 112.523438 206.320312 112.890625 205.550781 113.246094 C 205.375 113.332031 205.195312 113.414062 204.996094 113.496094 C 204.390625 113.757812 203.777344 114.015625 203.207031 114.445312 C 201.621094 115.605469 200.957031 117.214844 201.3125 118.847656 C 191.046875 118.800781 179.890625 118.8125 168.921875 119.179688 C 165.570312 119.300781 162.21875 119.75 160.410156 122.296875 C 159.09375 124.140625 159.082031 126.867188 159.070312 128.691406 C 159.070312 130.621094 159.058594 131.355469 159.046875 132.21875 C 159.035156 132.917969 159.023438 133.710938 159.011719 135.273438 C 159 137.773438 158.988281 144.6875 158.988281 147.140625 C 156.796875 147.175781 154.558594 147.210938 152.25 147.257812 C 151.761719 147.269531 151.371094 147.671875 151.382812 148.160156 C 151.394531 148.644531 151.785156 149.023438 152.273438 149.023438 C 152.285156 149.023438 152.285156 149.023438 152.296875 149.023438 C 154.867188 148.976562 157.351562 148.929688 159.769531 148.894531 C 159.804688 148.894531 159.839844 148.90625 159.886719 148.90625 C 159.933594 148.90625 159.980469 148.90625 160.03125 148.894531 C 178.21875 148.621094 192.476562 148.738281 207.480469 148.871094 C 216.292969 148.941406 225.398438 149.023438 235.679688 149.023438 C 236.164062 149.023438 236.566406 148.621094 236.566406 148.136719 C 236.566406 147.648438 236.152344 147.332031 235.667969 147.332031 Z M 183.464844 56.128906 C 183.121094 55.871094 183.015625 55.726562 182.992188 55.667969 C 183.0625 55.597656 183.253906 55.457031 183.808594 55.253906 C 185.078125 54.792969 186.261719 54.414062 187.398438 54.046875 C 188.558594 53.679688 189.753906 53.289062 191.058594 52.816406 C 191.910156 52.507812 192.097656 52.648438 192.097656 52.660156 C 192.097656 52.660156 192.21875 52.816406 191.898438 53.597656 C 191.4375 54.722656 191.03125 55.8125 190.640625 56.851562 C 190.300781 57.789062 189.945312 58.746094 189.539062 59.71875 C 188.652344 59.078125 187.574219 58.511719 186.53125 57.953125 C 185.429688 57.375 184.28125 56.769531 183.464844 56.128906 Z M 195.851562 66.824219 C 192.726562 68.078125 189.234375 69.488281 186.449219 69.949219 C 186.175781 68.566406 186.011719 67.121094 186.308594 65.757812 C 186.628906 64.277344 187.46875 63.082031 188.867188 62.136719 L 189.148438 65.734375 C 189.1875 66.195312 189.578125 66.550781 190.039062 66.550781 C 190.0625 66.550781 190.085938 66.550781 190.109375 66.550781 C 190.59375 66.515625 190.960938 66.089844 190.925781 65.59375 L 190.703125 62.667969 C 191.566406 63.355469 192.347656 64.148438 193 65.023438 C 193.296875 65.414062 193.851562 65.5 194.242188 65.203125 C 194.632812 64.90625 194.714844 64.347656 194.421875 63.957031 C 193.601562 62.855469 192.597656 61.863281 191.496094 61.035156 C 193.105469 60.761719 194.230469 61.152344 195.34375 61.839844 C 196.253906 62.394531 197.535156 63.746094 198.410156 65.804688 C 197.605469 66.125 196.753906 66.46875 195.851562 66.824219 Z M 194.148438 89.726562 C 197.914062 88.636719 201.988281 87.289062 204.523438 86.398438 C 205.007812 88.722656 205.503906 91.019531 205.976562 93.246094 C 206.429688 95.316406 206.878906 97.460938 207.339844 99.628906 C 206.296875 99.984375 205.257812 100.363281 204.25 100.742188 C 203.230469 101.121094 202.175781 101.511719 201.136719 101.867188 C 199.890625 99.839844 198.742188 97.78125 197.628906 95.78125 C 196.527344 93.800781 195.390625 91.753906 194.148438 89.726562 Z M 202.011719 103.441406 C 202.96875 103.109375 203.929688 102.753906 204.863281 102.398438 C 205.8125 102.042969 206.785156 101.6875 207.742188 101.359375 C 208.300781 103.582031 209.152344 106.839844 209.542969 108.320312 L 205.492188 109.871094 C 204.734375 108.511719 203.042969 105.394531 202.011719 103.441406 Z M 216.199219 113.921875 C 216.519531 113.648438 217.039062 113.28125 217.5 112.953125 C 217.820312 112.726562 218.117188 112.523438 218.355469 112.335938 C 218.957031 111.875 219.347656 111.292969 219.550781 110.714844 C 221.113281 111.460938 222.617188 112.820312 223.234375 114.125 C 224.335938 116.445312 223.742188 118.246094 222.832031 119.167969 C 222.734375 119.261719 222.675781 119.359375 222.628906 119.476562 C 222.425781 119.453125 222.226562 119.441406 222.011719 119.429688 C 221.277344 119.394531 220.320312 119.347656 219.3125 119.300781 C 218.449219 119.25 217.511719 119.203125 216.566406 119.15625 C 215.464844 118.269531 215.214844 117.6875 215.097656 116.574219 C 214.992188 115.460938 215.308594 114.703125 216.199219 113.921875 Z M 204.25 115.9375 C 204.664062 115.640625 205.160156 115.414062 205.695312 115.191406 C 205.882812 115.105469 206.085938 115.023438 206.285156 114.929688 C 206.996094 114.597656 208.003906 114.050781 208.570312 113.070312 C 208.832031 112.632812 208.960938 112.085938 208.949219 111.542969 C 210.242188 111.96875 211.378906 112.878906 212.042969 114.089844 C 212.859375 115.582031 212.894531 117.453125 212.183594 118.992188 C 211.757812 118.980469 211.355469 118.96875 211 118.96875 C 209.828125 118.957031 208.632812 118.957031 207.410156 118.945312 C 206.015625 118.933594 204.59375 118.933594 203.160156 118.917969 C 202.578125 117.453125 203.5625 116.433594 204.25 115.9375 Z M 160.847656 128.761719 C 160.859375 127.175781 160.871094 124.78125 161.851562 123.394531 C 163.285156 121.382812 166.28125 121.109375 168.980469 121.027344 C 182.128906 120.589844 195.558594 120.660156 207.410156 120.730469 C 208.632812 120.742188 209.828125 120.742188 211 120.753906 C 212.964844 120.765625 216.445312 120.945312 219.230469 121.085938 C 220.25 121.132812 221.207031 121.195312 221.941406 121.21875 C 224.167969 121.3125 225.589844 122.011719 226.277344 123.335938 C 226.890625 124.519531 226.867188 126.050781 226.855469 127.269531 C 226.855469 127.554688 226.84375 127.8125 226.855469 128.0625 C 226.878906 129.460938 226.890625 130.808594 226.878906 132.125 C 225.351562 131.828125 223.636719 132.242188 222.226562 133.308594 C 221.882812 133.570312 221.527344 133.863281 221.136719 134.183594 C 219.988281 135.144531 218.554688 136.339844 217.40625 136.53125 C 215.714844 136.800781 214.113281 135.699219 212.433594 134.539062 C 210.84375 133.4375 209.199219 132.300781 207.246094 132.113281 C 205.21875 131.910156 203.410156 132.941406 201.65625 133.925781 C 200.011719 134.847656 198.46875 135.722656 196.964844 135.476562 C 195.675781 135.261719 194.46875 134.503906 193.1875 133.710938 C 191.875 132.894531 190.511719 132.054688 188.949219 131.734375 C 186.425781 131.234375 184.269531 132.515625 182.1875 133.746094 C 180.375 134.824219 178.65625 135.832031 176.847656 135.617188 C 175.648438 135.476562 174.382812 134.730469 173.03125 133.9375 C 171.695312 133.15625 170.320312 132.335938 168.886719 132.078125 C 166.375 131.628906 163.652344 132.386719 160.777344 134.316406 C 160.789062 133.390625 160.789062 132.824219 160.800781 132.300781 C 160.835938 131.4375 160.847656 130.691406 160.847656 128.761719 Z M 160.777344 147.1875 C 160.777344 145.019531 160.777344 139.550781 160.789062 136.519531 C 163.652344 134.328125 166.28125 133.425781 168.589844 133.839844 C 169.714844 134.042969 170.890625 134.742188 172.144531 135.476562 C 173.589844 136.328125 175.082031 137.203125 176.644531 137.394531 C 179.058594 137.679688 181.121094 136.46875 183.109375 135.285156 C 184.992188 134.171875 186.757812 133.132812 188.617188 133.5 C 189.859375 133.746094 191.019531 134.46875 192.265625 135.238281 C 193.636719 136.089844 195.046875 136.96875 196.683594 137.242188 C 198.800781 137.59375 200.695312 136.519531 202.542969 135.488281 C 204.132812 134.597656 205.625 133.746094 207.078125 133.890625 C 208.582031 134.03125 209.96875 134.992188 211.425781 136.007812 C 213.109375 137.167969 214.835938 138.367188 216.863281 138.367188 C 217.132812 138.367188 217.417969 138.339844 217.703125 138.292969 C 219.324219 138.035156 220.886719 136.71875 222.285156 135.558594 C 222.652344 135.25 222.996094 134.964844 223.316406 134.730469 C 224.429688 133.890625 225.765625 133.605469 226.878906 133.960938 C 226.867188 135.355469 226.84375 136.71875 226.820312 138.070312 C 226.773438 141.007812 226.714844 144.027344 226.761719 147.320312 C 220 147.292969 213.675781 147.234375 207.496094 147.1875 C 192.691406 147.046875 178.609375 146.925781 160.777344 147.1875 Z M 160.777344 147.1875 " fill-opacity="1" fill-rule="nonzero"/></g></svg>