<svg xmlns="http://www.w3.org/2000/svg" xmlns:xlink="http://www.w3.org/1999/xlink" width="500" zoomAndPan="magnify" viewBox="0 0 375 374.999991" height="500" preserveAspectRatio="xMidYMid meet" version="1.0"><defs><clipPath id="bd7ef74385"><path d="M 1 26.351562 L 343.582031 26.351562 L 343.582031 349 L 1 349 Z M 1 26.351562 " clip-rule="nonzero"/></clipPath><clipPath id="89a2f33c8b"><path d="M 31 26.351562 L 373.710938 26.351562 L 373.710938 349 L 31 349 Z M 31 26.351562 " clip-rule="nonzero"/></clipPath></defs><g clip-path="url(#bd7ef74385)"><path fill="#e1afd1" d="M 221.625 26.449219 C 223.222656 26.773438 223.386719 27.035156 225.070312 31.3125 C 226.042969 33.777344 227.191406 37.273438 227.566406 39.046875 C 228.066406 41.460938 228.140625 43.34375 227.785156 46.527344 C 227.496094 49.09375 226.777344 52.089844 226.027344 54.027344 C 225.351562 55.777344 223.890625 58.886719 222.753906 60.875 C 221.664062 62.867188 219.691406 65.867188 218.390625 67.597656 C 217.09375 69.28125 215 71.640625 211.496094 75 L 212.574219 76.082031 C 213.136719 76.675781 213.75 78.042969 213.917969 79.121094 C 214.085938 80.199219 213.390625 88.921875 210.644531 116.753906 L 222.875 117.9375 C 229.574219 118.648438 235.101562 119.121094 235.15625 119.078125 C 235.253906 119.089844 236.164062 113.949219 237.300781 107.726562 C 238.390625 101.5 240.109375 92.171875 241.078125 86.988281 C 242.09375 81.8125 243.066406 77.011719 243.246094 76.265625 C 243.464844 75.566406 244.144531 74.730469 245.917969 73.871094 L 244.878906 70.722656 C 244.304688 68.976562 243.746094 66.265625 243.683594 64.671875 C 243.523438 62.632812 243.714844 60.925781 244.324219 58.972656 C 244.8125 57.246094 247.125 52.890625 250.488281 47.398438 C 253.433594 42.585938 256.3125 37.519531 256.996094 36.15625 C 257.707031 34.550781 258.539062 33.539062 259.242188 33.28125 C 260.09375 32.992188 260.664062 33.054688 261.378906 33.519531 C 262.191406 34 262.8125 35.75 263.976562 40.789062 C 264.816406 44.441406 265.695312 48.628906 265.914062 50.097656 C 266.136719 51.566406 266.140625 54.5 265.90625 56.589844 C 265.671875 58.679688 265.003906 61.636719 264.398438 63.15625 C 263.792969 64.675781 262.554688 67.132812 261.617188 68.617188 C 260.683594 70.097656 258.953125 72.210938 255.613281 75.394531 L 256.460938 77.269531 C 257.304688 79.144531 257.316406 79.484375 255.8125 92.011719 C 255.019531 99.042969 253.625 108.460938 251.207031 120.933594 L 262.3125 122.714844 C 268.402344 123.738281 276.699219 125.246094 280.695312 126.082031 C 284.6875 126.917969 291.109375 128.40625 294.988281 129.421875 C 298.824219 130.382812 304.929688 132.128906 308.503906 133.300781 C 312.074219 134.472656 316.882812 136.214844 319.132812 137.140625 C 321.386719 138.070312 324.683594 139.546875 326.457031 140.46875 C 328.234375 141.339844 331.433594 143.242188 333.671875 144.742188 C 335.867188 146.191406 338.722656 148.582031 339.953125 150.066406 C 341.230469 151.511719 342.710938 153.746094 343.289062 155.011719 C 344.132812 156.9375 344.226562 157.8125 343.816406 160.605469 C 343.613281 162.410156 343.25 164.773438 343.039062 165.808594 C 342.847656 166.84375 342.722656 171.59375 342.765625 176.359375 C 342.804688 181.125 342.746094 189.34375 342.679688 194.628906 C 342.617188 199.914062 342.488281 207.453125 342.375 211.429688 C 342.269531 215.363281 341.867188 221.523438 341.472656 225.039062 C 340.910156 230.027344 340.484375 232.09375 339.5 234.4375 C 338.265625 237.28125 338.191406 237.945312 337.671875 247.699219 C 337.328125 253.339844 336.921875 263.347656 336.660156 269.957031 C 336.449219 276.523438 336.03125 285.804688 335.785156 290.542969 C 335.492188 295.269531 334.871094 302.898438 334.359375 307.457031 C 333.773438 312.007812 333.0625 317.269531 332.621094 319.046875 C 332.125 321.347656 331.480469 322.765625 330.550781 323.769531 C 329.71875 324.734375 327.929688 325.6875 325.480469 326.515625 C 323.425781 327.246094 317.796875 328.972656 313.015625 330.40625 C 308.238281 331.839844 299.492188 334.320312 293.636719 335.921875 C 287.777344 337.523438 279.953125 339.527344 276.292969 340.414062 C 272.632812 341.300781 266.71875 342.558594 263.230469 343.226562 C 259.691406 343.886719 253.324219 344.902344 249.027344 345.476562 C 244.730469 346.050781 237.46875 346.867188 232.957031 347.226562 C 228.386719 347.625 220.976562 348.089844 216.484375 348.257812 C 211.945312 348.421875 205.578125 348.570312 202.257812 348.582031 C 198.9375 348.59375 192.542969 348.546875 188.082031 348.429688 C 183.574219 348.308594 175.105469 347.929688 169.175781 347.601562 C 162.34375 347.171875 149.558594 345.824219 133.992188 343.925781 C 118.570312 342.046875 105.835938 340.230469 99.429688 339.027344 C 93.871094 337.96875 85.167969 336.21875 80.144531 335.125 C 75.121094 334.03125 68.050781 332.320312 64.453125 331.386719 C 60.851562 330.453125 54.558594 328.683594 50.46875 327.40625 C 46.378906 326.128906 40.121094 324.03125 36.566406 322.714844 C 33.015625 321.355469 25.488281 318.148438 19.8125 315.585938 C 12.582031 312.273438 9.175781 310.492188 8.324219 309.53125 C 7.6875 308.738281 7.011719 307.074219 6.75 305.554688 C 6.515625 304.179688 6.3125 297.472656 6.253906 290.730469 C 6.242188 283.996094 6.332031 272.507812 6.472656 265.261719 C 6.617188 258.011719 6.773438 248.9375 6.773438 245.089844 C 6.773438 241.242188 7.011719 237.371094 7.261719 236.488281 C 7.601562 235.179688 7.410156 234.292969 6.367188 232.058594 C 5.671875 230.535156 4.667969 227.921875 4.132812 226.273438 C 3.644531 224.632812 2.882812 221.5625 2.492188 219.449219 C 2.054688 217.382812 1.527344 213.089844 1.304688 209.9375 C 0.898438 204.984375 1.019531 202.640625 2.253906 191.667969 C 3.367188 181.789062 3.984375 178.007812 5.085938 174.1875 C 5.824219 171.480469 7.339844 166.988281 8.421875 164.222656 C 9.507812 161.410156 11.179688 157.652344 12.105469 155.835938 C 13.085938 153.972656 14.523438 151.875 15.375 151.152344 C 16.289062 150.292969 16.894531 149.207031 17.039062 148.355469 C 17.128906 147.546875 18.007812 145.722656 19.035156 144.300781 C 20.066406 142.828125 22.085938 140.699219 23.5625 139.519531 C 25.042969 138.335938 27.949219 136.453125 30.046875 135.339844 C 32.148438 134.183594 36.207031 132.332031 39.121094 131.214844 C 42.042969 130.050781 47.433594 128.300781 51.109375 127.273438 C 54.785156 126.242188 60.921875 124.722656 64.71875 123.898438 C 68.511719 123.121094 74.265625 121.992188 77.496094 121.488281 C 80.734375 120.9375 86.992188 120.054688 91.429688 119.496094 C 95.875 118.890625 99.972656 118.390625 101.679688 118.195312 L 103.707031 97.597656 C 104.78125 86.316406 106.046875 75.539062 106.460938 73.757812 C 107.039062 71.226562 107.480469 70.265625 109.519531 68.8125 L 108.808594 66.566406 C 108.429688 65.226562 108.171875 62.839844 108.3125 60.738281 C 108.417969 58.539062 108.917969 55.996094 109.53125 54.140625 C 110.054688 52.46875 112.222656 47.324219 114.289062 42.652344 C 116.355469 37.976562 118.40625 33.832031 118.890625 33.402344 C 119.371094 32.976562 120.316406 32.699219 121.023438 32.828125 C 122.019531 32.9375 122.804688 33.652344 124.050781 35.425781 C 124.996094 36.832031 126.355469 39.296875 127.082031 40.964844 C 127.855469 42.640625 128.71875 45.238281 129.03125 46.714844 C 129.394531 48.199219 129.636719 50.726562 129.605469 52.3125 C 129.585938 54.1875 129.160156 56.253906 128.453125 58.292969 C 127.824219 60.046875 126.632812 62.511719 125.816406 63.765625 C 124.996094 65.070312 123.316406 67.1875 122.167969 68.40625 C 120.300781 70.457031 120.125 70.726562 120.980469 70.824219 C 121.503906 70.882812 122.296875 71.546875 122.738281 72.320312 C 123.375 73.496094 123.425781 74.753906 123.132812 79.484375 C 122.878906 82.628906 122.253906 90.257812 121.707031 96.398438 C 121.15625 102.542969 120.457031 109.632812 119.671875 116.613281 L 129.003906 116.171875 C 134.089844 115.878906 140.859375 115.582031 143.949219 115.449219 C 149.320312 115.1875 149.617188 115.125 149.980469 114.011719 C 150.152344 113.359375 151.246094 104.917969 152.382812 95.28125 C 153.542969 85.601562 154.777344 76.117188 155.230469 74.195312 C 155.808594 71.664062 156.316406 70.519531 156.996094 70.066406 C 157.929688 69.449219 157.9375 69.402344 157.074219 67.667969 C 156.554688 66.699219 156.015625 65.097656 155.878906 64.167969 C 155.691406 63.234375 155.738281 61.171875 155.914062 59.601562 C 156.113281 57.84375 156.804688 55.566406 157.75 53.554688 C 158.578125 51.773438 160.359375 48.316406 161.746094 45.828125 C 163.132812 43.339844 164.609375 40.472656 164.964844 39.457031 C 165.371094 38.441406 165.972656 37.355469 166.292969 37.054688 C 166.660156 36.757812 167.644531 36.582031 168.449219 36.722656 C 169.777344 36.871094 170.257812 37.308594 171.542969 39.570312 C 172.433594 41.066406 173.644531 43.558594 174.289062 45.074219 C 174.9375 46.589844 175.65625 49.171875 175.957031 50.792969 C 176.253906 52.847656 176.226562 54.816406 175.800781 57.269531 C 175.375 59.820312 174.683594 61.617188 173.4375 63.738281 C 172.484375 65.363281 170.898438 67.492188 169.96875 68.496094 C 168.28125 70.230469 168.214844 70.414062 168.902344 71.117188 C 169.332031 71.550781 169.925781 73.15625 170.183594 74.726562 C 170.476562 76.34375 170.730469 79.691406 170.734375 82.195312 C 170.789062 84.703125 170.078125 93.136719 167.699219 115.140625 L 170.8125 115.25 C 172.539062 115.300781 178.054688 115.441406 183.042969 115.570312 C 188.03125 115.699219 192.449219 115.761719 192.753906 115.652344 C 193.195312 115.554688 193.527344 114.34375 193.808594 111.828125 C 194.035156 109.832031 195.140625 102.980469 196.246094 96.613281 C 197.355469 90.242188 198.746094 82.941406 199.328125 80.363281 C 199.910156 77.78125 200.667969 75.269531 201.011719 74.78125 C 201.308594 74.285156 201.792969 73.808594 202.050781 73.695312 C 202.304688 73.578125 202.101562 72.351562 201.628906 71 C 201.113281 69.597656 200.507812 67.265625 200.289062 65.800781 C 200.023438 64.328125 199.804688 61.992188 199.804688 60.695312 C 199.765625 59.34375 200.109375 57.121094 200.507812 55.722656 C 200.957031 54.328125 201.882812 52.027344 202.566406 50.664062 C 203.253906 49.296875 206.410156 44.746094 209.566406 40.628906 C 212.726562 36.460938 216.09375 31.789062 217.042969 30.164062 C 218.046875 28.546875 219.085938 26.980469 219.410156 26.679688 C 219.734375 26.375 220.660156 26.242188 221.648438 26.449219 Z M 215.066406 41.96875 C 212.535156 45.246094 209.453125 49.5625 208.21875 51.542969 C 206.984375 53.519531 205.679688 56.160156 205.386719 57.476562 C 205.101562 58.742188 204.902344 61.125 205.085938 62.734375 C 205.238281 64.339844 205.765625 66.945312 206.308594 68.546875 C 206.800781 70.140625 207.328125 71.453125 207.46875 71.46875 C 207.609375 71.484375 208.90625 70.234375 210.417969 68.769531 C 211.890625 67.25 214.347656 64.207031 215.84375 62.019531 C 217.347656 59.785156 219.261719 56.441406 220.101562 54.5625 C 220.984375 52.691406 221.976562 49.867188 222.339844 48.320312 C 222.730469 46.585938 222.882812 44.390625 222.746094 42.59375 C 222.59375 40.988281 222.101562 38.480469 221.640625 37.035156 C 221.171875 35.632812 220.683594 34.425781 220.589844 34.414062 C 220.449219 34.398438 220.214844 34.757812 220.027344 35.167969 C 219.832031 35.628906 217.609375 38.695312 215.074219 41.972656 Z M 250.066406 58.414062 C 249.546875 59.558594 249.007812 61.375 248.882812 62.46875 C 248.753906 63.609375 249.015625 65.996094 249.484375 67.828125 C 249.945312 69.707031 250.46875 71.449219 250.730469 71.71875 C 251.007812 72.070312 251.515625 71.96875 252.253906 71.410156 C 252.882812 70.953125 254.40625 69.390625 255.578125 67.9375 C 256.753906 66.480469 258.335938 63.964844 259.050781 62.3125 C 259.765625 60.664062 260.550781 57.960938 260.742188 56.25 C 261.019531 54.453125 260.882812 51.550781 260.566406 49.257812 C 260.234375 47.101562 259.707031 44.925781 259.425781 44.460938 C 259.039062 43.648438 258.421875 44.390625 255.003906 49.976562 C 252.828125 53.484375 250.621094 57.277344 250.0625 58.414062 Z M 161.375 58.296875 C 160.917969 59.78125 160.707031 61.25 160.847656 62.324219 C 160.984375 63.253906 161.484375 64.800781 162 65.773438 C 162.519531 66.746094 163.089844 67.628906 163.371094 67.707031 C 163.648438 67.835938 164.890625 66.578125 166.183594 64.945312 C 167.472656 63.308594 168.972656 61.074219 169.535156 59.933594 C 170.054688 58.789062 170.636719 56.59375 170.8125 55.027344 C 171.070312 52.746094 170.882812 51.429688 169.859375 48.523438 C 169.167969 46.570312 168.488281 44.90625 168.394531 44.894531 C 168.296875 44.882812 166.816406 47.363281 165.175781 50.402344 C 163.53125 53.488281 161.789062 56.996094 161.351562 58.292969 Z M 118.550781 46.019531 C 117.464844 48.398438 115.960938 51.933594 115.171875 53.816406 C 114.429688 55.703125 113.675781 58.554688 113.5 60.121094 C 113.273438 62.117188 113.476562 63.777344 114.070312 65.71875 L 114.964844 68.464844 C 117.808594 65.417969 119.300781 63.710938 120.09375 62.644531 C 120.933594 61.632812 122.179688 59.511719 122.9375 57.914062 C 124.003906 55.675781 124.292969 54.410156 124.332031 51.960938 C 124.359375 49.992188 123.988281 47.738281 123.335938 45.835938 C 122.75 44.183594 122.042969 42.371094 121.722656 41.804688 C 121.394531 41.242188 120.992188 41.003906 120.824219 41.222656 C 120.660156 41.445312 119.640625 43.640625 118.554688 46.019531 Z M 245.183594 93.222656 C 244.210938 98.402344 242.097656 110.386719 240.550781 119.878906 C 238.949219 129.367188 237.019531 140.984375 236.289062 145.761719 L 234.929688 154.363281 C 239.539062 154.878906 240.414062 154.785156 240.460938 154.359375 C 240.496094 154.074219 241.390625 148.257812 242.441406 141.496094 C 243.492188 134.738281 244.53125 128.890625 244.8125 128.535156 C 245.09375 128.183594 245.863281 123.941406 246.546875 119.109375 C 247.230469 114.28125 248.324219 107.574219 248.992188 104.234375 C 249.613281 100.839844 250.601562 94.167969 251.148438 89.324219 L 252.136719 80.535156 C 249.824219 79.699219 248.890625 79.449219 248.558594 79.410156 C 248.273438 79.378906 247.785156 80.335938 247.5 81.554688 C 247.164062 82.8125 246.144531 88.039062 245.175781 93.222656 Z M 200.070312 104.257812 C 198.996094 110.34375 197.394531 119.929688 196.574219 125.511719 C 195.753906 131.097656 194.402344 140.082031 193.550781 145.519531 L 192.019531 155.304688 L 198.667969 156.054688 C 199.625 152.265625 200.554688 147.414062 201.351562 142.886719 C 202.152344 138.359375 203.351562 131.566406 204.011719 127.792969 C 204.632812 124.015625 205.894531 113.667969 206.796875 104.777344 C 207.699219 95.882812 208.539062 86.691406 208.667969 84.300781 C 208.871094 80.378906 208.777344 79.9375 207.855469 79.542969 C 207.308594 79.289062 206.378906 78.992188 205.855469 78.933594 C 204.90625 78.828125 204.773438 79.152344 203.476562 85.976562 C 202.699219 89.929688 201.191406 98.179688 200.074219 104.257812 Z M 160.066406 76.332031 C 159.832031 77.167969 157.699219 93.523438 155.339844 112.742188 L 151.019531 147.660156 C 152.585938 148.703125 153.890625 149.089844 154.9375 149.207031 C 156.835938 149.421875 156.835938 149.421875 157.039062 147.617188 C 157.144531 146.664062 158.046875 141.621094 159.019531 136.4375 C 159.984375 131.253906 161.753906 119.859375 162.878906 111.136719 C 164.191406 101.183594 165.078125 92.480469 165.261719 87.835938 C 165.429688 83.765625 165.421875 79.144531 165.261719 77.589844 C 165.03125 74.917969 164.945312 74.8125 163.566406 74.703125 C 162.753906 74.65625 161.742188 74.644531 161.300781 74.738281 C 160.863281 74.78125 160.300781 75.492188 160.0625 76.332031 Z M 108.640625 100.316406 C 107.179688 114.535156 105.96875 128.300781 105.960938 130.945312 C 105.953125 133.59375 105.902344 137.914062 105.890625 140.558594 C 105.832031 143.199219 105.871094 145.417969 105.964844 145.472656 C 106.03125 145.523438 107.402344 145.921875 109.042969 146.300781 L 112.042969 147.027344 C 112.96875 134.09375 113.730469 125.183594 114.339844 118.902344 C 114.949219 112.621094 115.976562 101.386719 116.675781 93.910156 C 117.375 86.4375 117.941406 79.191406 118.011719 77.804688 L 118.050781 75.308594 L 111.257812 74.542969 Z M 210.085938 122.125 C 209.984375 122.15625 209.484375 125.332031 208.914062 129.160156 C 208.339844 132.992188 206.902344 141.441406 205.746094 147.902344 C 203.734375 158.933594 203.496094 159.769531 202.386719 160.65625 C 201.324219 161.546875 200.84375 161.542969 195.050781 160.890625 C 189.0625 160.214844 188.777344 160.183594 187.773438 158.867188 C 186.753906 157.644531 186.746094 157.308594 187.316406 152.226562 C 187.648438 149.28125 188.613281 142.847656 189.410156 137.886719 C 190.203125 132.972656 191.195312 127.121094 191.640625 124.910156 L 192.382812 120.902344 C 185.808594 120.742188 180.097656 120.628906 175.492188 120.542969 L 167.089844 120.367188 C 165.441406 130.328125 164.277344 136.835938 163.492188 141.222656 C 162.703125 145.65625 161.742188 150.359375 161.351562 151.707031 C 160.867188 153.433594 160.332031 154.335938 159.519531 154.726562 C 158.554688 155.195312 157.605469 155.085938 153.335938 154.128906 C 149.160156 153.175781 148.140625 152.820312 147.347656 151.769531 C 146.753906 151.078125 146.332031 149.683594 146.296875 148.285156 C 146.238281 147.078125 146.859375 140.316406 147.644531 133.332031 L 149.003906 120.59375 C 145.484375 120.679688 140.410156 120.878906 135.484375 121.042969 C 130.554688 121.257812 125.042969 121.503906 123.152344 121.628906 C 121.316406 121.707031 119.609375 121.902344 119.40625 122.023438 C 119.191406 122.195312 118.628906 127.660156 118.132812 134.195312 C 117.683594 140.785156 117.269531 146.988281 117.34375 148.058594 C 117.375 149.503906 117.167969 150.25 116.382812 151.027344 C 115.621094 151.808594 114.78125 152 112.527344 151.941406 C 110.941406 151.90625 108.0625 151.4375 106.152344 150.882812 C 103.960938 150.25 102.320312 149.441406 101.675781 148.746094 C 101.035156 148 100.699219 146.757812 100.589844 144.726562 C 100.523438 143.179688 100.566406 138.949219 100.730469 135.363281 C 100.839844 131.8125 101.0625 127.703125 101.234375 126.183594 C 101.5 123.808594 101.441406 123.464844 100.710938 123.574219 C 100.226562 123.613281 95.683594 124.210938 90.558594 124.882812 C 85.484375 125.515625 77.746094 126.714844 73.429688 127.480469 C 69.105469 128.289062 62.449219 129.707031 58.636719 130.671875 C 54.832031 131.589844 48.8125 133.367188 45.207031 134.597656 C 41.648438 135.878906 36.96875 137.710938 34.878906 138.773438 C 32.785156 139.835938 30.015625 141.351562 28.777344 142.128906 C 27.527344 142.949219 25.667969 144.519531 24.636719 145.558594 C 23.601562 146.644531 22.496094 148.347656 22.09375 149.359375 C 21.542969 150.789062 21.496094 151.699219 21.902344 153.1875 C 22.164062 154.324219 23.332031 156.28125 24.488281 157.566406 C 25.589844 158.894531 28.136719 161.054688 30.101562 162.382812 C 32.023438 163.707031 35.503906 165.683594 37.742188 166.753906 C 40.019531 167.875 44.660156 169.792969 48.082031 171.046875 C 51.5 172.296875 57.671875 174.289062 61.777344 175.425781 C 65.882812 176.5625 72.105469 178.125 75.570312 178.949219 C 79.042969 179.726562 84.871094 180.957031 88.5 181.605469 C 92.128906 182.300781 101.292969 183.769531 108.820312 184.855469 C 117.339844 186.101562 128.785156 187.390625 138.984375 188.25 C 148.035156 189.03125 158.773438 189.804688 162.839844 189.972656 C 166.910156 190.144531 174.238281 190.441406 179.125 190.605469 C 184.011719 190.769531 192.761719 190.839844 198.578125 190.871094 C 204.398438 190.851562 212.882812 190.699219 217.371094 190.582031 C 221.910156 190.417969 228.191406 190.164062 231.386719 189.992188 C 234.582031 189.824219 240.15625 189.441406 243.746094 189.171875 C 247.335938 188.902344 254.671875 188.238281 260.03125 187.636719 C 265.386719 187.085938 273.734375 186.003906 278.582031 185.25 C 283.425781 184.5 291.390625 182.988281 296.273438 181.902344 C 301.160156 180.816406 307.742188 179.152344 310.878906 178.207031 C 314.015625 177.261719 318.320312 175.773438 320.386719 174.949219 C 322.457031 174.074219 325.804688 172.527344 327.75 171.496094 C 329.742188 170.46875 332.605469 168.53125 334.148438 167.214844 C 335.6875 165.941406 337.332031 164.15625 337.816406 163.25 C 338.304688 162.390625 338.796875 161 338.890625 160.148438 C 338.988281 159.292969 338.601562 157.613281 337.980469 156.292969 C 337.277344 154.820312 335.746094 153.058594 333.640625 151.234375 C 331.84375 149.683594 328.214844 147.304688 325.582031 145.902344 C 322.953125 144.5 317.914062 142.25 314.363281 140.886719 C 310.804688 139.574219 304.964844 137.617188 301.382812 136.539062 C 297.792969 135.511719 292.332031 134.03125 289.242188 133.296875 C 286.15625 132.515625 279.90625 131.1875 275.390625 130.292969 C 270.871094 129.402344 263.417969 128.082031 258.882812 127.378906 C 251.976562 126.316406 250.546875 126.199219 250.246094 126.746094 C 250.011719 127.105469 248.769531 134.277344 247.484375 142.742188 C 245.445312 155.742188 244.96875 158.238281 244.128906 159.296875 C 243.125 160.53125 243.125 160.53125 238.519531 159.964844 C 235.957031 159.675781 233.269531 159.179688 232.527344 158.949219 C 231.789062 158.675781 230.824219 157.84375 230.339844 157.019531 C 229.488281 155.578125 229.488281 155.578125 231.796875 140.589844 C 233.113281 132.367188 234.246094 125.28125 234.4375 124.820312 C 234.714844 124.082031 234.339844 123.992188 230.8125 123.691406 C 228.625 123.488281 223.097656 123.015625 218.515625 122.691406 C 213.9375 122.324219 210.117188 122.085938 210.0625 122.125 Z M 330.578125 176.046875 C 328.933594 176.96875 324.488281 178.871094 320.761719 180.328125 C 317.046875 181.738281 310.855469 183.734375 307.039062 184.75 C 303.21875 185.761719 296.898438 187.214844 292.960938 188.023438 C 289.027344 188.785156 282.644531 189.941406 278.726562 190.558594 C 274.8125 191.128906 268.65625 191.972656 265.050781 192.386719 C 261.445312 192.796875 255.410156 193.417969 251.667969 193.765625 C 247.921875 194.113281 241.179688 194.605469 236.625 194.910156 C 232.121094 195.175781 223.949219 195.554688 218.492188 195.757812 C 213.039062 195.914062 203.738281 196.066406 197.773438 196.070312 C 191.8125 196.023438 182.875 195.933594 177.84375 195.75 C 172.855469 195.625 165.625 195.339844 161.792969 195.195312 C 157.960938 195.050781 144.148438 193.835938 131.070312 192.507812 C 115.371094 190.933594 103.839844 189.542969 97.136719 188.402344 C 91.5625 187.488281 83.835938 186.039062 79.9375 185.214844 C 76.085938 184.394531 69.757812 182.914062 65.875 181.949219 C 62.042969 180.9375 56.355469 179.335938 53.289062 178.367188 C 50.230469 177.347656 45.328125 175.59375 42.425781 174.449219 C 39.519531 173.355469 35.082031 171.316406 32.589844 169.976562 C 30.09375 168.636719 26.71875 166.574219 25.078125 165.332031 C 23.4375 164.085938 21.003906 161.792969 19.742188 160.160156 C 18.480469 158.574219 17.320312 157.339844 17.21875 157.375 C 17.117188 157.40625 16.308594 159.003906 15.429688 160.878906 C 14.585938 162.800781 13.039062 166.71875 12.039062 169.636719 C 11.03125 172.601562 9.695312 177.210938 9.054688 179.882812 C 8.363281 183.074219 7.640625 188.621094 7.03125 195.289062 C 6.285156 204.054688 6.214844 206.789062 6.683594 211.605469 C 6.996094 214.8125 7.628906 219.023438 8.140625 220.90625 C 8.59375 222.835938 9.589844 225.976562 10.382812 227.894531 C 11.128906 229.804688 12.472656 232.410156 13.386719 233.714844 C 14.300781 234.972656 15.808594 236.539062 16.753906 237.125 C 17.785156 237.769531 19.460938 238.296875 21.027344 238.472656 C 22.546875 238.644531 24.828125 238.464844 26.507812 238.078125 C 28.042969 237.675781 33.007812 235.445312 37.507812 233.0625 C 42.871094 230.300781 46.765625 228.621094 48.886719 228.140625 C 51.207031 227.628906 52.839844 227.621094 54.679688 227.972656 C 56.324219 228.304688 58.160156 229.085938 59.679688 230.125 C 61.019531 231.042969 63.128906 233.253906 64.382812 234.933594 C 65.871094 237.074219 67.28125 239.925781 68.554688 243.582031 C 69.652344 246.640625 71.222656 252.347656 72.085938 256.246094 C 72.988281 260.195312 74.074219 264.644531 74.53125 266.140625 C 75.027344 267.6875 76.238281 270.613281 77.304688 272.707031 C 78.3125 274.839844 79.855469 277.371094 80.710938 278.332031 C 81.5625 279.296875 83.230469 280.734375 84.394531 281.488281 C 85.554688 282.292969 86.96875 282.980469 87.585938 283.050781 C 88.15625 283.117188 89.445312 282.78125 90.417969 282.265625 C 91.492188 281.710938 92.960938 280.191406 94.335938 278.230469 C 95.773438 276.132812 97.90625 271.707031 100.832031 264.53125 C 103.214844 258.738281 105.769531 252.722656 106.515625 251.222656 C 107.253906 249.765625 108.757812 247.097656 109.910156 245.398438 C 111.070312 243.652344 113.324219 241.164062 114.914062 239.851562 C 116.609375 238.457031 118.984375 237.039062 120.582031 236.496094 C 122.082031 235.992188 124.738281 235.472656 126.480469 235.382812 C 129.148438 235.199219 130.140625 235.359375 132.867188 236.339844 C 134.671875 236.976562 137.207031 238.367188 138.496094 239.332031 C 139.824219 240.347656 142.152344 242.726562 143.664062 244.675781 C 145.230469 246.582031 147.03125 249.382812 147.726562 250.90625 C 148.378906 252.371094 149.375 255.082031 149.898438 256.824219 C 150.371094 258.609375 151.277344 263.8125 151.917969 268.355469 C 152.511719 272.945312 153.332031 278.039062 153.683594 279.617188 C 154.074219 281.25 154.863281 283.648438 155.402344 284.863281 C 155.984375 286.132812 157.25 288.101562 158.175781 289.265625 C 159.148438 290.480469 160.710938 291.957031 161.703125 292.546875 C 163 293.414062 164.398438 293.8125 167.011719 294.105469 C 170.050781 294.449219 171.078125 294.324219 173.976562 293.351562 C 175.882812 292.652344 178.546875 291.21875 180.179688 289.960938 C 181.917969 288.617188 183.726562 286.65625 184.847656 284.808594 C 185.839844 283.238281 187.164062 280.453125 187.753906 278.644531 C 188.332031 276.878906 189.484375 271.816406 190.222656 267.375 C 191.007812 262.992188 192.070312 258.253906 192.613281 256.824219 C 193.203125 255.445312 194.234375 253.542969 194.976562 252.519531 C 195.710938 251.542969 197.535156 249.871094 199.003906 248.785156 C 200.472656 247.699219 203.082031 246.3125 204.835938 245.691406 C 206.535156 245.113281 209.582031 244.542969 211.566406 244.429688 C 214.371094 244.3125 215.9375 244.488281 218.449219 245.246094 C 220.269531 245.738281 223.015625 247.011719 224.628906 248.058594 C 226.246094 249.058594 228.777344 251.363281 230.261719 253.117188 C 231.75 254.871094 233.734375 257.742188 234.65625 259.382812 C 235.621094 261.082031 237.820312 265.898438 239.566406 270.039062 C 241.308594 274.226562 243.308594 278.683594 243.988281 279.917969 C 244.660156 281.195312 246.097656 283.378906 247.238281 284.804688 C 248.375 286.230469 250.0625 287.910156 251.007812 288.5 C 251.902344 289.082031 253.523438 289.648438 254.566406 289.765625 C 255.898438 289.914062 256.933594 289.695312 257.921875 289.035156 C 258.707031 288.5 260.097656 286.78125 261.046875 285.203125 C 262.351562 282.992188 262.925781 281.328125 263.414062 278.253906 C 263.925781 275.425781 263.992188 272.5 263.777344 268.195312 C 263.574219 264.898438 263.292969 260.539062 263.136719 258.5 C 263.027344 256.515625 263.117188 252.726562 263.410156 250.113281 C 263.65625 247.253906 264.304688 244.296875 264.980469 242.59375 C 265.535156 241.070312 266.703125 238.84375 267.5625 237.59375 C 268.421875 236.390625 271.015625 233.84375 273.339844 231.992188 C 275.984375 229.882812 278.625 228.207031 280.324219 227.628906 C 281.832031 227.078125 284.203125 226.527344 285.511719 226.433594 C 287.109375 226.324219 288.964844 226.535156 290.96875 227.089844 C 292.652344 227.519531 295.625 228.914062 297.601562 230.144531 C 299.582031 231.332031 303.6875 234.199219 306.753906 236.417969 C 309.820312 238.6875 313.636719 241.089844 315.289062 241.804688 C 316.941406 242.519531 319.125 243.199219 320.167969 243.316406 C 321.308594 243.445312 323.171875 243.125 324.832031 242.496094 C 326.289062 241.9375 328.355469 240.679688 329.375 239.734375 C 330.394531 238.792969 332.023438 236.714844 333.023438 235.09375 C 334.726562 232.351562 334.882812 231.839844 335.863281 224.832031 C 336.457031 220.808594 337.050781 214.285156 337.164062 210.304688 C 337.316406 206.378906 337.460938 197.832031 337.566406 191.351562 C 337.617188 184.910156 337.644531 177.84375 337.640625 175.726562 C 337.585938 173.601562 337.5 171.863281 337.453125 171.808594 C 337.359375 171.753906 336.488281 172.277344 335.441406 173.023438 C 334.449219 173.730469 332.222656 175.117188 330.582031 176.039062 Z M 281.566406 232.824219 C 280.253906 233.398438 277.816406 234.953125 276.125 236.300781 C 274.382812 237.691406 272.453125 239.878906 271.460938 241.402344 C 270.570312 242.890625 269.457031 245.554688 268.972656 247.28125 C 268.445312 249.386719 268.1875 251.667969 268.199219 254.167969 C 268.257812 256.242188 268.523438 260.699219 268.765625 264.09375 C 269.054688 267.492188 269.257812 270.402344 269.246094 270.496094 C 269.230469 270.640625 273.90625 270.109375 279.632812 269.261719 C 285.351562 268.460938 293.332031 267.195312 297.363281 266.445312 C 301.433594 265.75 309.058594 264.25 314.328125 263.160156 C 319.601562 262.023438 325.390625 260.605469 327.191406 259.992188 C 328.992188 259.375 330.769531 258.949219 331.152344 258.992188 C 331.769531 259.0625 331.90625 258.261719 332.195312 253.195312 C 332.363281 249.988281 332.558594 246.5 332.679688 245.40625 L 332.964844 243.515625 C 329.851562 245.957031 327.707031 247.0625 326.203125 247.613281 C 324.496094 248.238281 322.390625 248.578125 320.570312 248.519531 C 318.75 248.457031 316.636719 247.976562 314.695312 247.28125 C 313.039062 246.613281 310.179688 245.089844 308.34375 243.871094 C 306.503906 242.703125 302.671875 240.007812 299.875 237.914062 C 297.074219 235.867188 293.847656 233.773438 292.703125 233.257812 C 291.558594 232.746094 289.800781 232.117188 288.773438 231.855469 C 287.738281 231.640625 286.261719 231.53125 285.429688 231.625 C 284.648438 231.730469 282.902344 232.300781 281.59375 232.828125 Z M 203.917969 251.742188 C 202.585938 252.460938 200.730469 253.984375 199.785156 255.128906 C 198.835938 256.269531 197.785156 257.933594 197.398438 258.804688 C 197.054688 259.726562 196.183594 263.621094 195.507812 267.488281 C 194.871094 271.410156 194.320312 274.621094 194.363281 274.671875 C 194.429688 274.722656 199.3125 274.703125 205.289062 274.601562 C 211.261719 274.554688 220.382812 274.28125 225.554688 274.046875 C 230.730469 273.8125 235.035156 273.574219 235.136719 273.539062 C 235.21875 273.449219 234.570312 271.742188 233.703125 269.625 C 232.828125 267.554688 231.398438 264.457031 230.527344 262.773438 C 229.605469 261.128906 227.882812 258.480469 226.664062 256.949219 C 225.355469 255.3125 223.210938 253.433594 221.410156 252.316406 C 219.074219 250.851562 217.597656 250.300781 215.042969 249.917969 C 212.777344 249.515625 210.898438 249.550781 209.03125 249.914062 C 207.550781 250.230469 205.246094 251.074219 203.917969 251.742188 Z M 122.179688 241.582031 C 121.074219 241.988281 119.207031 243.171875 117.988281 244.1875 C 116.816406 245.210938 115.296875 246.722656 114.625 247.5625 C 113.996094 248.453125 112.75 250.574219 111.832031 252.300781 C 110.910156 254.070312 109.03125 258.382812 107.574219 261.921875 C 106.113281 265.507812 104.835938 268.734375 104.640625 269.191406 C 104.363281 269.929688 104.921875 270.089844 112.050781 270.890625 C 116.277344 271.367188 125.851562 272.203125 133.347656 272.710938 C 140.835938 273.265625 147.039062 273.722656 147.089844 273.679688 C 147.191406 273.652344 146.898438 270.675781 146.445312 267.019531 C 145.867188 262.335938 145.164062 259.175781 143.992188 255.917969 C 142.765625 252.703125 141.527344 250.445312 139.550781 247.914062 C 137.988281 246.007812 135.695312 243.726562 134.300781 242.851562 C 132.914062 241.925781 130.847656 241.066406 129.480469 240.816406 C 128.207031 240.574219 126.488281 240.480469 125.660156 240.578125 C 124.871094 240.730469 123.28125 241.175781 122.179688 241.582031 Z M 45.75 234.664062 C 44.785156 235.132812 41.769531 236.71875 39.101562 238.195312 C 36.4375 239.628906 32.675781 241.417969 30.71875 242.160156 C 28.8125 242.859375 26.132812 243.566406 24.765625 243.75 C 23.398438 243.933594 20.914062 243.796875 19.023438 243.488281 C 16.996094 243.117188 15.007812 242.414062 13.847656 241.609375 L 11.921875 240.332031 C 11.953125 243.898438 11.976562 245.4375 12.050781 246.023438 C 12.09375 246.894531 12.894531 247.515625 15.667969 248.933594 C 17.578125 249.917969 21.054688 251.511719 23.308594 252.4375 C 25.605469 253.371094 30.1875 254.992188 33.488281 255.988281 C 36.835938 257.039062 42.714844 258.664062 46.550781 259.625 C 50.433594 260.589844 56.855469 262.082031 60.851562 262.917969 C 64.84375 263.753906 68.191406 264.367188 68.292969 264.332031 C 68.394531 264.300781 67.710938 260.949219 66.824219 256.855469 C 65.933594 252.8125 64.535156 247.699219 63.777344 245.449219 C 63.015625 243.246094 61.617188 240.300781 60.671875 238.847656 C 59.726562 237.441406 58.335938 235.695312 57.597656 234.988281 C 56.722656 234.214844 55.347656 233.582031 53.84375 233.265625 C 52.4375 232.960938 50.746094 233.015625 49.511719 233.308594 C 48.417969 233.617188 46.71875 234.195312 45.75 234.664062 Z M 314.949219 268.328125 C 309.53125 269.453125 302.101562 270.925781 298.460938 271.621094 C 294.832031 272.269531 286.800781 273.53125 280.597656 274.371094 L 269.359375 275.898438 C 268.222656 281.300781 267.390625 284 266.804688 285.375 C 266.25 286.804688 265.175781 288.703125 264.441406 289.679688 C 263.75 290.707031 262.449219 292.003906 261.652344 292.683594 C 260.804688 293.359375 259.214844 294.238281 258.109375 294.644531 C 256.558594 295.1875 255.445312 295.257812 253.273438 294.867188 C 251.628906 294.535156 249.550781 293.773438 248.199219 292.949219 C 246.988281 292.1875 244.734375 289.960938 243.171875 288.054688 C 241.652344 286.152344 239.71875 283.242188 238.847656 281.601562 C 237.667969 279.257812 237.109375 278.664062 236.328125 278.769531 C 235.785156 278.855469 230.230469 279.09375 223.996094 279.355469 C 217.765625 279.566406 208.214844 279.792969 202.769531 279.898438 C 197.324219 279.960938 192.890625 280.039062 192.839844 280.082031 C 192.828125 280.179688 192.417969 281.234375 191.941406 282.480469 C 191.460938 283.773438 190.277344 286.140625 189.28125 287.714844 C 188.046875 289.738281 186.246094 291.605469 183.707031 293.675781 C 181.378906 295.53125 178.796875 297.117188 176.84375 297.808594 C 175.089844 298.429688 172.3125 299.175781 170.648438 299.421875 C 168.742188 299.6875 166.535156 299.632812 164.746094 299.285156 C 163.09375 299 160.882812 298.128906 159.355469 297.1875 C 157.914062 296.304688 155.765625 294.476562 154.574219 293.089844 C 153.335938 291.699219 151.8125 289.414062 151.105469 287.988281 C 150.441406 286.613281 149.488281 284.003906 148.964844 282.214844 L 148.078125 278.988281 C 143.445312 278.707031 136.71875 278.191406 130.132812 277.738281 C 123.597656 277.242188 114.648438 276.425781 110.277344 275.933594 C 103.101562 275.128906 102.285156 275.132812 101.914062 275.859375 C 101.722656 276.320312 100.539062 278.253906 99.304688 280.230469 C 98.066406 282.257812 96.167969 284.59375 95.058594 285.480469 C 93.902344 286.359375 92.34375 287.386719 91.488281 287.722656 C 90.585938 288.054688 88.835938 288.195312 87.128906 288 C 84.988281 287.761719 83.601562 287.265625 81.578125 286.03125 C 79.777344 284.929688 77.964844 283.203125 76.148438 280.847656 C 74.636719 278.898438 72.765625 275.851562 72.007812 274.03125 C 71.199219 272.257812 70.511719 270.640625 70.488281 270.445312 C 70.40625 270.292969 66.375 269.359375 61.441406 268.320312 C 56.550781 267.339844 48.113281 265.378906 42.6875 264 C 37.316406 262.578125 30.464844 260.601562 27.550781 259.601562 C 24.632812 258.597656 19.9375 256.722656 17.097656 255.441406 C 14.257812 254.160156 11.960938 253.226562 11.902344 253.316406 C 11.886719 253.460938 11.765625 259.21875 11.671875 266.039062 C 11.570312 272.90625 11.414062 279 11.363281 279.472656 C 11.273438 280.28125 12.125 280.808594 17.132812 282.914062 C 20.351562 284.238281 26.707031 286.730469 31.277344 288.449219 C 35.851562 290.117188 43.257812 292.683594 47.710938 294.148438 C 52.171875 295.5625 59.53125 297.691406 64.015625 298.867188 C 68.507812 300 75.40625 301.546875 79.269531 302.269531 C 83.183594 302.949219 91.027344 304.21875 96.757812 305.007812 C 102.484375 305.84375 114.132812 307.0625 122.671875 307.683594 C 131.207031 308.359375 142.578125 309.058594 147.988281 309.28125 C 153.398438 309.503906 161.683594 309.8125 166.4375 309.914062 C 171.183594 310.0625 179.402344 310.125 184.699219 310.046875 C 190 309.96875 196.851562 309.78125 199.902344 309.59375 C 202.949219 309.457031 211.503906 308.6875 218.847656 307.972656 C 226.195312 307.214844 234.964844 306.226562 238.335938 305.789062 C 241.707031 305.304688 249.191406 304.222656 254.964844 303.332031 C 260.746094 302.394531 268.597656 301.019531 272.394531 300.195312 C 276.191406 299.371094 287.570312 296.5625 297.632812 293.945312 C 307.738281 291.328125 319.371094 288.40625 323.476562 287.425781 C 330.640625 285.730469 330.996094 285.578125 330.933594 284.414062 C 330.90625 283.789062 331.035156 279.664062 331.234375 275.308594 C 331.425781 271.003906 331.625 266.742188 331.667969 265.882812 C 331.667969 265.015625 331.453125 264.320312 331.21875 264.292969 C 330.976562 264.308594 329.441406 264.71875 327.785156 265.300781 C 326.140625 265.835938 320.355469 267.207031 314.9375 268.328125 Z M 320.238281 293.554688 C 314.847656 294.871094 303.160156 297.835938 294.289062 300.15625 C 285.417969 302.480469 275.078125 305.019531 271.285156 305.792969 C 267.496094 306.570312 259.890625 307.878906 254.363281 308.699219 C 248.832031 309.570312 240.277344 310.769531 235.296875 311.414062 C 230.324219 312.007812 220.4375 313.105469 213.292969 313.746094 C 206.050781 314.421875 194.671875 315.066406 187.636719 315.1875 C 180.648438 315.316406 168.058594 315.195312 159.621094 314.921875 C 151.1875 314.644531 139.558594 314.105469 133.773438 313.792969 C 127.992188 313.429688 115.234375 312.234375 105.453125 311.132812 C 95.660156 310.074219 84.054688 308.484375 79.621094 307.695312 C 75.242188 306.863281 67.921875 305.226562 63.429688 304.09375 C 58.945312 302.914062 51.996094 300.980469 48.042969 299.765625 C 44.097656 298.503906 36.179688 295.785156 30.453125 293.648438 C 24.722656 291.558594 18.222656 289.050781 15.917969 288.164062 C 13.664062 287.238281 11.722656 286.539062 11.617188 286.621094 C 11.542969 286.660156 11.519531 289.640625 11.503906 293.199219 C 11.53125 296.808594 11.578125 301.097656 11.683594 302.742188 C 11.738281 304.820312 12.050781 305.910156 12.585938 306.261719 C 12.984375 306.546875 17.371094 308.628906 22.261719 310.910156 C 27.148438 313.191406 34.589844 316.335938 38.789062 317.917969 C 42.988281 319.496094 49.847656 321.808594 54.085938 323.054688 C 58.316406 324.347656 65.789062 326.34375 70.660156 327.515625 C 75.578125 328.695312 83.175781 330.417969 87.542969 331.339844 C 91.96875 332.226562 98.601562 333.546875 102.375 334.214844 C 106.148438 334.878906 113.566406 336.050781 118.921875 336.796875 C 124.273438 337.546875 131.605469 338.609375 135.253906 339.117188 C 138.894531 339.671875 148.835938 340.6875 157.363281 341.410156 C 165.898438 342.085938 175.96875 342.785156 179.796875 342.976562 C 183.628906 343.117188 190.972656 343.269531 196.113281 343.320312 C 201.253906 343.371094 209.203125 343.253906 213.699219 343.085938 C 218.230469 342.972656 224.863281 342.613281 228.449219 342.390625 C 232.035156 342.121094 239.824219 341.3125 245.734375 340.535156 C 251.640625 339.757812 259.8125 338.511719 263.847656 337.714844 C 267.925781 336.972656 275.675781 335.199219 281.125 333.792969 C 286.570312 332.433594 297.191406 329.539062 304.699219 327.351562 C 312.210938 325.167969 320.285156 322.660156 322.640625 321.820312 C 326.898438 320.328125 326.902344 320.28125 327.476562 318.179688 C 327.792969 317.0625 328.605469 311.089844 329.257812 304.910156 C 329.949219 298.785156 330.433594 293.210938 330.324219 292.476562 L 330.078125 291.199219 Z M 320.238281 293.554688 " fill-opacity="1" fill-rule="evenodd"/></g><g clip-path="url(#89a2f33c8b)"><path fill="#febdc6" d="M 251.753906 26.449219 C 253.351562 26.773438 253.515625 27.035156 255.199219 31.3125 C 256.171875 33.777344 257.316406 37.273438 257.695312 39.046875 C 258.195312 41.460938 258.269531 43.34375 257.910156 46.527344 C 257.621094 49.09375 256.902344 52.089844 256.152344 54.027344 C 255.476562 55.777344 254.019531 58.886719 252.882812 60.875 C 251.792969 62.867188 249.816406 65.867188 248.515625 67.597656 C 247.222656 69.28125 245.128906 71.640625 241.621094 75 L 242.703125 76.082031 C 243.265625 76.675781 243.878906 78.042969 244.046875 79.121094 C 244.214844 80.199219 243.515625 88.921875 240.773438 116.753906 L 253 117.9375 C 259.703125 118.648438 265.230469 119.121094 265.28125 119.078125 C 265.378906 119.089844 266.292969 113.949219 267.425781 107.726562 C 268.519531 101.5 270.234375 92.171875 271.203125 86.988281 C 272.21875 81.8125 273.191406 77.011719 273.375 76.265625 C 273.59375 75.566406 274.269531 74.730469 276.046875 73.871094 L 275.007812 70.722656 C 274.433594 68.976562 273.871094 66.265625 273.8125 64.671875 C 273.652344 62.632812 273.84375 60.925781 274.453125 58.972656 C 274.9375 57.246094 277.253906 52.890625 280.613281 47.398438 C 283.5625 42.585938 286.441406 37.519531 287.121094 36.15625 C 287.832031 34.550781 288.667969 33.539062 289.371094 33.28125 C 290.222656 32.992188 290.792969 33.054688 291.507812 33.519531 C 292.320312 34 292.941406 35.75 294.105469 40.789062 C 294.945312 44.441406 295.820312 48.628906 296.039062 50.097656 C 296.265625 51.566406 296.269531 54.5 296.035156 56.589844 C 295.800781 58.679688 295.132812 61.636719 294.527344 63.15625 C 293.921875 64.675781 292.683594 67.132812 291.746094 68.617188 C 290.808594 70.097656 289.082031 72.210938 285.742188 75.394531 L 286.585938 77.269531 C 287.433594 79.144531 287.445312 79.484375 285.9375 92.011719 C 285.148438 99.042969 283.753906 108.460938 281.335938 120.933594 L 292.441406 122.714844 C 298.53125 123.738281 306.828125 125.246094 310.820312 126.082031 C 314.816406 126.917969 321.238281 128.40625 325.117188 129.421875 C 328.953125 130.382812 335.058594 132.128906 338.628906 133.300781 C 342.203125 134.472656 347.007812 136.214844 349.261719 137.140625 C 351.515625 138.070312 354.8125 139.546875 356.585938 140.46875 C 358.363281 141.339844 361.5625 143.242188 363.800781 144.742188 C 365.992188 146.191406 368.851562 148.582031 370.078125 150.066406 C 371.359375 151.511719 372.839844 153.746094 373.417969 155.011719 C 374.261719 156.9375 374.355469 157.8125 373.945312 160.605469 C 373.742188 162.410156 373.375 164.773438 373.164062 165.808594 C 372.976562 166.84375 372.847656 171.59375 372.890625 176.359375 C 372.929688 181.125 372.875 189.34375 372.808594 194.628906 C 372.742188 199.914062 372.617188 207.453125 372.503906 211.429688 C 372.394531 215.363281 371.996094 221.523438 371.601562 225.039062 C 371.039062 230.027344 370.613281 232.09375 369.628906 234.4375 C 368.394531 237.28125 368.320312 237.945312 367.800781 247.699219 C 367.457031 253.339844 367.050781 263.347656 366.789062 269.957031 C 366.578125 276.523438 366.15625 285.804688 365.914062 290.542969 C 365.621094 295.269531 365 302.898438 364.488281 307.457031 C 363.902344 312.007812 363.191406 317.269531 362.75 319.046875 C 362.25 321.347656 361.605469 322.765625 360.679688 323.769531 C 359.847656 324.734375 358.058594 325.6875 355.609375 326.515625 C 353.554688 327.246094 347.921875 328.972656 343.144531 330.40625 C 338.363281 331.839844 329.617188 334.320312 323.761719 335.921875 C 317.90625 337.523438 310.082031 339.527344 306.421875 340.414062 C 302.761719 341.300781 296.847656 342.558594 293.355469 343.226562 C 289.820312 343.886719 283.453125 344.902344 279.15625 345.476562 C 274.855469 346.050781 267.597656 346.867188 263.082031 347.226562 C 258.515625 347.625 251.105469 348.089844 246.613281 348.257812 C 242.070312 348.421875 235.707031 348.570312 232.382812 348.582031 C 229.0625 348.59375 222.671875 348.546875 218.210938 348.429688 C 213.703125 348.308594 205.230469 347.929688 199.304688 347.601562 C 192.472656 347.171875 179.683594 345.824219 164.121094 343.925781 C 148.699219 342.046875 135.964844 340.230469 129.558594 339.027344 C 124 337.96875 115.296875 336.21875 110.273438 335.125 C 105.25 334.03125 98.179688 332.320312 94.578125 331.386719 C 90.980469 330.453125 84.6875 328.683594 80.597656 327.40625 C 76.507812 326.128906 70.25 324.03125 66.695312 322.714844 C 63.144531 321.355469 55.613281 318.148438 49.9375 315.585938 C 42.710938 312.273438 39.304688 310.492188 38.449219 309.53125 C 37.816406 308.738281 37.140625 307.074219 36.878906 305.554688 C 36.640625 304.179688 36.441406 297.472656 36.382812 290.730469 C 36.371094 283.996094 36.460938 272.507812 36.601562 265.261719 C 36.746094 258.011719 36.898438 248.9375 36.898438 245.089844 C 36.898438 241.242188 37.140625 237.371094 37.390625 236.488281 C 37.730469 235.179688 37.539062 234.292969 36.496094 232.058594 C 35.800781 230.535156 34.796875 227.921875 34.257812 226.273438 C 33.773438 224.632812 33.007812 221.5625 32.621094 219.449219 C 32.183594 217.382812 31.652344 213.089844 31.433594 209.9375 C 31.027344 204.984375 31.148438 202.640625 32.382812 191.667969 C 33.492188 181.789062 34.113281 178.007812 35.214844 174.1875 C 35.953125 171.480469 37.46875 166.988281 38.550781 164.222656 C 39.636719 161.410156 41.308594 157.652344 42.234375 155.835938 C 43.214844 153.972656 44.652344 151.875 45.503906 151.152344 C 46.417969 150.292969 47.023438 149.207031 47.164062 148.355469 C 47.257812 147.546875 48.132812 145.722656 49.160156 144.300781 C 50.191406 142.828125 52.210938 140.699219 53.691406 139.519531 C 55.171875 138.335938 58.078125 136.453125 60.175781 135.339844 C 62.277344 134.183594 66.335938 132.332031 69.25 131.214844 C 72.171875 130.050781 77.5625 128.300781 81.238281 127.273438 C 84.914062 126.242188 91.050781 124.722656 94.847656 123.898438 C 98.636719 123.121094 104.394531 121.992188 107.625 121.488281 C 110.863281 120.9375 117.117188 120.054688 121.558594 119.496094 C 126.003906 118.890625 130.101562 118.390625 131.804688 118.195312 L 133.832031 97.597656 C 134.910156 86.316406 136.175781 75.539062 136.589844 73.757812 C 137.164062 71.226562 137.609375 70.265625 139.648438 68.8125 L 138.9375 66.566406 C 138.558594 65.226562 138.300781 62.839844 138.441406 60.738281 C 138.546875 58.539062 139.046875 55.996094 139.660156 54.140625 C 140.183594 52.46875 142.351562 47.324219 144.417969 42.652344 C 146.480469 37.976562 148.535156 33.832031 149.015625 33.402344 C 149.5 32.976562 150.441406 32.699219 151.148438 32.828125 C 152.148438 32.9375 152.933594 33.652344 154.175781 35.425781 C 155.125 36.832031 156.484375 39.296875 157.210938 40.964844 C 157.984375 42.640625 158.84375 45.238281 159.160156 46.714844 C 159.523438 48.199219 159.765625 50.726562 159.734375 52.3125 C 159.714844 54.1875 159.289062 56.253906 158.582031 58.292969 C 157.949219 60.046875 156.761719 62.511719 155.945312 63.765625 C 155.125 65.070312 153.441406 67.1875 152.296875 68.40625 C 150.429688 70.457031 150.253906 70.726562 151.109375 70.824219 C 151.632812 70.882812 152.421875 71.546875 152.867188 72.320312 C 153.503906 73.496094 153.554688 74.753906 153.261719 79.484375 C 153.007812 82.628906 152.382812 90.257812 151.835938 96.398438 C 151.285156 102.542969 150.585938 109.632812 149.800781 116.613281 L 159.132812 116.171875 C 164.21875 115.878906 170.984375 115.582031 174.078125 115.449219 C 179.449219 115.1875 179.742188 115.125 180.109375 114.011719 C 180.28125 113.359375 181.371094 104.917969 182.507812 95.28125 C 183.671875 85.601562 184.90625 76.117188 185.359375 74.195312 C 185.9375 71.664062 186.445312 70.519531 187.125 70.066406 C 188.058594 69.449219 188.066406 69.402344 187.199219 67.667969 C 186.683594 66.699219 186.144531 65.097656 186.007812 64.167969 C 185.820312 63.234375 185.867188 61.171875 186.042969 59.601562 C 186.242188 57.84375 186.929688 55.566406 187.878906 53.554688 C 188.707031 51.773438 190.488281 48.316406 191.875 45.828125 C 193.261719 43.339844 194.738281 40.472656 195.09375 39.457031 C 195.5 38.441406 196.101562 37.355469 196.421875 37.054688 C 196.789062 36.757812 197.773438 36.582031 198.578125 36.722656 C 199.90625 36.871094 200.386719 37.308594 201.671875 39.570312 C 202.5625 41.066406 203.769531 43.558594 204.417969 45.074219 C 205.066406 46.589844 205.785156 49.171875 206.082031 50.792969 C 206.382812 52.847656 206.355469 54.816406 205.929688 57.269531 C 205.5 59.820312 204.8125 61.617188 203.566406 63.738281 C 202.613281 65.363281 201.027344 67.492188 200.097656 68.496094 C 198.410156 70.230469 198.339844 70.414062 199.03125 71.117188 C 199.460938 71.550781 200.054688 73.15625 200.308594 74.726562 C 200.605469 76.34375 200.855469 79.691406 200.863281 82.195312 C 200.914062 84.703125 200.207031 93.136719 197.828125 115.140625 L 200.941406 115.25 C 202.667969 115.300781 208.183594 115.441406 213.171875 115.570312 C 218.160156 115.699219 222.578125 115.761719 222.878906 115.652344 C 223.324219 115.554688 223.65625 114.34375 223.9375 111.828125 C 224.164062 109.832031 225.269531 102.980469 226.375 96.613281 C 227.480469 90.242188 228.875 82.941406 229.453125 80.363281 C 230.035156 77.78125 230.796875 75.269531 231.140625 74.78125 C 231.4375 74.285156 231.921875 73.808594 232.175781 73.695312 C 232.429688 73.578125 232.230469 72.351562 231.757812 71 C 231.242188 69.597656 230.636719 67.265625 230.417969 65.800781 C 230.148438 64.328125 229.929688 61.992188 229.933594 60.695312 C 229.894531 59.34375 230.238281 57.121094 230.632812 55.722656 C 231.082031 54.328125 232.011719 52.027344 232.695312 50.664062 C 233.378906 49.296875 236.535156 44.746094 239.695312 40.628906 C 242.855469 36.460938 246.21875 31.789062 247.171875 30.164062 C 248.171875 28.546875 249.214844 26.980469 249.535156 26.679688 C 249.863281 26.375 250.789062 26.242188 251.777344 26.449219 Z M 245.195312 41.96875 C 242.664062 45.246094 239.578125 49.5625 238.347656 51.542969 C 237.113281 53.519531 235.804688 56.160156 235.515625 57.476562 C 235.230469 58.742188 235.03125 61.125 235.214844 62.734375 C 235.367188 64.339844 235.894531 66.945312 236.4375 68.546875 C 236.929688 70.140625 237.457031 71.453125 237.597656 71.46875 C 237.738281 71.484375 239.035156 70.234375 240.546875 68.769531 C 242.015625 67.25 244.476562 64.207031 245.972656 62.019531 C 247.476562 59.785156 249.390625 56.441406 250.226562 54.5625 C 251.113281 52.691406 252.105469 49.867188 252.46875 48.320312 C 252.859375 46.585938 253.011719 44.390625 252.875 42.59375 C 252.71875 40.988281 252.230469 38.480469 251.769531 37.035156 C 251.296875 35.632812 250.8125 34.425781 250.714844 34.414062 C 250.578125 34.398438 250.34375 34.757812 250.152344 35.167969 C 249.960938 35.628906 247.734375 38.695312 245.203125 41.972656 Z M 280.191406 58.414062 C 279.671875 59.558594 279.136719 61.375 279.011719 62.46875 C 278.882812 63.609375 279.144531 65.996094 279.613281 67.828125 C 280.070312 69.707031 280.597656 71.449219 280.855469 71.71875 C 281.136719 72.070312 281.644531 71.96875 282.382812 71.410156 C 283.007812 70.953125 284.535156 69.390625 285.707031 67.9375 C 286.882812 66.480469 288.464844 63.964844 289.179688 62.3125 C 289.894531 60.664062 290.679688 57.960938 290.871094 56.25 C 291.144531 54.453125 291.007812 51.550781 290.695312 49.257812 C 290.363281 47.101562 289.835938 44.925781 289.550781 44.460938 C 289.164062 43.648438 288.550781 44.390625 285.132812 49.976562 C 282.957031 53.484375 280.75 57.277344 280.191406 58.414062 Z M 191.503906 58.296875 C 191.042969 59.78125 190.835938 61.25 190.976562 62.324219 C 191.113281 63.253906 191.609375 64.800781 192.128906 65.773438 C 192.644531 66.746094 193.21875 67.628906 193.496094 67.707031 C 193.773438 67.835938 195.019531 66.578125 196.308594 64.945312 C 197.601562 63.308594 199.101562 61.074219 199.664062 59.933594 C 200.183594 58.789062 200.765625 56.59375 200.941406 55.027344 C 201.195312 52.746094 201.011719 51.429688 199.988281 48.523438 C 199.292969 46.570312 198.617188 44.90625 198.519531 44.894531 C 198.421875 44.882812 196.945312 47.363281 195.304688 50.402344 C 193.65625 53.488281 191.917969 56.996094 191.480469 58.292969 Z M 148.679688 46.019531 C 147.59375 48.398438 146.089844 51.933594 145.296875 53.816406 C 144.554688 55.703125 143.804688 58.554688 143.628906 60.121094 C 143.402344 62.117188 143.605469 63.777344 144.199219 65.71875 L 145.09375 68.464844 C 147.9375 65.417969 149.429688 63.710938 150.222656 62.644531 C 151.0625 61.632812 152.304688 59.511719 153.0625 57.914062 C 154.132812 55.675781 154.421875 54.410156 154.457031 51.960938 C 154.488281 49.992188 154.117188 47.738281 153.464844 45.835938 C 152.878906 44.183594 152.171875 42.371094 151.847656 41.804688 C 151.523438 41.242188 151.121094 41.003906 150.953125 41.222656 C 150.785156 41.445312 149.765625 43.640625 148.679688 46.019531 Z M 275.3125 93.222656 C 274.339844 98.402344 272.226562 110.386719 270.675781 119.878906 C 269.078125 129.367188 267.148438 140.984375 266.417969 145.761719 L 265.058594 154.363281 C 269.664062 154.878906 270.542969 154.785156 270.589844 154.359375 C 270.621094 154.074219 271.515625 148.257812 272.570312 141.496094 C 273.621094 134.738281 274.660156 128.890625 274.941406 128.535156 C 275.222656 128.183594 275.988281 123.941406 276.675781 119.109375 C 277.359375 114.28125 278.453125 107.574219 279.121094 104.234375 C 279.742188 100.839844 280.730469 94.167969 281.277344 89.324219 L 282.265625 80.535156 C 279.953125 79.699219 279.019531 79.449219 278.6875 79.410156 C 278.398438 79.378906 277.910156 80.335938 277.628906 81.554688 C 277.292969 82.8125 276.269531 88.039062 275.304688 93.222656 Z M 230.199219 104.257812 C 229.125 110.34375 227.523438 119.929688 226.703125 125.511719 C 225.878906 131.097656 224.53125 140.082031 223.679688 145.519531 L 222.144531 155.304688 L 228.796875 156.054688 C 229.753906 152.265625 230.683594 147.414062 231.480469 142.886719 C 232.28125 138.359375 233.480469 131.566406 234.140625 127.792969 C 234.757812 124.015625 236.023438 113.667969 236.925781 104.777344 C 237.828125 95.882812 238.667969 86.691406 238.796875 84.300781 C 238.996094 80.378906 238.90625 79.9375 237.984375 79.542969 C 237.4375 79.289062 236.507812 78.992188 235.984375 78.933594 C 235.035156 78.828125 234.902344 79.152344 233.605469 85.976562 C 232.824219 89.929688 231.316406 98.179688 230.199219 104.257812 Z M 190.195312 76.332031 C 189.957031 77.167969 187.824219 93.523438 185.46875 112.742188 L 181.148438 147.660156 C 182.714844 148.703125 184.019531 149.089844 185.0625 149.207031 C 186.964844 149.421875 186.964844 149.421875 187.167969 147.617188 C 187.273438 146.664062 188.175781 141.621094 189.148438 136.4375 C 190.113281 131.253906 191.878906 119.859375 193.007812 111.136719 C 194.320312 101.183594 195.207031 92.480469 195.390625 87.835938 C 195.554688 83.765625 195.550781 79.144531 195.390625 77.589844 C 195.160156 74.917969 195.074219 74.8125 193.691406 74.703125 C 192.878906 74.65625 191.871094 74.644531 191.429688 74.738281 C 190.992188 74.78125 190.429688 75.492188 190.191406 76.332031 Z M 138.765625 100.316406 C 137.308594 114.535156 136.09375 128.300781 136.089844 130.945312 C 136.082031 133.59375 136.027344 137.914062 136.015625 140.558594 C 135.960938 143.199219 136 145.417969 136.089844 145.472656 C 136.15625 145.523438 137.53125 145.921875 139.171875 146.300781 L 142.167969 147.027344 C 143.09375 134.09375 143.859375 125.183594 144.46875 118.902344 C 145.078125 112.621094 146.105469 101.386719 146.804688 93.910156 C 147.503906 86.4375 148.070312 79.191406 148.136719 77.804688 L 148.179688 75.308594 L 141.386719 74.542969 Z M 240.214844 122.125 C 240.113281 122.15625 239.613281 125.332031 239.039062 129.160156 C 238.46875 132.992188 237.03125 141.441406 235.875 147.902344 C 233.863281 158.933594 233.625 159.769531 232.515625 160.65625 C 231.453125 161.546875 230.972656 161.542969 225.175781 160.890625 C 219.191406 160.214844 218.90625 160.183594 217.898438 158.867188 C 216.882812 157.644531 216.871094 157.308594 217.445312 152.226562 C 217.777344 149.28125 218.738281 142.847656 219.535156 137.886719 C 220.328125 132.972656 221.324219 127.121094 221.765625 124.910156 L 222.507812 120.902344 C 215.9375 120.742188 210.226562 120.628906 205.617188 120.542969 L 197.21875 120.367188 C 195.566406 130.328125 194.402344 136.835938 193.621094 141.222656 C 192.832031 145.65625 191.871094 150.359375 191.480469 151.707031 C 190.992188 153.433594 190.460938 154.335938 189.648438 154.726562 C 188.679688 155.195312 187.730469 155.085938 183.460938 154.128906 C 179.289062 153.175781 178.269531 152.820312 177.472656 151.769531 C 176.878906 151.078125 176.457031 149.683594 176.421875 148.285156 C 176.367188 147.078125 176.984375 140.316406 177.773438 133.332031 L 179.132812 120.59375 C 175.613281 120.679688 170.539062 120.878906 165.613281 121.042969 C 160.683594 121.257812 155.171875 121.503906 153.28125 121.628906 C 151.445312 121.707031 149.738281 121.902344 149.53125 122.023438 C 149.320312 122.195312 148.757812 127.660156 148.261719 134.195312 C 147.8125 140.785156 147.398438 146.988281 147.472656 148.058594 C 147.5 149.503906 147.296875 150.25 146.507812 151.027344 C 145.75 151.808594 144.90625 152 142.652344 151.941406 C 141.070312 151.90625 138.1875 151.4375 136.277344 150.882812 C 134.089844 150.25 132.449219 149.441406 131.804688 148.746094 C 131.164062 148 130.828125 146.757812 130.71875 144.726562 C 130.652344 143.179688 130.695312 138.949219 130.859375 135.363281 C 130.964844 131.8125 131.191406 127.703125 131.363281 126.183594 C 131.628906 123.808594 131.570312 123.464844 130.835938 123.574219 C 130.355469 123.613281 125.8125 124.210938 120.683594 124.882812 C 115.609375 125.515625 107.875 126.714844 103.554688 127.480469 C 99.230469 128.289062 92.578125 129.707031 88.765625 130.671875 C 84.957031 131.589844 78.9375 133.367188 75.335938 134.597656 C 71.777344 135.878906 67.097656 137.710938 65.003906 138.773438 C 62.914062 139.835938 60.144531 141.351562 58.902344 142.128906 C 57.65625 142.949219 55.796875 144.519531 54.765625 145.558594 C 53.730469 146.644531 52.625 148.347656 52.222656 149.359375 C 51.667969 150.789062 51.621094 151.699219 52.03125 153.1875 C 52.292969 154.324219 53.460938 156.28125 54.617188 157.566406 C 55.714844 158.894531 58.265625 161.054688 60.230469 162.382812 C 62.148438 163.707031 65.632812 165.683594 67.867188 166.753906 C 70.148438 167.875 74.789062 169.792969 78.207031 171.046875 C 81.628906 172.296875 87.800781 174.289062 91.90625 175.425781 C 96.011719 176.5625 102.234375 178.125 105.699219 178.949219 C 109.171875 179.726562 115 180.957031 118.628906 181.605469 C 122.253906 182.300781 131.421875 183.769531 138.949219 184.855469 C 147.464844 186.101562 158.914062 187.390625 169.113281 188.25 C 178.164062 189.03125 188.898438 189.804688 192.96875 189.972656 C 197.039062 190.144531 204.363281 190.441406 209.253906 190.605469 C 214.140625 190.769531 222.886719 190.839844 228.707031 190.871094 C 234.527344 190.851562 243.011719 190.699219 247.496094 190.582031 C 252.039062 190.417969 258.320312 190.164062 261.515625 189.992188 C 264.707031 189.824219 270.28125 189.441406 273.875 189.171875 C 277.464844 188.902344 284.800781 188.238281 290.160156 187.636719 C 295.515625 187.085938 303.859375 186.003906 308.707031 185.25 C 313.554688 184.5 321.515625 182.988281 326.402344 181.902344 C 331.285156 180.816406 337.871094 179.152344 341.007812 178.207031 C 344.144531 177.261719 348.449219 175.773438 350.515625 174.949219 C 352.585938 174.074219 355.933594 172.527344 357.878906 171.496094 C 359.871094 170.46875 362.734375 168.53125 364.277344 167.214844 C 365.816406 165.941406 367.460938 164.15625 367.945312 163.25 C 368.433594 162.390625 368.921875 161 369.019531 160.148438 C 369.117188 159.292969 368.730469 157.613281 368.105469 156.292969 C 367.40625 154.820312 365.875 153.058594 363.769531 151.234375 C 361.972656 149.683594 358.34375 147.304688 355.710938 145.902344 C 353.078125 144.5 348.042969 142.25 344.492188 140.886719 C 340.933594 139.574219 335.09375 137.617188 331.511719 136.539062 C 327.921875 135.511719 322.460938 134.03125 319.367188 133.296875 C 316.28125 132.515625 310.035156 131.1875 305.515625 130.292969 C 301 129.402344 293.546875 128.082031 289.007812 127.378906 C 282.105469 126.316406 280.675781 126.199219 280.371094 126.746094 C 280.140625 127.105469 278.898438 134.277344 277.609375 142.742188 C 275.570312 155.742188 275.097656 158.238281 274.257812 159.296875 C 273.25 160.53125 273.25 160.53125 268.648438 159.964844 C 266.085938 159.675781 263.398438 159.179688 262.652344 158.949219 C 261.914062 158.675781 260.949219 157.84375 260.464844 157.019531 C 259.617188 155.578125 259.617188 155.578125 261.925781 140.589844 C 263.242188 132.367188 264.375 125.28125 264.566406 124.820312 C 264.84375 124.082031 264.464844 123.992188 260.941406 123.691406 C 258.75 123.488281 253.222656 123.015625 248.640625 122.691406 C 244.066406 122.324219 240.246094 122.085938 240.191406 122.125 Z M 360.707031 176.046875 C 359.0625 176.96875 354.617188 178.871094 350.890625 180.328125 C 347.175781 181.738281 340.984375 183.734375 337.167969 184.75 C 333.347656 185.761719 327.027344 187.214844 323.089844 188.023438 C 319.152344 188.785156 312.769531 189.941406 308.851562 190.558594 C 304.941406 191.128906 298.785156 191.972656 295.179688 192.386719 C 291.570312 192.796875 285.539062 193.417969 281.792969 193.765625 C 278.050781 194.113281 271.308594 194.605469 266.753906 194.910156 C 262.25 195.175781 254.078125 195.554688 248.621094 195.757812 C 243.167969 195.914062 233.863281 196.066406 227.898438 196.070312 C 221.941406 196.023438 213.003906 195.933594 207.972656 195.75 C 202.984375 195.625 195.753906 195.339844 191.921875 195.195312 C 188.089844 195.050781 174.277344 193.835938 161.195312 192.507812 C 145.5 190.933594 133.96875 189.542969 127.265625 188.402344 C 121.691406 187.488281 113.964844 186.039062 110.066406 185.214844 C 106.214844 184.394531 99.886719 182.914062 96.003906 181.949219 C 92.171875 180.9375 86.484375 179.335938 83.417969 178.367188 C 80.359375 177.347656 75.457031 175.59375 72.554688 174.449219 C 69.648438 173.355469 65.210938 171.316406 62.714844 169.976562 C 60.222656 168.636719 56.847656 166.574219 55.207031 165.332031 C 53.566406 164.085938 51.128906 161.792969 49.871094 160.160156 C 48.605469 158.574219 47.445312 157.339844 47.347656 157.375 C 47.242188 157.40625 46.4375 159.003906 45.554688 160.878906 C 44.710938 162.800781 43.167969 166.71875 42.164062 169.636719 C 41.160156 172.601562 39.820312 177.210938 39.183594 179.882812 C 38.492188 183.074219 37.769531 188.621094 37.160156 195.289062 C 36.410156 204.054688 36.34375 206.789062 36.8125 211.605469 C 37.125 214.8125 37.757812 219.023438 38.269531 220.90625 C 38.722656 222.835938 39.71875 225.976562 40.511719 227.894531 C 41.257812 229.804688 42.601562 232.410156 43.511719 233.714844 C 44.429688 234.972656 45.9375 236.539062 46.882812 237.125 C 47.914062 237.769531 49.585938 238.296875 51.15625 238.472656 C 52.675781 238.644531 54.957031 238.464844 56.636719 238.078125 C 58.171875 237.675781 63.136719 235.445312 67.636719 233.0625 C 73 230.300781 76.890625 228.621094 79.015625 228.140625 C 81.332031 227.628906 82.96875 227.621094 84.804688 227.972656 C 86.453125 228.304688 88.289062 229.085938 89.808594 230.125 C 91.148438 231.042969 93.253906 233.253906 94.507812 234.933594 C 96 237.074219 97.410156 239.925781 98.683594 243.582031 C 99.78125 246.640625 101.351562 252.347656 102.210938 256.246094 C 103.113281 260.195312 104.199219 264.644531 104.65625 266.140625 C 105.15625 267.6875 106.367188 270.613281 107.429688 272.707031 C 108.441406 274.839844 109.984375 277.371094 110.839844 278.332031 C 111.691406 279.296875 113.359375 280.734375 114.523438 281.488281 C 115.683594 282.292969 117.097656 282.980469 117.714844 283.050781 C 118.28125 283.117188 119.574219 282.78125 120.546875 282.265625 C 121.617188 281.710938 123.089844 280.191406 124.460938 278.230469 C 125.902344 276.132812 128.035156 271.707031 130.960938 264.53125 C 133.34375 258.738281 135.894531 252.722656 136.640625 251.222656 C 137.382812 249.765625 138.886719 247.097656 140.039062 245.398438 C 141.199219 243.652344 143.449219 241.164062 145.042969 239.851562 C 146.738281 238.457031 149.109375 237.039062 150.710938 236.496094 C 152.210938 235.992188 154.867188 235.472656 156.609375 235.382812 C 159.273438 235.199219 160.265625 235.359375 162.996094 236.339844 C 164.800781 236.976562 167.335938 238.367188 168.621094 239.332031 C 169.953125 240.347656 172.28125 242.726562 173.792969 244.675781 C 175.359375 246.582031 177.160156 249.382812 177.855469 250.90625 C 178.507812 252.371094 179.5 255.082031 180.027344 256.824219 C 180.5 258.609375 181.40625 263.8125 182.046875 268.355469 C 182.636719 272.945312 183.460938 278.039062 183.8125 279.617188 C 184.203125 281.25 184.992188 283.648438 185.527344 284.863281 C 186.109375 286.132812 187.378906 288.101562 188.304688 289.265625 C 189.273438 290.480469 190.839844 291.957031 191.832031 292.546875 C 193.128906 293.414062 194.527344 293.8125 197.140625 294.105469 C 200.179688 294.449219 201.203125 294.324219 204.105469 293.351562 C 206.011719 292.652344 208.671875 291.21875 210.304688 289.960938 C 212.042969 288.617188 213.851562 286.65625 214.972656 284.808594 C 215.96875 283.238281 217.292969 280.453125 217.882812 278.644531 C 218.460938 276.878906 219.613281 271.816406 220.351562 267.375 C 221.136719 262.992188 222.195312 258.253906 222.742188 256.824219 C 223.332031 255.445312 224.363281 253.542969 225.101562 252.519531 C 225.839844 251.542969 227.660156 249.871094 229.128906 248.785156 C 230.601562 247.699219 233.210938 246.3125 234.964844 245.691406 C 236.664062 245.113281 239.710938 244.542969 241.695312 244.429688 C 244.5 244.3125 246.066406 244.488281 248.578125 245.246094 C 250.398438 245.738281 253.140625 247.011719 254.753906 248.058594 C 256.375 249.058594 258.90625 251.363281 260.390625 253.117188 C 261.878906 254.871094 263.863281 257.742188 264.785156 259.382812 C 265.75 261.082031 267.949219 265.898438 269.695312 270.039062 C 271.4375 274.226562 273.4375 278.683594 274.117188 279.917969 C 274.789062 281.195312 276.226562 283.378906 277.363281 284.804688 C 278.503906 286.230469 280.191406 287.910156 281.132812 288.5 C 282.03125 289.082031 283.652344 289.648438 284.695312 289.765625 C 286.027344 289.914062 287.0625 289.695312 288.046875 289.035156 C 288.832031 288.5 290.226562 286.78125 291.175781 285.203125 C 292.480469 282.992188 293.054688 281.328125 293.542969 278.253906 C 294.054688 275.425781 294.117188 272.5 293.90625 268.195312 C 293.703125 264.898438 293.421875 260.539062 293.265625 258.5 C 293.152344 256.515625 293.242188 252.726562 293.539062 250.113281 C 293.785156 247.253906 294.433594 244.296875 295.109375 242.59375 C 295.660156 241.070312 296.828125 238.84375 297.691406 237.59375 C 298.550781 236.390625 301.144531 233.84375 303.46875 231.992188 C 306.113281 229.882812 308.753906 228.207031 310.453125 227.628906 C 311.960938 227.078125 314.328125 226.527344 315.640625 226.433594 C 317.238281 226.324219 319.089844 226.535156 321.097656 227.089844 C 322.78125 227.519531 325.75 228.914062 327.726562 230.144531 C 329.710938 231.332031 333.816406 234.199219 336.882812 236.417969 C 339.945312 238.6875 343.765625 241.089844 345.417969 241.804688 C 347.070312 242.519531 349.253906 243.199219 350.296875 243.316406 C 351.4375 243.445312 353.300781 243.125 354.960938 242.496094 C 356.417969 241.9375 358.484375 240.679688 359.503906 239.734375 C 360.523438 238.792969 362.152344 236.714844 363.152344 235.09375 C 364.855469 232.351562 365.011719 231.839844 365.992188 224.832031 C 366.585938 220.808594 367.179688 214.285156 367.292969 210.304688 C 367.441406 206.378906 367.589844 197.832031 367.691406 191.351562 C 367.746094 184.910156 367.769531 177.84375 367.769531 175.726562 C 367.714844 173.601562 367.628906 171.863281 367.582031 171.808594 C 367.488281 171.753906 366.617188 172.277344 365.570312 173.023438 C 364.574219 173.730469 362.351562 175.117188 360.707031 176.039062 Z M 311.695312 232.824219 C 310.382812 233.398438 307.945312 234.953125 306.253906 236.300781 C 304.511719 237.691406 302.578125 239.878906 301.589844 241.402344 C 300.699219 242.890625 299.585938 245.554688 299.101562 247.28125 C 298.574219 249.386719 298.316406 251.667969 298.324219 254.167969 C 298.382812 256.242188 298.648438 260.699219 298.894531 264.09375 C 299.183594 267.492188 299.386719 270.402344 299.375 270.496094 C 299.359375 270.640625 304.035156 270.109375 309.757812 269.261719 C 315.476562 268.460938 323.460938 267.195312 327.488281 266.445312 C 331.5625 265.75 339.1875 264.25 344.457031 263.160156 C 349.730469 262.023438 355.519531 260.605469 357.320312 259.992188 C 359.121094 259.375 360.898438 258.949219 361.277344 258.992188 C 361.898438 259.0625 362.035156 258.261719 362.320312 253.195312 C 362.488281 249.988281 362.683594 246.5 362.808594 245.40625 L 363.09375 243.515625 C 359.980469 245.957031 357.835938 247.0625 356.332031 247.613281 C 354.625 248.238281 352.519531 248.578125 350.699219 248.519531 C 348.875 248.457031 346.765625 247.976562 344.824219 247.28125 C 343.167969 246.613281 340.308594 245.089844 338.472656 243.871094 C 336.632812 242.703125 332.796875 240.007812 330.003906 237.914062 C 327.203125 235.867188 323.976562 233.773438 322.832031 233.257812 C 321.6875 232.746094 319.929688 232.117188 318.902344 231.855469 C 317.867188 231.640625 316.386719 231.53125 315.558594 231.625 C 314.777344 231.730469 313.03125 232.300781 311.71875 232.828125 Z M 234.042969 251.742188 C 232.714844 252.460938 230.859375 253.984375 229.910156 255.128906 C 228.964844 256.269531 227.910156 257.933594 227.527344 258.804688 C 227.183594 259.726562 226.3125 263.621094 225.632812 267.488281 C 225 271.410156 224.449219 274.621094 224.492188 274.671875 C 224.558594 274.722656 229.441406 274.703125 235.417969 274.601562 C 241.386719 274.554688 250.511719 274.28125 255.683594 274.046875 C 260.855469 273.8125 265.164062 273.574219 265.265625 273.539062 C 265.347656 273.449219 264.699219 271.742188 263.828125 269.625 C 262.957031 267.554688 261.523438 264.457031 260.65625 262.773438 C 259.734375 261.128906 258.011719 258.480469 256.789062 256.949219 C 255.484375 255.3125 253.335938 253.433594 251.539062 252.316406 C 249.203125 250.851562 247.726562 250.300781 245.171875 249.917969 C 242.90625 249.515625 241.027344 249.550781 239.160156 249.914062 C 237.679688 250.230469 235.371094 251.074219 234.046875 251.742188 Z M 152.304688 241.582031 C 151.203125 241.988281 149.335938 243.171875 148.117188 244.1875 C 146.941406 245.210938 145.425781 246.722656 144.753906 247.5625 C 144.125 248.453125 142.875 250.574219 141.960938 252.300781 C 141.035156 254.070312 139.160156 258.382812 137.703125 261.921875 C 136.238281 265.507812 134.964844 268.734375 134.769531 269.191406 C 134.492188 269.929688 135.046875 270.089844 142.175781 270.890625 C 146.402344 271.367188 155.980469 272.203125 163.472656 272.710938 C 170.964844 273.265625 177.164062 273.722656 177.21875 273.679688 C 177.320312 273.652344 177.027344 270.675781 176.574219 267.019531 C 175.996094 262.335938 175.292969 259.175781 174.121094 255.917969 C 172.894531 252.703125 171.65625 250.445312 169.679688 247.914062 C 168.113281 246.007812 165.820312 243.726562 164.429688 242.851562 C 163.042969 241.925781 160.972656 241.066406 159.609375 240.816406 C 158.335938 240.574219 156.613281 240.480469 155.785156 240.578125 C 155 240.730469 153.410156 241.175781 152.304688 241.582031 Z M 75.878906 234.664062 C 74.910156 235.132812 71.894531 236.71875 69.226562 238.195312 C 66.566406 239.628906 62.804688 241.417969 60.84375 242.160156 C 58.9375 242.859375 56.261719 243.566406 54.894531 243.75 C 53.527344 243.933594 51.039062 243.796875 49.152344 243.488281 C 47.125 243.117188 45.132812 242.414062 43.972656 241.609375 L 42.050781 240.332031 C 42.082031 243.898438 42.101562 245.4375 42.179688 246.023438 C 42.222656 246.894531 43.019531 247.515625 45.796875 248.933594 C 47.707031 249.917969 51.183594 251.511719 53.433594 252.4375 C 55.734375 253.371094 60.3125 254.992188 63.617188 255.988281 C 66.964844 257.039062 72.839844 258.664062 76.675781 259.625 C 80.5625 260.589844 86.984375 262.082031 90.976562 262.917969 C 94.972656 263.753906 98.320312 264.367188 98.417969 264.332031 C 98.523438 264.300781 97.839844 260.949219 96.953125 256.855469 C 96.058594 252.8125 94.664062 247.699219 93.90625 245.449219 C 93.144531 243.246094 91.746094 240.300781 90.800781 238.847656 C 89.851562 237.441406 88.460938 235.695312 87.722656 234.988281 C 86.847656 234.214844 85.476562 233.582031 83.972656 233.265625 C 82.5625 232.960938 80.875 233.015625 79.640625 233.308594 C 78.546875 233.617188 76.847656 234.195312 75.878906 234.664062 Z M 345.074219 268.328125 C 339.660156 269.453125 332.230469 270.925781 328.589844 271.621094 C 324.957031 272.269531 316.929688 273.53125 310.722656 274.371094 L 299.488281 275.898438 C 298.351562 281.300781 297.519531 284 296.929688 285.375 C 296.378906 286.804688 295.304688 288.703125 294.570312 289.679688 C 293.878906 290.707031 292.578125 292.003906 291.777344 292.683594 C 290.933594 293.359375 289.34375 294.238281 288.238281 294.644531 C 286.6875 295.1875 285.570312 295.257812 283.402344 294.867188 C 281.757812 294.535156 279.679688 293.773438 278.328125 292.949219 C 277.113281 292.1875 274.863281 289.960938 273.296875 288.054688 C 271.78125 286.152344 269.847656 283.242188 268.972656 281.601562 C 267.792969 279.257812 267.234375 278.664062 266.453125 278.769531 C 265.914062 278.855469 260.355469 279.09375 254.121094 279.355469 C 247.894531 279.566406 238.34375 279.792969 232.894531 279.898438 C 227.453125 279.960938 223.019531 280.039062 222.964844 280.082031 C 222.957031 280.179688 222.542969 281.234375 222.070312 282.480469 C 221.589844 283.773438 220.40625 286.140625 219.410156 287.714844 C 218.171875 289.738281 216.375 291.605469 213.832031 293.675781 C 211.507812 295.53125 208.925781 297.117188 206.96875 297.808594 C 205.214844 298.429688 202.4375 299.175781 200.777344 299.421875 C 198.871094 299.6875 196.664062 299.632812 194.875 299.285156 C 193.222656 299 191.011719 298.128906 189.484375 297.1875 C 188.042969 296.304688 185.890625 294.476562 184.699219 293.089844 C 183.460938 291.699219 181.9375 289.414062 181.234375 287.988281 C 180.570312 286.613281 179.613281 284.003906 179.09375 282.214844 L 178.207031 278.988281 C 173.570312 278.707031 166.847656 278.191406 160.261719 277.738281 C 153.726562 277.242188 144.773438 276.425781 140.40625 275.933594 C 133.230469 275.128906 132.414062 275.132812 132.042969 275.859375 C 131.847656 276.320312 130.667969 278.253906 129.433594 280.230469 C 128.195312 282.257812 126.296875 284.59375 125.1875 285.480469 C 124.03125 286.359375 122.472656 287.386719 121.617188 287.722656 C 120.710938 288.054688 118.964844 288.195312 117.253906 288 C 115.117188 287.761719 113.730469 287.265625 111.703125 286.03125 C 109.902344 284.929688 108.09375 283.203125 106.273438 280.847656 C 104.761719 278.898438 102.894531 275.851562 102.136719 274.03125 C 101.324219 272.257812 100.640625 270.640625 100.613281 270.445312 C 100.535156 270.292969 96.503906 269.359375 91.570312 268.320312 C 86.679688 267.339844 78.238281 265.378906 72.816406 264 C 67.445312 262.578125 60.59375 260.601562 57.675781 259.601562 C 54.757812 258.597656 50.0625 256.722656 47.226562 255.441406 C 44.386719 254.160156 42.085938 253.226562 42.027344 253.316406 C 42.011719 253.460938 41.894531 259.21875 41.800781 266.039062 C 41.699219 272.90625 41.542969 279 41.492188 279.472656 C 41.398438 280.28125 42.253906 280.808594 47.261719 282.914062 C 50.480469 284.238281 56.835938 286.730469 61.40625 288.449219 C 65.980469 290.117188 73.386719 292.683594 77.839844 294.148438 C 82.296875 295.5625 89.660156 297.691406 94.144531 298.867188 C 98.636719 300 105.53125 301.546875 109.394531 302.269531 C 113.3125 302.949219 121.152344 304.21875 126.886719 305.007812 C 132.613281 305.84375 144.261719 307.0625 152.800781 307.683594 C 161.335938 308.359375 172.707031 309.058594 178.117188 309.28125 C 183.527344 309.503906 191.8125 309.8125 196.5625 309.914062 C 201.308594 310.0625 209.527344 310.125 214.828125 310.046875 C 220.128906 309.96875 226.980469 309.78125 230.03125 309.59375 C 233.078125 309.457031 241.632812 308.6875 248.976562 307.972656 C 256.324219 307.214844 265.09375 306.226562 268.460938 305.789062 C 271.835938 305.304688 279.316406 304.222656 285.09375 303.332031 C 290.875 302.394531 298.726562 301.019531 302.523438 300.195312 C 306.320312 299.371094 317.699219 296.5625 327.757812 293.945312 C 337.867188 291.328125 349.5 288.40625 353.601562 287.425781 C 360.769531 285.730469 361.125 285.578125 361.0625 284.414062 C 361.035156 283.789062 361.164062 279.664062 361.363281 275.308594 C 361.554688 271.003906 361.75 266.742188 361.796875 265.882812 C 361.792969 265.015625 361.582031 264.320312 361.347656 264.292969 C 361.105469 264.308594 359.566406 264.71875 357.914062 265.300781 C 356.265625 265.835938 350.484375 267.207031 345.066406 268.328125 Z M 350.367188 293.554688 C 344.976562 294.871094 333.289062 297.835938 324.417969 300.15625 C 315.546875 302.480469 305.207031 305.019531 301.414062 305.792969 C 297.625 306.570312 290.019531 307.878906 284.492188 308.699219 C 278.957031 309.570312 270.40625 310.769531 265.425781 311.414062 C 260.453125 312.007812 250.566406 313.105469 243.421875 313.746094 C 236.175781 314.421875 224.800781 315.066406 217.765625 315.1875 C 210.773438 315.316406 198.1875 315.195312 189.75 314.921875 C 181.316406 314.644531 169.6875 314.105469 163.902344 313.792969 C 158.121094 313.429688 145.363281 312.234375 135.578125 311.132812 C 125.789062 310.074219 114.183594 308.484375 109.75 307.695312 C 105.371094 306.863281 98.050781 305.226562 93.558594 304.09375 C 89.074219 302.914062 82.125 300.980469 78.171875 299.765625 C 74.226562 298.503906 66.304688 295.785156 60.582031 293.648438 C 54.851562 291.558594 48.351562 289.050781 46.046875 288.164062 C 43.792969 287.238281 41.851562 286.539062 41.746094 286.621094 C 41.667969 286.660156 41.648438 289.640625 41.632812 293.199219 C 41.660156 296.808594 41.707031 301.097656 41.808594 302.742188 C 41.867188 304.820312 42.179688 305.910156 42.714844 306.261719 C 43.113281 306.546875 47.496094 308.628906 52.386719 310.910156 C 57.277344 313.191406 64.71875 316.335938 68.917969 317.917969 C 73.117188 319.496094 79.976562 321.808594 84.210938 323.054688 C 88.445312 324.347656 95.914062 326.34375 100.785156 327.515625 C 105.703125 328.695312 113.304688 330.417969 117.671875 331.339844 C 122.09375 332.226562 128.730469 333.546875 132.503906 334.214844 C 136.277344 334.878906 143.695312 336.050781 149.046875 336.796875 C 154.398438 337.546875 161.734375 338.609375 165.382812 339.117188 C 169.023438 339.671875 178.960938 340.6875 187.492188 341.410156 C 196.027344 342.085938 206.097656 342.785156 209.925781 342.976562 C 213.757812 343.117188 221.101562 343.269531 226.242188 343.320312 C 231.382812 343.371094 239.332031 343.253906 243.824219 343.085938 C 248.359375 342.972656 254.988281 342.613281 258.574219 342.390625 C 262.164062 342.121094 269.953125 341.3125 275.859375 340.535156 C 281.769531 339.757812 289.941406 338.511719 293.976562 337.714844 C 298.050781 336.972656 305.804688 335.199219 311.253906 333.792969 C 316.699219 332.433594 327.316406 329.539062 334.828125 327.351562 C 342.335938 325.167969 350.414062 322.660156 352.765625 321.820312 C 357.023438 320.328125 357.03125 320.28125 357.601562 318.179688 C 357.921875 317.0625 358.734375 311.089844 359.386719 304.910156 C 360.078125 298.785156 360.5625 293.210938 360.453125 292.476562 L 360.207031 291.199219 Z M 350.367188 293.554688 " fill-opacity="1" fill-rule="evenodd"/></g></svg>