<svg xmlns="http://www.w3.org/2000/svg" xmlns:xlink="http://www.w3.org/1999/xlink" width="500" zoomAndPan="magnify" viewBox="0 0 375 374.999991" height="500" preserveAspectRatio="xMidYMid meet" version="1.0"><defs><clipPath id="51bd7f16ba"><path d="M 0 145 L 373 145 L 373 374.8125 L 0 374.8125 Z M 0 145 " clip-rule="nonzero"/></clipPath><clipPath id="9a229be721"><path d="M 0 2.8125 L 375 2.8125 L 375 132 L 0 132 Z M 0 2.8125 " clip-rule="nonzero"/></clipPath><clipPath id="313bb43a44"><path d="M 68 2.8125 L 108 2.8125 L 108 66 L 68 66 Z M 68 2.8125 " clip-rule="nonzero"/></clipPath></defs><g clip-path="url(#51bd7f16ba)"><path fill="#e1afd1" d="M 284.25 188.90625 C 284.25 242.15625 240 286.40625 186 286.40625 C 132 286.40625 88.5 242.90625 88.5 188.90625 C 88.5 173.15625 92.25 158.90625 99 145.40625 L 0 145.40625 L 0 314.15625 C 0 347.90625 27 374.90625 60.75 374.90625 L 311.25 374.90625 C 345 374.90625 372.75 347.90625 372.75 314.15625 L 372.75 145.40625 L 274.5 145.40625 C 280.5 158.90625 284.25 173.15625 284.25 188.90625 Z M 284.25 188.90625 " fill-opacity="1" fill-rule="nonzero"/></g><g clip-path="url(#9a229be721)"><path fill="#e1afd1" d="M 311.25 2.90625 L 123.75 2.90625 L 123.75 73.40625 C 123.75 77.90625 120.75 80.90625 116.25 80.90625 L 61.5 80.90625 C 57 80.90625 54 77.90625 54 73.40625 L 54 2.90625 C 24 6.65625 0.75 32.15625 0.75 63.65625 L 0.75 131.15625 L 109.5 131.15625 C 127.5 107.15625 155.25 92.15625 187.5 92.15625 C 219.75 92.15625 248.25 107.90625 266.25 131.15625 L 375 131.15625 L 375 63.65625 C 373.5 29.90625 345.75 2.90625 311.25 2.90625 Z M 318.75 72.65625 C 309.75 72.65625 302.25 65.15625 302.25 56.15625 C 302.25 47.90625 309.75 39.65625 318.75 39.65625 C 327.75 39.65625 335.25 47.15625 335.25 56.15625 C 335.25 65.90625 328.5 72.65625 318.75 72.65625 Z M 318.75 72.65625 " fill-opacity="1" fill-rule="nonzero"/></g><path fill="#e1afd1" d="M 186 271.40625 C 232.5 271.40625 269.25 233.90625 269.25 188.90625 C 269.25 143.90625 231.75 106.40625 186 106.40625 C 158.25 106.40625 134.25 119.90625 119.25 140.90625 C 118.5 141.65625 118.5 142.40625 117.75 143.15625 C 109.5 155.90625 104.25 171.65625 104.25 188.15625 C 104.25 233.90625 141 271.40625 186 271.40625 Z M 186 271.40625 " fill-opacity="1" fill-rule="nonzero"/><g clip-path="url(#313bb43a44)"><path fill="#e1afd1" d="M 68.25 2.90625 L 108 2.90625 L 108 65.90625 L 68.25 65.90625 Z M 68.25 2.90625 " fill-opacity="1" fill-rule="nonzero"/></g></svg>