<svg xmlns="http://www.w3.org/2000/svg" xmlns:xlink="http://www.w3.org/1999/xlink" width="500" zoomAndPan="magnify" viewBox="0 0 375 374.999991" height="500" preserveAspectRatio="xMidYMid meet" version="1.0"><path fill="#e1afd1" d="M 269.9375 374.980469 C 269.328125 374.980469 268.722656 374.953125 268.117188 374.890625 C 267.511719 374.832031 266.910156 374.742188 266.316406 374.625 C 265.71875 374.507812 265.128906 374.359375 264.546875 374.183594 C 263.964844 374.003906 263.394531 373.800781 262.832031 373.566406 C 262.269531 373.335938 261.722656 373.074219 261.1875 372.789062 C 260.648438 372.503906 260.128906 372.191406 259.625 371.851562 C 259.117188 371.515625 258.628906 371.152344 258.160156 370.769531 C 257.691406 370.382812 257.242188 369.972656 256.8125 369.542969 C 256.378906 369.113281 255.972656 368.664062 255.585938 368.195312 C 255.203125 367.726562 254.839844 367.238281 254.503906 366.730469 C 254.164062 366.226562 253.851562 365.707031 253.566406 365.167969 C 253.277344 364.632812 253.019531 364.082031 252.785156 363.523438 C 252.554688 362.960938 252.347656 362.390625 252.171875 361.808594 C 251.996094 361.226562 251.847656 360.636719 251.730469 360.039062 C 251.613281 359.445312 251.523438 358.84375 251.464844 358.238281 C 251.402344 357.632812 251.375 357.027344 251.375 356.417969 L 251.375 308.15625 C 251.660156 305.378906 251.660156 302.605469 251.367188 299.828125 C 251.070312 297.054688 250.492188 294.339844 249.628906 291.6875 C 248.765625 289.03125 247.636719 286.496094 246.242188 284.082031 C 244.847656 281.664062 243.214844 279.417969 241.351562 277.34375 C 240.195312 276.089844 239.230469 274.703125 238.457031 273.183594 C 237.683594 271.664062 237.128906 270.070312 236.792969 268.398438 C 236.460938 266.726562 236.359375 265.042969 236.488281 263.34375 C 236.617188 261.640625 236.976562 259.992188 237.5625 258.390625 C 238.144531 256.789062 238.9375 255.296875 239.933594 253.914062 C 240.929688 252.53125 242.09375 251.308594 243.425781 250.246094 C 244.757812 249.183594 246.210938 248.320312 247.78125 247.65625 C 249.351562 246.996094 250.980469 246.554688 252.671875 246.34375 C 297.964844 240.960938 339.730469 226.480469 339.730469 147.960938 C 339.734375 144.316406 339.472656 140.691406 338.941406 137.082031 C 338.410156 133.476562 337.617188 129.925781 336.566406 126.4375 C 335.511719 122.945312 334.207031 119.550781 332.65625 116.253906 C 331.101562 112.953125 329.3125 109.789062 327.292969 106.753906 C 325.4375 103.972656 323.871094 101.035156 322.59375 97.945312 C 321.3125 94.855469 320.347656 91.667969 319.695312 88.390625 C 319.042969 85.109375 318.714844 81.796875 318.710938 78.453125 C 318.710938 75.109375 319.035156 71.796875 319.683594 68.515625 C 321.371094 59.789062 321.371094 51.066406 319.683594 42.339844 C 305.699219 47.070312 292.769531 53.8125 280.886719 62.574219 C 279.773438 63.367188 278.582031 64.027344 277.320312 64.558594 C 276.058594 65.085938 274.75 65.472656 273.402344 65.714844 C 272.054688 65.953125 270.699219 66.042969 269.328125 65.984375 C 267.960938 65.925781 266.617188 65.714844 265.296875 65.359375 C 256.960938 63.003906 248.503906 61.230469 239.925781 60.042969 C 231.34375 58.855469 222.722656 58.257812 214.0625 58.257812 C 205.402344 58.257812 196.78125 58.855469 188.203125 60.042969 C 179.621094 61.230469 171.164062 63.003906 162.832031 65.359375 C 161.507812 65.714844 160.164062 65.925781 158.796875 65.984375 C 157.429688 66.042969 156.070312 65.953125 154.722656 65.714844 C 153.375 65.472656 152.070312 65.085938 150.804688 64.558594 C 149.542969 64.027344 148.355469 63.367188 147.238281 62.574219 C 135.277344 53.707031 122.222656 46.964844 108.070312 42.339844 C 106.289062 51.066406 106.289062 59.789062 108.070312 68.515625 C 108.675781 71.835938 108.953125 75.1875 108.914062 78.566406 C 108.871094 81.941406 108.507812 85.285156 107.824219 88.59375 C 107.140625 91.902344 106.148438 95.113281 104.847656 98.230469 C 103.546875 101.347656 101.960938 104.3125 100.089844 107.125 C 98.078125 110.179688 96.296875 113.367188 94.75 116.683594 C 93.199219 120 91.902344 123.410156 90.847656 126.914062 C 89.792969 130.417969 89 133.980469 88.464844 137.601562 C 87.929688 141.21875 87.660156 144.859375 87.652344 148.519531 C 87.652344 220.726562 122.550781 240.03125 174.894531 246.714844 C 175.75 246.820312 176.589844 246.984375 177.417969 247.207031 C 178.25 247.429688 179.058594 247.707031 179.847656 248.042969 C 180.640625 248.378906 181.402344 248.765625 182.140625 249.207031 C 182.878906 249.648438 183.582031 250.136719 184.25 250.675781 C 184.917969 251.214844 185.546875 251.796875 186.136719 252.421875 C 186.722656 253.046875 187.265625 253.710938 187.761719 254.410156 C 188.257812 255.113281 188.703125 255.84375 189.097656 256.605469 C 189.492188 257.371094 189.832031 258.15625 190.117188 258.964844 C 190.65625 260.546875 190.976562 262.167969 191.078125 263.832031 C 191.183594 265.5 191.0625 267.148438 190.71875 268.78125 C 190.375 270.414062 189.820312 271.972656 189.058594 273.457031 C 188.296875 274.941406 187.347656 276.300781 186.21875 277.527344 C 184.414062 279.457031 182.824219 281.550781 181.453125 283.8125 C 180.082031 286.070312 178.960938 288.445312 178.082031 290.9375 C 177.203125 293.429688 176.589844 295.984375 176.238281 298.605469 C 175.890625 301.222656 175.8125 303.851562 176.011719 306.484375 L 176.011719 356.417969 C 176.011719 357.027344 175.980469 357.632812 175.921875 358.238281 C 175.859375 358.84375 175.773438 359.445312 175.652344 360.039062 C 175.535156 360.636719 175.386719 361.226562 175.210938 361.808594 C 175.035156 362.390625 174.828125 362.960938 174.597656 363.523438 C 174.363281 364.082031 174.105469 364.632812 173.816406 365.167969 C 173.53125 365.707031 173.21875 366.226562 172.882812 366.730469 C 172.542969 367.238281 172.183594 367.726562 171.796875 368.195312 C 171.410156 368.664062 171.003906 369.113281 170.574219 369.542969 C 170.144531 369.972656 169.691406 370.382812 169.222656 370.769531 C 168.753906 371.152344 168.265625 371.515625 167.761719 371.851562 C 167.253906 372.191406 166.734375 372.503906 166.199219 372.789062 C 165.660156 373.074219 165.113281 373.335938 164.550781 373.566406 C 163.988281 373.800781 163.417969 374.003906 162.835938 374.183594 C 162.253906 374.359375 161.664062 374.507812 161.070312 374.625 C 160.472656 374.742188 159.871094 374.832031 159.265625 374.890625 C 158.660156 374.953125 158.054688 374.980469 157.449219 374.980469 C 156.839844 374.980469 156.234375 374.953125 155.628906 374.890625 C 155.023438 374.832031 154.421875 374.742188 153.824219 374.625 C 153.230469 374.507812 152.640625 374.359375 152.058594 374.183594 C 151.476562 374.003906 150.90625 373.800781 150.34375 373.566406 C 149.78125 373.335938 149.234375 373.074219 148.695312 372.789062 C 148.160156 372.503906 147.640625 372.191406 147.132812 371.851562 C 146.628906 371.515625 146.140625 371.152344 145.671875 370.769531 C 145.203125 370.382812 144.75 369.972656 144.320312 369.542969 C 143.890625 369.113281 143.484375 368.664062 143.097656 368.195312 C 142.710938 367.726562 142.351562 367.238281 142.011719 366.730469 C 141.675781 366.226562 141.363281 365.707031 141.078125 365.167969 C 140.789062 364.632812 140.53125 364.082031 140.296875 363.523438 C 140.066406 362.960938 139.859375 362.390625 139.683594 361.808594 C 139.507812 361.226562 139.359375 360.636719 139.242188 360.039062 C 139.121094 359.445312 139.035156 358.84375 138.972656 358.238281 C 138.914062 357.632812 138.886719 357.027344 138.886719 356.417969 L 138.886719 345.839844 C 134.34375 346.359375 129.785156 346.601562 125.210938 346.5625 C 120.640625 346.523438 116.085938 346.207031 111.554688 345.605469 C 107.019531 345.003906 102.539062 344.128906 98.117188 342.980469 C 93.691406 341.828125 89.351562 340.410156 85.101562 338.722656 C 80.851562 337.039062 76.71875 335.097656 72.707031 332.902344 C 68.695312 330.707031 64.835938 328.277344 61.121094 325.605469 C 57.410156 322.933594 53.875 320.046875 50.519531 316.941406 C 47.164062 313.835938 44.011719 310.535156 41.0625 307.042969 C 34.917969 300.234375 27.738281 294.789062 19.527344 290.707031 C 18.9375 290.554688 18.355469 290.375 17.785156 290.167969 C 17.210938 289.957031 16.652344 289.722656 16.101562 289.457031 C 15.554688 289.191406 15.019531 288.902344 14.5 288.585938 C 13.980469 288.269531 13.476562 287.929688 12.988281 287.5625 C 12.5 287.195312 12.035156 286.808594 11.585938 286.394531 C 11.136719 285.984375 10.710938 285.550781 10.304688 285.097656 C 9.898438 284.640625 9.515625 284.167969 9.15625 283.675781 C 8.796875 283.1875 8.460938 282.679688 8.152344 282.152344 C 7.839844 281.628906 7.558594 281.089844 7.300781 280.539062 C 7.042969 279.984375 6.816406 279.421875 6.613281 278.847656 C 6.414062 278.273438 6.238281 277.6875 6.097656 277.097656 C 5.953125 276.503906 5.835938 275.90625 5.75 275.304688 C 5.667969 274.703125 5.609375 274.097656 5.585938 273.488281 C 5.558594 272.878906 5.5625 272.269531 5.597656 271.664062 C 5.632812 271.054688 5.695312 270.449219 5.789062 269.847656 C 5.882812 269.246094 6.003906 268.648438 6.15625 268.058594 C 6.308594 267.46875 6.488281 266.890625 6.699219 266.316406 C 6.90625 265.746094 7.144531 265.183594 7.410156 264.636719 C 7.671875 264.085938 7.964844 263.550781 8.28125 263.03125 C 8.597656 262.511719 8.9375 262.007812 9.304688 261.519531 C 9.671875 261.035156 10.058594 260.566406 10.472656 260.117188 C 10.882812 259.667969 11.316406 259.242188 11.769531 258.835938 C 12.226562 258.429688 12.699219 258.046875 13.191406 257.6875 C 13.683594 257.328125 14.191406 256.996094 14.714844 256.683594 C 15.238281 256.375 15.777344 256.09375 16.332031 255.835938 C 16.882812 255.578125 17.445312 255.351562 18.019531 255.148438 C 18.597656 254.949219 19.179688 254.777344 19.773438 254.632812 C 20.363281 254.488281 20.960938 254.375 21.5625 254.289062 C 22.167969 254.203125 22.773438 254.148438 23.382812 254.121094 C 23.992188 254.097656 24.597656 254.101562 25.207031 254.136719 C 25.816406 254.167969 26.421875 254.234375 27.023438 254.328125 C 27.625 254.421875 28.21875 254.542969 28.808594 254.695312 C 35.949219 257.296875 42.660156 260.734375 48.945312 265.007812 C 55.226562 269.28125 60.890625 274.257812 65.933594 279.941406 C 84.496094 298.503906 103.058594 314.839844 138.328125 308.15625 C 138.019531 303.171875 138.222656 298.210938 138.941406 293.269531 C 139.660156 288.328125 140.878906 283.515625 142.597656 278.828125 C 104.359375 269.175781 49.785156 241.703125 49.785156 148.890625 C 49.773438 143.421875 50.160156 137.984375 50.949219 132.578125 C 51.738281 127.167969 52.917969 121.84375 54.492188 116.609375 C 56.0625 111.375 58.011719 106.28125 60.332031 101.332031 C 62.652344 96.382812 65.324219 91.632812 68.347656 87.078125 C 69.476562 85.386719 70.25 83.546875 70.667969 81.554688 C 71.082031 79.566406 71.113281 77.570312 70.761719 75.566406 C 69.828125 70.585938 69.257812 65.5625 69.046875 60.496094 C 68.835938 55.429688 68.992188 50.375 69.511719 45.332031 C 70.03125 40.289062 70.90625 35.308594 72.140625 30.390625 C 73.378906 25.476562 74.957031 20.671875 76.886719 15.984375 C 77.414062 14.726562 78.070312 13.539062 78.855469 12.429688 C 79.644531 11.316406 80.542969 10.304688 81.554688 9.386719 C 82.566406 8.472656 83.664062 7.679688 84.847656 7.007812 C 86.03125 6.335938 87.277344 5.800781 88.582031 5.402344 C 94.890625 3.546875 117.539062 -0.167969 160.417969 27.675781 C 169.066406 25.597656 177.804688 24.03125 186.636719 22.984375 C 195.46875 21.9375 204.332031 21.414062 213.226562 21.414062 C 222.121094 21.414062 230.984375 21.9375 239.816406 22.984375 C 248.652344 24.03125 257.390625 25.597656 266.039062 27.675781 C 308.917969 -0.167969 331.5625 3.359375 337.6875 5.402344 C 338.992188 5.800781 340.238281 6.335938 341.421875 7.007812 C 342.609375 7.679688 343.707031 8.472656 344.714844 9.386719 C 345.726562 10.304688 346.625 11.316406 347.414062 12.429688 C 348.199219 13.539062 348.855469 14.726562 349.382812 15.984375 C 351.316406 20.6875 352.898438 25.503906 354.136719 30.4375 C 355.375 35.371094 356.253906 40.367188 356.769531 45.425781 C 357.289062 50.484375 357.441406 55.554688 357.230469 60.632812 C 357.019531 65.714844 356.445312 70.753906 355.507812 75.753906 C 355.125 77.582031 355.109375 79.414062 355.464844 81.25 C 355.820312 83.085938 356.515625 84.78125 357.550781 86.335938 C 360.582031 90.902344 363.261719 95.667969 365.585938 100.632812 C 367.914062 105.597656 369.863281 110.703125 371.433594 115.957031 C 373.007812 121.207031 374.183594 126.546875 374.96875 131.972656 C 375.753906 137.398438 376.136719 142.851562 376.113281 148.332031 C 376.113281 242.445312 321.910156 269.730469 283.300781 278.269531 C 285 283.25 286.195312 288.351562 286.882812 293.566406 C 287.570312 298.785156 287.738281 304.019531 287.386719 309.269531 L 287.386719 356.417969 C 287.386719 357.59375 287.277344 358.753906 287.058594 359.90625 C 286.84375 361.0625 286.515625 362.183594 286.085938 363.273438 C 285.65625 364.367188 285.125 365.40625 284.496094 366.398438 C 283.867188 367.386719 283.152344 368.3125 282.347656 369.164062 C 281.542969 370.019531 280.667969 370.792969 279.71875 371.480469 C 278.765625 372.171875 277.761719 372.761719 276.699219 373.261719 C 275.636719 373.757812 274.535156 374.152344 273.398438 374.441406 C 272.261719 374.730469 271.109375 374.910156 269.9375 374.980469 Z M 269.9375 374.980469 " fill-opacity="1" fill-rule="nonzero"/></svg>